<?xml version="1.0" encoding="UTF-8"?> <svg xmlns="http://www.w3.org/2000/svg" width="67" height="67" viewBox="0 0 67 67" fill="none"><g clip-path="url(#clip0)"><path d="M63.4948 25.4806C66.2641 22.0943 67.4753 17.6964 66.8303 13.3698C65.5788 4.8297 57.6413 -1.07893 49.1011 0.172592C45.2508 0.736887 41.7493 2.71722 39.282 5.72638C37.3343 8.21408 34.1057 9.32355 31.0403 8.55846C28.4627 7.84235 25.7678 7.6495 23.1145 7.99137C14.1439 9.20257 7.06498 16.2169 5.77146 25.1759C5.21623 29.1755 5.88644 33.2494 7.69375 36.8603C3.38283 36.9225 -0.0614041 40.4676 0.000830275 44.7784C0.0567854 48.6577 2.95333 51.9073 6.8007 52.4071L8.0052 64.7614C8.0052 65.9945 9.00471 66.994 10.2378 66.994H16.7515C17.4033 66.9934 18.0224 66.7079 18.4461 66.2126C18.887 65.6861 19.0674 64.9891 18.9372 64.3148L15.9522 52.4819H16.5104C17.745 52.4886 18.978 52.5774 20.2009 52.7476C24.2075 61.4336 32.9002 66.9958 42.4657 66.994C43.2025 66.994 43.9466 66.9609 44.6983 66.8946C56.5411 65.7254 65.8735 56.2904 66.9129 44.4356C67.3505 39.1748 66.0684 33.9141 63.2592 29.4446C62.4796 28.2096 62.5744 26.6148 63.4948 25.4806ZM6.7047 50.1377C3.68368 49.5243 1.73209 46.5781 2.3455 43.557C2.79147 41.3606 4.50821 39.6438 6.7047 39.1978V50.1377ZM16.7515 64.7614L10.2322 64.6497L9.04895 52.4819H13.647L16.7515 64.7614ZM8.93732 50.2493V39.0862H11.1699V50.2493H8.93732ZM16.507 50.2493H13.4026V39.0862H16.507C19.7467 39.0873 22.9652 38.5649 26.0381 37.539L31.2635 35.7976V53.538L26.0381 51.7965C22.9652 50.7708 19.7467 50.2482 16.507 50.2493ZM64.6803 44.2558C63.6942 56.527 52.9472 65.6753 40.676 64.6894C33.2201 64.0902 26.5619 59.7915 22.947 53.2433C23.7485 53.4342 24.5456 53.6518 25.3326 53.9131L37.612 58.0054C37.7246 58.0431 37.8427 58.0627 37.9614 58.0635C38.5779 58.0635 39.0777 57.5637 39.0777 56.9472V51.3656C41.5438 51.3656 43.543 49.3665 43.543 46.9004V42.4351C43.543 39.9691 41.5438 37.9699 39.0777 37.9699V32.3883C39.0779 31.7719 38.5782 31.2719 37.9617 31.2718C37.8417 31.2718 37.7225 31.291 37.6086 31.329L25.3292 35.4214C22.4847 36.3702 19.5057 36.8539 16.507 36.8536H10.2378C8.23083 33.4183 7.437 29.4081 7.98399 25.4672C9.33305 15.7019 18.3431 8.87898 28.1084 10.2279C28.8946 10.3365 29.6727 10.4975 30.4375 10.7096C34.3556 11.7144 38.4979 10.3171 41.0067 7.14409C45.6803 1.41421 54.1139 0.557859 59.8439 5.23129C65.5739 9.90473 66.4303 18.3385 61.7567 24.0685C60.2331 25.9443 60.0737 28.5823 61.3604 30.6279C63.9134 34.6913 65.0784 39.4736 64.6803 44.2558ZM33.4962 54.2826V35.053L36.8451 33.9367V55.3989L33.4962 54.2826ZM39.0777 49.133V40.2025C40.3108 40.2025 41.3103 41.202 41.3103 42.4351V46.9004C41.3103 48.1335 40.3107 49.133 39.0777 49.133Z" fill="url(#paint0_linear)"></path><path d="M55.7932 14.9133C55.7297 14.8182 55.6482 14.7366 55.553 14.6731L50.3558 11.2083C49.9578 10.9428 49.4199 11.0501 49.1544 11.4481C49.0595 11.5905 49.0088 11.7578 49.0088 11.9289V18.8587C49.0087 19.1782 49.1844 19.4718 49.4661 19.6227C49.748 19.7735 50.0899 19.7568 50.3558 19.5793L55.553 16.1145C55.9511 15.8491 56.0586 15.3113 55.7932 14.9133ZM50.7412 17.2397V13.5479L53.5131 15.3938L50.7412 17.2397Z" fill="#B51D09"></path><path d="M51.3573 5.59766C45.8087 5.59766 41.3105 10.0957 41.3105 15.6445C41.3167 21.1906 45.8112 25.6851 51.3573 25.6912C56.9061 25.6912 61.4041 21.1931 61.4041 15.6445C61.4041 10.0958 56.906 5.59766 51.3573 5.59766ZM51.3573 23.4586C47.0417 23.4586 43.5432 19.9601 43.5432 15.6445C43.5481 11.3309 47.0438 7.83516 51.3573 7.83028C55.673 7.83028 59.1715 11.3288 59.1715 15.6445C59.1715 19.9601 55.673 23.4586 51.3573 23.4586Z" fill="url(#paint1_linear)"></path><path d="M29.0308 20.1096H27.9145C27.298 20.1096 26.7982 19.6098 26.7982 18.9933V15.6443C26.7982 13.7948 25.2988 12.2954 23.4492 12.2954C21.5997 12.2954 20.1003 13.7948 20.1003 15.6443V18.9933C20.1003 19.6098 19.6005 20.1096 18.984 20.1096C18.984 19.4931 18.4842 18.9933 17.8677 18.9933H13.4024C12.786 18.9933 12.2861 19.4931 12.2861 20.1096V32.389C12.2861 33.0055 12.786 33.5053 13.4024 33.5053H17.8677C18.4842 33.5053 18.984 33.0055 18.984 32.389H29.0308C30.8804 32.389 32.3797 30.8896 32.3797 29.0401V23.4585C32.3797 21.6091 30.8804 20.1096 29.0308 20.1096ZM16.7514 31.2727H14.5188V21.2259H16.7514V31.2727ZM30.1471 29.0401C30.1471 29.6565 29.6473 30.1564 29.0308 30.1564H18.984V22.3422C20.8336 22.3422 22.3329 20.8429 22.3329 18.9933V15.6443C22.3329 15.0279 22.8328 14.528 23.4492 14.528C24.0657 14.528 24.5655 15.0279 24.5655 15.6443V18.9933C24.5655 20.8429 26.0649 22.3422 27.9145 22.3422H29.0308C29.6473 22.3422 30.1471 22.842 30.1471 23.4585V29.0401Z" fill="url(#paint2_linear)"></path><path d="M61.537 40.5401L61.0615 40.0623C59.9304 38.9386 58.1654 38.7642 56.8362 39.6448L55.6295 40.4497L54.4228 39.6448C53.0938 38.7633 51.3282 38.9378 50.1975 40.0623L49.7198 40.5401C48.4124 41.8478 48.4124 43.9677 49.7198 45.2755L54.8392 50.3937C55.2751 50.8295 55.9817 50.8295 56.4176 50.3937L61.537 45.2755C62.8444 43.9677 62.8444 41.8478 61.537 40.5401ZM59.9605 43.6962C59.9602 43.6964 59.96 43.6967 59.9597 43.697L55.6295 48.026L51.3005 43.7015C50.8647 43.2655 50.8647 42.5589 51.3005 42.123L51.7771 41.6463C52.1535 41.2699 52.7432 41.2115 53.1859 41.5068L55.0111 42.7236C55.3862 42.9739 55.8751 42.9739 56.2502 42.7236L58.0765 41.5068C58.5188 41.2118 59.1078 41.2697 59.4841 41.6452V41.6408L59.9597 42.1174C60.3959 42.5532 60.3963 43.26 59.9605 43.6962Z" fill="url(#paint3_linear)"></path><path d="M43.3366 30.8567L42.7047 33.3815C42.5706 33.9172 42.8962 34.4603 43.432 34.5944L43.6566 34.6506C44.1924 34.7847 44.7354 34.459 44.8695 33.9233L45.5014 31.3985C45.6355 30.8628 45.3099 30.3197 44.7741 30.1856L44.5495 30.1294C44.0137 29.9953 43.4707 30.321 43.3366 30.8567Z" fill="url(#paint4_linear)"></path><path d="M48.845 34.0687L46.1688 35.4068C45.6749 35.6538 45.4746 36.2544 45.7216 36.7484L45.8256 36.9565C46.0726 37.4504 46.6733 37.6506 47.1672 37.4037L49.8434 36.0656C50.3374 35.8186 50.5376 35.2179 50.2906 34.724L50.1866 34.5159C49.9396 34.022 49.339 33.8217 48.845 34.0687Z" fill="url(#paint5_linear)"></path><path d="M43.6498 55.801L43.4252 55.8571C42.8894 55.991 42.5636 56.5339 42.6976 57.0697L43.3287 59.5944C43.4626 60.1302 44.0055 60.456 44.5413 60.322L44.7659 60.2659C45.3017 60.132 45.6274 59.5891 45.4935 59.0533L44.8624 56.5286C44.7284 55.9928 44.1855 55.667 43.6498 55.801Z" fill="url(#paint6_linear)"></path><path d="M45.8256 53.4937L45.7216 53.7018C45.4746 54.1958 45.6749 54.7964 46.1688 55.0434L48.845 56.3815C49.3389 56.6285 49.9396 56.4282 50.1866 55.9343L50.2906 55.7262C50.5376 55.2323 50.3374 54.6316 49.8434 54.3846L47.1672 53.0465C46.6733 52.7995 46.0726 52.9998 45.8256 53.4937Z" fill="url(#paint7_linear)"></path><path d="M1.12305 30.1567H3.35567C3.35567 15.0084 12.3386 5.59786 26.7982 5.59786V3.36523C10.9611 3.36523 1.12305 13.6353 1.12305 30.1567Z" fill="url(#paint8_linear)"></path></g><defs><linearGradient id="paint0_linear" x1="33.5" y1="0.00537079" x2="43.698" y2="112.696" gradientUnits="userSpaceOnUse"><stop stop-color="#0D386F"></stop><stop offset="1" stop-color="#072953"></stop></linearGradient><linearGradient id="paint1_linear" x1="51.3573" y1="5.59766" x2="54.4168" y2="39.3997" gradientUnits="userSpaceOnUse"><stop stop-color="#0D386F"></stop><stop offset="1" stop-color="#072953"></stop></linearGradient><linearGradient id="paint2_linear" x1="22.3329" y1="12.2954" x2="25.7386" y2="47.9422" gradientUnits="userSpaceOnUse"><stop stop-color="#0D386F"></stop><stop offset="1" stop-color="#072953"></stop></linearGradient><linearGradient id="paint3_linear" x1="55.6284" y1="39.085" x2="57.128" y2="58.7045" gradientUnits="userSpaceOnUse"><stop stop-color="#0D386F"></stop><stop offset="1" stop-color="#072953"></stop></linearGradient><linearGradient id="paint4_linear" x1="43.0207" y1="32.1191" x2="46.7253" y2="32.8754" gradientUnits="userSpaceOnUse"><stop stop-color="#0D386F"></stop><stop offset="1" stop-color="#072953"></stop></linearGradient><linearGradient id="paint5_linear" x1="47.5069" y1="34.7378" x2="49.3343" y2="38.0505" gradientUnits="userSpaceOnUse"><stop stop-color="#0D386F"></stop><stop offset="1" stop-color="#072953"></stop></linearGradient><linearGradient id="paint6_linear" x1="43.5375" y1="55.829" x2="46.7327" y2="62.8051" gradientUnits="userSpaceOnUse"><stop stop-color="#0D386F"></stop><stop offset="1" stop-color="#072953"></stop></linearGradient><linearGradient id="paint7_linear" x1="45.7736" y1="53.5978" x2="53.7844" y2="55.7628" gradientUnits="userSpaceOnUse"><stop stop-color="#0D386F"></stop><stop offset="1" stop-color="#072953"></stop></linearGradient><linearGradient id="paint8_linear" x1="13.9606" y1="3.36523" x2="18.2142" y2="48.4021" gradientUnits="userSpaceOnUse"><stop stop-color="#0D386F"></stop><stop offset="1" stop-color="#072953"></stop></linearGradient><clipPath id="clip0"><rect width="67" height="67" fill="white"></rect></clipPath></defs></svg> 