<?xml version="1.0" encoding="UTF-8"?> <svg xmlns="http://www.w3.org/2000/svg" width="67" height="67" viewBox="0 0 67 67" fill="none"><path d="M61.7656 2.09375H5.23438C4.40219 2.09624 3.60481 2.42792 3.01636 3.01636C2.42792 3.60481 2.09624 4.40219 2.09375 5.23438V61.7656C2.09624 62.5978 2.42792 63.3952 3.01636 63.9836C3.60481 64.5721 4.40219 64.9038 5.23438 64.9062H61.7656C62.5978 64.9038 63.3952 64.5721 63.9836 63.9836C64.5721 63.3952 64.9038 62.5978 64.9062 61.7656V5.23438C64.9038 4.40219 64.5721 3.60481 63.9836 3.01636C63.3952 2.42792 62.5978 2.09624 61.7656 2.09375ZM62.8125 61.7656C62.8125 62.0433 62.7022 62.3096 62.5059 62.5059C62.3096 62.7022 62.0433 62.8125 61.7656 62.8125H5.23438C4.95673 62.8125 4.69045 62.7022 4.49412 62.5059C4.2978 62.3096 4.1875 62.0433 4.1875 61.7656V12.5625H62.8125V61.7656ZM62.8125 10.4688H4.1875V5.23438C4.1875 4.95673 4.2978 4.69045 4.49412 4.49412C4.69045 4.2978 4.95673 4.1875 5.23438 4.1875H61.7656C62.0433 4.1875 62.3096 4.2978 62.5059 4.49412C62.7022 4.69045 62.8125 4.95673 62.8125 5.23438V10.4688Z" fill="url(#paint0_linear)"></path><path d="M23.0312 47.1094H18.8438C18.5661 47.1094 18.2998 47.2197 18.1035 47.416C17.9072 47.6123 17.7969 47.8786 17.7969 48.1562V59.6719C17.7969 59.9495 17.9072 60.2158 18.1035 60.4121C18.2998 60.6085 18.5661 60.7188 18.8438 60.7188H23.0312C23.3089 60.7188 23.5752 60.6085 23.7715 60.4121C23.9678 60.2158 24.0781 59.9495 24.0781 59.6719V48.1562C24.0781 47.8786 23.9678 47.6123 23.7715 47.416C23.5752 47.2197 23.3089 47.1094 23.0312 47.1094ZM21.9844 58.625H19.8906V49.2031H21.9844V58.625Z" fill="url(#paint1_linear)"></path><path d="M14.6562 50.25H10.4688C10.1911 50.25 9.92482 50.3603 9.7285 50.5566C9.53217 50.7529 9.42188 51.0192 9.42188 51.2969V59.6719C9.42188 59.9495 9.53217 60.2158 9.7285 60.4121C9.92482 60.6085 10.1911 60.7188 10.4688 60.7188H14.6562C14.9339 60.7188 15.2002 60.6085 15.3965 60.4121C15.5928 60.2158 15.7031 59.9495 15.7031 59.6719V51.2969C15.7031 51.0192 15.5928 50.7529 15.3965 50.5566C15.2002 50.3603 14.9339 50.25 14.6562 50.25ZM13.6094 58.625H11.5156V52.3438H13.6094V58.625Z" fill="url(#paint2_linear)"></path><path d="M31.4062 43.9688H27.2188C26.9411 43.9688 26.6748 44.079 26.4785 44.2754C26.2822 44.4717 26.1719 44.738 26.1719 45.0156V59.6719C26.1719 59.9495 26.2822 60.2158 26.4785 60.4121C26.6748 60.6085 26.9411 60.7188 27.2188 60.7188H31.4062C31.6839 60.7188 31.9502 60.6085 32.1465 60.4121C32.3428 60.2158 32.4531 59.9495 32.4531 59.6719V45.0156C32.4531 44.738 32.3428 44.4717 32.1465 44.2754C31.9502 44.079 31.6839 43.9688 31.4062 43.9688ZM30.3594 58.625H28.2656V46.0625H30.3594V58.625Z" fill="url(#paint3_linear)"></path><path d="M6.28125 7.32812C6.28125 6.74995 6.74995 6.28125 7.32812 6.28125C7.9063 6.28125 8.375 6.74995 8.375 7.32812C8.375 7.9063 7.9063 8.375 7.32812 8.375C6.74995 8.375 6.28125 7.9063 6.28125 7.32812Z" fill="url(#paint4_linear)"></path><path d="M10.4688 7.32812C10.4688 6.74995 10.9375 6.28125 11.5156 6.28125C12.0938 6.28125 12.5625 6.74995 12.5625 7.32812C12.5625 7.9063 12.0938 8.375 11.5156 8.375C10.9375 8.375 10.4688 7.9063 10.4688 7.32812Z" fill="url(#paint5_linear)"></path><path d="M14.6562 7.32812C14.6562 6.74995 15.125 6.28125 15.7031 6.28125C16.2813 6.28125 16.75 6.74995 16.75 7.32812C16.75 7.9063 16.2813 8.375 15.7031 8.375C15.125 8.375 14.6562 7.9063 14.6562 7.32812Z" fill="url(#paint6_linear)"></path><path d="M28.5723 18.9628L25.1249 22.4101C24.7161 22.8189 24.7161 23.4816 25.1249 23.8904C25.5337 24.2992 26.1964 24.2992 26.6052 23.8904L28.2655 22.2301V37.4998C28.2655 38.0779 28.7342 38.5467 29.3124 38.5467C29.8906 38.5467 30.3593 38.0779 30.3593 37.4998V22.2301L32.0196 23.8904C32.4284 24.2992 33.0911 24.2992 33.4999 23.8904C33.9087 23.4816 33.9087 22.8189 33.4999 22.4101L30.0525 18.9628C29.8562 18.7665 29.59 18.6562 29.3124 18.6562C29.0348 18.6562 28.7686 18.7665 28.5723 18.9628Z" fill="url(#paint7_linear)"></path><path d="M19.8905 32.6988V41.6873C19.8905 42.2655 20.3592 42.7342 20.9374 42.7342C21.5156 42.7342 21.9843 42.2655 21.9843 41.6873V32.6988L23.6446 34.3592C24.0534 34.7679 24.7161 34.7679 25.1249 34.3592C25.5337 33.9504 25.5337 33.2876 25.1249 32.8789L21.6775 29.4315C21.4812 29.2353 21.215 29.125 20.9374 29.125C20.6598 29.125 20.3936 29.2353 20.1973 29.4315L16.7499 32.8789C16.3411 33.2876 16.3411 33.9504 16.7499 34.3592C17.1587 34.7679 17.8214 34.7679 18.2302 34.3592L19.8905 32.6988Z" fill="url(#paint8_linear)"></path><path d="M11.4218 44.8279C11.4218 45.4061 11.8905 45.8748 12.4687 45.8748C13.0468 45.8748 13.5155 45.4061 13.5155 44.8279V42.1207L15.1759 43.781C15.5846 44.1898 16.2474 44.1898 16.6562 43.781C17.0649 43.3723 17.0649 42.7095 16.6562 42.3007L13.2088 38.8534C13.0125 38.6571 12.7462 38.5469 12.4687 38.5469C12.1911 38.5469 11.9248 38.6571 11.7285 38.8534L8.28116 42.3007C7.87239 42.7095 7.87239 43.3723 8.28116 43.781C8.68992 44.1898 9.35267 44.1898 9.76144 43.781L11.4218 42.1207V44.8279Z" fill="url(#paint9_linear)"></path><path d="M47.5896 36.9303V33.4411C48.7929 33.527 49.2399 34.077 49.6524 34.077C50.1681 34.077 50.4087 33.4239 50.4087 33.0973C50.4087 32.2549 48.7585 31.894 47.5896 31.8596V31.3953C47.5896 31.1891 47.3317 31 47.0739 31C46.7816 31 46.5753 31.1891 46.5753 31.3953V31.8938C44.9423 32.0657 43.3094 32.9252 43.3094 35.0911C43.3094 37.2913 45.0283 37.9102 46.5753 38.4602V42.4997C44.822 42.3621 44.3579 41.1589 43.7907 41.1589C43.3609 41.1589 43 41.7261 43 42.1387C43 42.981 44.4439 44.1327 46.5753 44.1671V44.6999C46.5753 44.9062 46.7817 45.0953 47.0739 45.0953C47.3318 45.0953 47.5896 44.9062 47.5896 44.6999V44.1155C49.4461 43.8576 50.7181 42.6888 50.7181 40.5745C50.7181 38.2368 49.0851 37.4803 47.5896 36.9303ZM46.6785 36.6038C45.7674 36.26 45.0283 35.8991 45.0283 34.9194C45.0283 34.0255 45.7159 33.5957 46.6785 33.4755V36.6038ZM47.4864 42.4652V38.8383C48.3286 39.1993 48.999 39.6806 48.999 40.7634C48.999 41.7434 48.4146 42.2934 47.4864 42.4652Z" fill="#B51D09"></path><path d="M56 38C56 42.9706 51.9706 47 47 47C42.0294 47 38 42.9706 38 38C38 33.0294 42.0294 29 47 29C49.9158 29 52.5077 30.3866 54.1524 32.5363C54.369 32.8194 54.6984 33 55.0548 33C55.8531 33 56.3571 32.1594 55.886 31.515C53.8851 28.7779 50.6502 27 47 27C40.9249 27 36 31.9249 36 38C36 44.0751 40.9249 49 47 49C53.0751 49 58 44.0751 58 38C58 37.9678 57.9999 37.9356 57.9996 37.9034C57.9952 37.3911 57.5627 37 57.0504 37H56.9471C56.4125 37 56 37.4654 56 38Z" fill="url(#paint10_linear)"></path><defs><linearGradient id="paint0_linear" x1="33.5" y1="2.09375" x2="43.0638" y2="107.759" gradientUnits="userSpaceOnUse"><stop stop-color="#0D386F"></stop><stop offset="1" stop-color="#072953"></stop></linearGradient><linearGradient id="paint1_linear" x1="20.9375" y1="47.1094" x2="25.2963" y2="69.3362" gradientUnits="userSpaceOnUse"><stop stop-color="#0D386F"></stop><stop offset="1" stop-color="#072953"></stop></linearGradient><linearGradient id="paint2_linear" x1="12.5625" y1="50.25" x2="15.1813" y2="67.6101" gradientUnits="userSpaceOnUse"><stop stop-color="#0D386F"></stop><stop offset="1" stop-color="#072953"></stop></linearGradient><linearGradient id="paint3_linear" x1="29.3125" y1="43.9687" x2="35.7917" y2="70.8131" gradientUnits="userSpaceOnUse"><stop stop-color="#0D386F"></stop><stop offset="1" stop-color="#072953"></stop></linearGradient><linearGradient id="paint4_linear" x1="7.32813" y1="6.28125" x2="7.64692" y2="9.80342" gradientUnits="userSpaceOnUse"><stop stop-color="#0D386F"></stop><stop offset="1" stop-color="#072953"></stop></linearGradient><linearGradient id="paint5_linear" x1="11.5156" y1="6.28125" x2="11.8344" y2="9.80342" gradientUnits="userSpaceOnUse"><stop stop-color="#0D386F"></stop><stop offset="1" stop-color="#072953"></stop></linearGradient><linearGradient id="paint6_linear" x1="15.7031" y1="6.28125" x2="16.0219" y2="9.80342" gradientUnits="userSpaceOnUse"><stop stop-color="#0D386F"></stop><stop offset="1" stop-color="#072953"></stop></linearGradient><linearGradient id="paint7_linear" x1="29.3124" y1="18.6562" x2="35.2758" y2="51.3012" gradientUnits="userSpaceOnUse"><stop stop-color="#0D386F"></stop><stop offset="1" stop-color="#072953"></stop></linearGradient><linearGradient id="paint8_linear" x1="20.9374" y1="29.125" x2="23.7779" y2="51.8512" gradientUnits="userSpaceOnUse"><stop stop-color="#0D386F"></stop><stop offset="1" stop-color="#072953"></stop></linearGradient><linearGradient id="paint9_linear" x1="12.4687" y1="38.5469" x2="13.3013" y2="50.919" gradientUnits="userSpaceOnUse"><stop stop-color="#0D386F"></stop><stop offset="1" stop-color="#072953"></stop></linearGradient><linearGradient id="paint10_linear" x1="47" y1="27" x2="50.3497" y2="64.009" gradientUnits="userSpaceOnUse"><stop stop-color="#0D386F"></stop><stop offset="1" stop-color="#072953"></stop></linearGradient></defs></svg> 