<?xml version="1.0" encoding="UTF-8"?> <svg xmlns="http://www.w3.org/2000/svg" width="110" height="25" viewBox="0 0 110 25" fill="none"><path d="M109.5 2.06994C109.487 1.24161 108.805 0.580782 107.976 0.593929L94.4779 0.808187C93.6496 0.821336 92.9888 1.50348 93.0019 2.33181C93.015 3.16013 93.6972 3.82096 94.5255 3.80781L106.524 3.61736L106.714 15.6158C106.728 16.4442 107.41 17.105 108.238 17.0919C109.066 17.0787 109.727 16.3966 109.714 15.5682L109.5 2.06994ZM0.0677023 3.26883C30.7256 27.5925 57.9969 27.6663 77.6352 21.5254C87.4146 18.4673 95.2578 13.8839 100.655 10.0686C103.355 8.15961 105.449 6.43886 106.873 5.19023C107.585 4.56576 108.13 4.05894 108.5 3.70513C108.685 3.52821 108.826 3.3895 108.923 3.29343C108.971 3.24539 109.008 3.208 109.034 3.18182C109.047 3.16873 109.057 3.15844 109.064 3.15102C109.068 3.14731 109.071 3.14432 109.073 3.14205C109.074 3.14091 109.075 3.13976 109.076 3.13919C109.077 3.13822 109.077 3.13743 108 2.09374C106.923 1.05005 106.923 1.04962 106.923 1.04938C106.923 1.04955 106.923 1.04949 106.923 1.04981C106.922 1.05046 106.921 1.05182 106.919 1.0539C106.915 1.05807 106.908 1.06508 106.898 1.07488C106.879 1.09447 106.848 1.1252 106.807 1.16651C106.724 1.24915 106.597 1.37412 106.426 1.53704C106.086 1.86292 105.572 2.34047 104.895 2.93476C103.539 4.12362 101.527 5.77787 98.9232 7.61889C93.7109 11.3035 86.1479 15.7202 76.7398 18.6621C58.0031 24.5212 31.7744 24.595 1.9323 0.918666L0.0677023 3.26883Z" fill="url(#paint0_linear)"></path><defs><linearGradient id="paint0_linear" x1="52.9236" y1="-6.95354" x2="63.489" y2="45.3005" gradientUnits="userSpaceOnUse"><stop stop-color="#0D386F"></stop><stop offset="1" stop-color="#072953"></stop></linearGradient></defs></svg> 