<?xml version="1.0" encoding="UTF-8"?> <svg xmlns="http://www.w3.org/2000/svg" width="78" height="90" viewBox="0 0 78 90" fill="none"><rect x="48.2539" y="0.990723" width="29.7458" height="5.88305" rx="2.94153" fill="#E6E8E9"></rect><rect y="84.0071" width="29.7458" height="5.88305" rx="2.94152" fill="#E6E8E9"></rect><rect y="24.5229" width="42.3051" height="5.88305" rx="2.94152" fill="#2B5081"></rect><rect width="23.4168" height="5.91131" rx="2.95566" transform="matrix(0.761104 0.64863 -0.657001 0.75389 26.4521 11.7045)" fill="#2B5081"></rect><rect width="23.4168" height="5.91131" rx="2.95566" transform="matrix(0.761104 -0.64863 -0.657001 -0.75389 26.4521 42.9574)" fill="#2B5081"></rect><rect width="42.3051" height="5.88306" rx="2.94153" transform="matrix(-1 0 0 1 78 61.1285)" fill="#2B5081"></rect><rect width="23.4168" height="5.91131" rx="2.95566" transform="matrix(-0.761104 0.64863 0.657001 0.75389 51.5479 48.3101)" fill="#2B5081"></rect><rect width="23.4168" height="5.91131" rx="2.95566" transform="matrix(-0.761104 -0.64863 0.657001 -0.75389 51.5479 79.563)" fill="#2B5081"></rect><rect width="5.94915" height="5.88305" rx="2.94152" transform="matrix(-1 0 0 1 29.7461 60.4749)" fill="#A02424"></rect><rect width="5.94915" height="5.88305" rx="2.94152" transform="matrix(-1 0 0 1 54.2031 24.5229)" fill="#A02424"></rect></svg> 