<?xml version="1.0" encoding="UTF-8"?> <svg xmlns="http://www.w3.org/2000/svg" width="67" height="67" viewBox="0 0 67 67" fill="none"><path d="M10.4688 45.0156C9.64054 45.0156 8.83093 45.2612 8.1423 45.7213C7.45367 46.1815 6.91695 46.8355 6.60001 47.6006C6.28306 48.3658 6.20014 49.2078 6.36171 50.0201C6.52329 50.8324 6.92211 51.5785 7.50774 52.1641C8.09337 52.7498 8.83952 53.1486 9.65181 53.3102C10.4641 53.4717 11.3061 53.3888 12.0712 53.0719C12.8364 52.7549 13.4904 52.2182 13.9505 51.5296C14.4107 50.841 14.6563 50.0313 14.6563 49.2031C14.6563 48.0925 14.2151 47.0274 13.4298 46.2421C12.6445 45.4568 11.5793 45.0156 10.4688 45.0156ZM10.4688 51.2969C10.0546 51.2969 9.64984 51.1741 9.30553 50.944C8.96121 50.714 8.69285 50.387 8.53438 50.0044C8.37591 49.6218 8.33444 49.2008 8.41523 48.7947C8.49602 48.3885 8.69543 48.0154 8.98825 47.7226C9.28106 47.4298 9.65413 47.2304 10.0603 47.1496C10.4664 47.0688 10.8874 47.1103 11.27 47.2688C11.6526 47.4272 11.9796 47.6956 12.2096 48.0399C12.4397 48.3842 12.5625 48.789 12.5625 49.2031C12.5625 49.7584 12.3419 50.291 11.9493 50.6836C11.5566 51.0763 11.024 51.2969 10.4688 51.2969Z" fill="url(#paint0_linear)"></path><path d="M56.5313 53.3906C57.3595 53.3906 58.1691 53.145 58.8577 52.6849C59.5463 52.2248 60.0831 51.5708 60.4 50.8056C60.7169 50.0405 60.7999 49.1985 60.6383 48.3862C60.4767 47.5739 60.0779 46.8278 59.4923 46.2421C58.9066 45.6565 58.1605 45.2577 57.3482 45.0961C56.5359 44.9345 55.6939 45.0174 54.9288 45.3344C54.1636 45.6513 53.5096 46.188 53.0495 46.8767C52.5893 47.5653 52.3438 48.3749 52.3438 49.2031C52.3438 50.3137 52.7849 51.3788 53.5702 52.1641C54.3556 52.9495 55.4207 53.3906 56.5313 53.3906ZM56.5313 47.1094C56.9454 47.1094 57.3502 47.2322 57.6945 47.4622C58.0388 47.6923 58.3072 48.0193 58.4656 48.4019C58.6241 48.7845 58.6656 49.2055 58.5848 49.6116C58.504 50.0178 58.3046 50.3908 58.0118 50.6836C57.7189 50.9765 57.3459 51.1759 56.9397 51.2567C56.5336 51.3374 56.1126 51.296 55.73 51.1375C55.3474 50.979 55.0204 50.7107 54.7904 50.3664C54.5603 50.022 54.4375 49.6172 54.4375 49.2031C54.4375 48.6478 54.6581 48.1153 55.0507 47.7226C55.4434 47.33 55.976 47.1094 56.5313 47.1094Z" fill="url(#paint1_linear)"></path><path d="M63.8594 33.5012H48.1562C48.1562 28.0637 44.9183 21.0905 40.7088 17.0799C41.1145 16.7554 41.4324 16.3343 41.6333 15.8551C41.8342 15.3759 41.9118 14.854 41.8589 14.3372C41.806 13.8203 41.6243 13.3249 41.3305 12.8964C41.0366 12.4679 40.64 12.1199 40.177 11.8843L42.8727 3.46113C42.9324 3.2742 42.9384 3.07424 42.8899 2.88408C42.8414 2.69391 42.7405 2.5212 42.5986 2.38563C42.4567 2.25007 42.2796 2.15712 42.0874 2.11739C41.8952 2.07765 41.6958 2.09274 41.5117 2.16091L33.3828 5.20837L26.3205 4.19918C26.1491 4.17455 25.9742 4.19286 25.8115 4.25247C25.6488 4.31207 25.5035 4.41111 25.3886 4.54069C25.2736 4.67028 25.1926 4.82637 25.1528 4.99497C25.113 5.16357 25.1157 5.33941 25.1606 5.50673L26.867 11.8602C26.3965 12.0906 25.9918 12.4361 25.6906 12.8647C25.3893 13.2933 25.2013 13.791 25.1438 14.3117C25.0864 14.8325 25.1614 15.3592 25.362 15.8432C25.5626 16.3271 25.8822 16.7525 26.2912 17.0799C22.0817 21.0905 18.8438 28.0637 18.8438 33.5012H3.14062C2.86298 33.5012 2.5967 33.6115 2.40037 33.8078C2.20405 34.0042 2.09375 34.2704 2.09375 34.5481V63.8606C2.09375 64.1382 2.20405 64.4045 2.40037 64.6008C2.5967 64.7972 2.86298 64.9075 3.14062 64.9075H63.8594C64.137 64.9075 64.4033 64.7972 64.5996 64.6008C64.796 64.4045 64.9062 64.1382 64.9062 63.8606V34.5481C64.9062 34.2704 64.796 34.0042 64.5996 33.8078C64.4033 33.6115 64.137 33.5012 63.8594 33.5012ZM62.8125 38.5869C62.093 38.3988 61.4367 38.0225 60.9108 37.4966C60.385 36.9708 60.0087 36.3144 59.8205 35.595H62.8125V38.5869ZM28.2656 15.7043C27.988 15.7043 27.7217 15.594 27.5254 15.3977C27.329 15.2014 27.2188 14.9351 27.2188 14.6575C27.2188 14.3798 27.329 14.1135 27.5254 13.9172C27.7217 13.7209 27.988 13.6106 28.2656 13.6106H38.7344C39.012 13.6106 39.2783 13.7209 39.4746 13.9172C39.671 14.1135 39.7812 14.3798 39.7812 14.6575C39.7812 14.9351 39.671 15.2014 39.4746 15.3977C39.2783 15.594 39.012 15.7043 38.7344 15.7043H28.2656ZM33.3513 7.31887C33.5253 7.34363 33.7027 7.32456 33.8675 7.26338L40.2188 4.88069L38.0958 11.5168H28.943L27.5946 6.49184L33.3513 7.31887ZM20.9375 33.5012C20.9375 28.2668 24.4393 21.1764 28.6415 17.7981H38.3585C42.5607 21.1764 46.0625 28.2668 46.0625 33.5012V37.6887C46.0625 42.1505 42.6382 46.0637 38.7344 46.0637H28.2656C24.3618 46.0637 20.9375 42.1505 20.9375 37.6887V33.5012ZM42.9219 49.2043C42.9256 50.5314 42.6489 51.8443 42.11 53.0571C41.5711 54.2698 40.782 55.355 39.7945 56.2416C38.8071 57.1282 37.6434 57.7962 36.3798 58.2018C35.1163 58.6074 33.7812 58.7415 32.4622 58.5954C31.1432 58.4492 29.87 58.026 28.7258 57.3535C27.5817 56.6811 26.5926 55.7745 25.8232 54.6932C25.0538 53.6119 24.5215 52.3803 24.2612 51.079C24.0009 49.7777 24.0184 48.4361 24.3126 47.142C25.5269 47.8001 26.8845 48.1488 28.2656 48.1575H38.7344C40.1155 48.1488 41.4731 47.8001 42.6874 47.142C42.8407 47.8188 42.9194 48.5104 42.9219 49.2043ZM22.4837 45.8753C21.9597 47.5965 21.8462 49.4165 22.1524 51.1894C22.4586 52.9624 23.176 54.6389 24.247 56.0846C25.318 57.5303 26.7129 58.7049 28.3198 59.5143C29.9266 60.3236 31.7008 60.7452 33.5 60.7452C35.2992 60.7452 37.0734 60.3236 38.6802 59.5143C40.2871 58.7049 41.682 57.5303 42.753 56.0846C43.824 54.6389 44.5414 52.9624 44.8476 51.1894C45.1538 49.4165 45.0403 47.5965 44.5163 45.8753C45.6657 44.8443 46.5841 43.582 47.2115 42.1711C47.8388 40.7603 48.1607 39.2327 48.1562 37.6887V35.595H57.6723C57.8917 36.8784 58.504 38.0621 59.4246 38.9828C60.3453 39.9035 61.5291 40.5158 62.8125 40.7351V57.6736C61.5291 57.8929 60.3453 58.5052 59.4246 59.4258C58.504 60.3465 57.8917 61.5303 57.6723 62.8137H9.32766C9.10831 61.5303 8.49605 60.3465 7.57536 59.4258C6.65467 58.5052 5.47094 57.8929 4.1875 57.6736V40.7351C5.47094 40.5158 6.65467 39.9035 7.57536 38.9828C8.49605 38.0621 9.10831 36.8784 9.32766 35.595H18.8438V37.6887C18.8393 39.2327 19.1612 40.7603 19.7885 42.1711C20.4158 43.582 21.3343 44.8443 22.4837 45.8753ZM7.17947 35.595C6.99135 36.3144 6.61502 36.9708 6.08918 37.4966C5.56335 38.0225 4.90696 38.3988 4.1875 38.5869V35.595H7.17947ZM4.1875 59.8217C4.90696 60.0099 5.56335 60.3862 6.08918 60.912C6.61502 61.4379 6.99135 62.0942 7.17947 62.8137H4.1875V59.8217ZM59.8205 62.8137C60.0087 62.0942 60.385 61.4379 60.9108 60.912C61.4367 60.3862 62.093 60.0099 62.8125 59.8217V62.8137H59.8205Z" fill="url(#paint2_linear)"></path><path d="M37.6235 30.9407C38.1665 30.9407 38.6069 30.5004 38.6069 29.9573V28.9083C38.6069 26.6309 36.7539 24.7779 34.4764 24.7779H34.4109V22.6143C34.4109 22.0712 33.9705 21.6309 33.4275 21.6309C32.8844 21.6309 32.444 22.0712 32.444 22.6143V24.8007C30.0919 25.032 28.248 27.0208 28.248 29.4328C28.248 31.9996 30.3362 34.0878 32.903 34.0878H33.9519C35.4342 34.0878 36.6401 35.2936 36.6401 36.7759C36.6401 38.2581 35.4342 39.464 33.9519 39.464H32.3785C31.1854 39.464 30.2149 38.4934 30.2149 37.3004C30.2149 36.7573 29.7745 36.3169 29.2315 36.3169C28.6884 36.3169 28.248 36.7573 28.248 37.3004C28.248 39.5778 30.101 41.4308 32.3785 41.4308H32.444V43.5944C32.444 44.1375 32.8844 44.5778 33.4275 44.5778C33.9705 44.5778 34.4109 44.1375 34.4109 43.5944V41.408C36.7631 41.1767 38.6069 39.1879 38.6069 36.7759C38.6069 34.2091 36.5187 32.1209 33.9519 32.1209H32.903C31.4207 32.1209 30.2149 30.9151 30.2149 29.4328C30.2149 27.9506 31.4207 26.7447 32.903 26.7447H34.4764C35.6695 26.7447 36.6401 27.7153 36.6401 28.9083V29.9573C36.6401 30.5004 37.0804 30.9407 37.6235 30.9407Z" fill="#B51D09"></path><path d="M64.8338 10.0919C64.7579 9.89513 64.6244 9.7259 64.4506 9.60635C64.2769 9.4868 64.0711 9.4225 63.8602 9.42188H60.7196V3.14062C60.7196 2.86298 60.6093 2.5967 60.413 2.40037C60.2167 2.20405 59.9504 2.09375 59.6727 2.09375H47.1102C46.8326 2.09375 46.5663 2.20405 46.37 2.40037C46.1737 2.5967 46.0634 2.86298 46.0634 3.14062V9.42188H42.9227C42.7119 9.4225 42.5061 9.4868 42.3324 9.60635C42.1586 9.7259 42.0251 9.89513 41.9491 10.0919C41.8708 10.2885 41.8549 10.5046 41.9036 10.7106C41.9523 10.9166 42.0633 11.1026 42.2213 11.2434L52.6901 20.6653C52.8817 20.8405 53.1319 20.9376 53.3915 20.9376C53.6511 20.9376 53.9013 20.8405 54.0929 20.6653L64.5617 11.2434C64.7197 11.1026 64.8307 10.9166 64.8794 10.7106C64.9281 10.5046 64.9122 10.2885 64.8338 10.0919ZM53.3915 18.4773L45.6551 11.5156H47.1102C47.3879 11.5156 47.6542 11.4053 47.8505 11.209C48.0468 11.0127 48.1571 10.7464 48.1571 10.4688V4.1875H58.6259V10.4688C58.6259 10.7464 58.7362 11.0127 58.9325 11.209C59.1288 11.4053 59.3951 11.5156 59.6727 11.5156H61.1279L53.3915 18.4773Z" fill="url(#paint3_linear)"></path><path d="M25.0526 10.0919C24.9767 9.89513 24.8431 9.7259 24.6694 9.60635C24.4957 9.4868 24.2899 9.4225 24.079 9.42188H20.9384V3.14062C20.9384 2.86298 20.8281 2.5967 20.6317 2.40037C20.4354 2.20405 20.1691 2.09375 19.8915 2.09375H7.32899C7.05134 2.09375 6.78507 2.20405 6.58874 2.40037C6.39241 2.5967 6.28212 2.86298 6.28212 3.14062V9.42188H3.14149C2.93061 9.4225 2.72483 9.4868 2.55111 9.60635C2.37738 9.7259 2.24382 9.89513 2.1679 10.0919C2.08958 10.2885 2.07368 10.5046 2.12238 10.7106C2.17107 10.9166 2.282 11.1026 2.44009 11.2434L12.9088 20.6653C13.1004 20.8405 13.3506 20.9376 13.6102 20.9376C13.8698 20.9376 14.12 20.8405 14.3116 20.6653L24.7804 11.2434C24.9385 11.1026 25.0494 10.9166 25.0981 10.7106C25.1468 10.5046 25.1309 10.2885 25.0526 10.0919ZM13.6102 18.4773L5.87384 11.5156H7.32899C7.60664 11.5156 7.87292 11.4053 8.06924 11.209C8.26557 11.0127 8.37587 10.7464 8.37587 10.4688V4.1875H18.8446V10.4688C18.8446 10.7464 18.9549 11.0127 19.1512 11.209C19.3476 11.4053 19.6138 11.5156 19.8915 11.5156H21.3466L13.6102 18.4773Z" fill="url(#paint4_linear)"></path><defs><linearGradient id="paint0_linear" x1="10.4688" y1="45.0156" x2="11.7439" y2="59.1043" gradientUnits="userSpaceOnUse"><stop stop-color="#0D386F"></stop><stop offset="1" stop-color="#072953"></stop></linearGradient><linearGradient id="paint1_linear" x1="56.5313" y1="45.0156" x2="57.8064" y2="59.1043" gradientUnits="userSpaceOnUse"><stop stop-color="#0D386F"></stop><stop offset="1" stop-color="#072953"></stop></linearGradient><linearGradient id="paint2_linear" x1="33.5" y1="2.0957" x2="43.0636" y2="107.759" gradientUnits="userSpaceOnUse"><stop stop-color="#0D386F"></stop><stop offset="1" stop-color="#072953"></stop></linearGradient><linearGradient id="paint3_linear" x1="53.3915" y1="2.09375" x2="55.7453" y2="33.8788" gradientUnits="userSpaceOnUse"><stop stop-color="#0D386F"></stop><stop offset="1" stop-color="#072953"></stop></linearGradient><linearGradient id="paint4_linear" x1="13.6102" y1="2.09375" x2="15.9641" y2="33.8788" gradientUnits="userSpaceOnUse"><stop stop-color="#0D386F"></stop><stop offset="1" stop-color="#072953"></stop></linearGradient></defs></svg> 