<?xml version="1.0" encoding="UTF-8"?> <svg xmlns="http://www.w3.org/2000/svg" width="78" height="89" viewBox="0 0 78 89" fill="none"><rect width="22.9754" height="5.84977" rx="2.92488" transform="matrix(-0.692139 0.721765 -0.714064 -0.700081 30.458 14.4142)" fill="#2B5081"></rect><rect width="22.9754" height="5.84977" rx="2.92488" transform="matrix(0.692139 0.721765 0.714064 -0.70008 45.9004 14.4142)" fill="#2B5081"></rect><rect width="32.9532" height="5.8317" rx="2.91585" transform="matrix(-0.449883 -0.893087 -0.889024 0.45786 30.3984 64.0747)" fill="#2B5081"></rect><rect width="32.9532" height="5.83169" rx="2.91585" transform="matrix(0.449883 -0.893087 0.889024 0.45786 45.9004 64.0747)" fill="#2B5081"></rect><rect x="10.9902" y="35.2983" width="53.6576" height="5.88305" rx="2.94153" fill="#2B5081"></rect><rect x="23.9199" y="60.1378" width="28.445" height="5.88306" rx="2.94153" fill="#2B5081"></rect><rect y="83.0164" width="76.2843" height="5.88305" rx="2.94152" fill="#E6E8E9"></rect><rect width="17.4549" height="5.88305" rx="2.94153" fill="#E6E8E9"></rect><rect x="70.417" width="5.86803" height="5.93333" rx="2.93401" fill="#A02424"></rect><rect x="58.6797" width="5.86803" height="5.93333" rx="2.93402" fill="#2B5081"></rect></svg> 