<?xml version="1.0" encoding="UTF-8"?> <svg xmlns="http://www.w3.org/2000/svg" width="27" height="30" viewBox="0 0 27 30" fill="none"><rect x="10.3818" y="4.85889" width="7.78593" height="1.98305" rx="0.991526" transform="rotate(134.116 10.3818 4.85889)" fill="#2B5081"></rect><rect width="7.78594" height="1.98305" rx="0.991526" transform="matrix(0.69612 0.717926 0.717926 -0.696119 15.6445 4.85889)" fill="#2B5081"></rect><rect width="11.1329" height="1.98305" rx="0.991526" transform="matrix(-0.453863 -0.891071 -0.891071 0.453863 10.3604 21.5981)" fill="#2B5081"></rect><rect x="15.6445" y="21.5981" width="11.1329" height="1.98305" rx="0.991525" transform="rotate(-63.0082 15.6445 21.5981)" fill="#2B5081"></rect><rect x="3.74609" y="11.8984" width="18.2881" height="1.98305" rx="0.991526" fill="#2B5081"></rect><rect x="8.15234" y="20.271" width="9.69492" height="1.98305" rx="0.991526" fill="#2B5081"></rect><rect y="27.9829" width="26" height="1.98305" rx="0.991526" fill="#E6E8E9"></rect><rect width="5.94915" height="1.98305" rx="0.991526" fill="#E6E8E9"></rect><rect x="24" width="2" height="2" rx="0.999999" fill="#A02424"></rect><rect x="20" width="2" height="2" rx="0.999998" fill="#2B5081"></rect></svg> 