<?xml version="1.0" encoding="UTF-8"?> <svg xmlns="http://www.w3.org/2000/svg" width="68" height="53" viewBox="0 0 68 53" fill="none"><path d="M0.653863 18.7807C0.653863 18.7807 0.619682 18.7912 0.653863 18.7807V18.7807Z" fill="#0F231B"></path><path d="M48.0724 52.5849H20.7283C13.7582 52.5849 8.10791 46.9347 8.10791 39.9645V12.6204C8.10791 5.65025 13.7582 0 20.7283 0H48.0724C55.0426 0 60.6928 5.65025 60.6928 12.6204V39.9645C60.6928 46.9347 55.0426 52.5849 48.0724 52.5849Z" fill="#0D386E"></path><path d="M29.2918 42.0595C25.7108 41.4243 25.579 34.4794 28.3056 28.6155C28.3056 28.6155 38.9801 24.2889 43.8875 20.8165C60.5928 9.02986 49.288 3.56628 29.9959 9.27808C29.6742 9.37417 29.4289 9.63574 29.3472 9.96403C28.7222 12.5183 26.022 22.8476 24.0917 27.5879C22.644 27.9268 18.0847 28.8824 17.4597 29.0078C16.6976 29.1626 15.4793 31.9384 16.2414 31.7836C16.7609 31.6769 22.2537 30.321 23.356 30.0781C21.0381 36.9429 20.363 38.9821 18.1796 43.992C17.6443 45.516 19.7301 45.0035 20.3736 44.4484C20.8719 44.0186 25.3337 29.4856 25.339 29.4696C25.3205 29.4749 25.339 29.4696 25.339 29.4696C25.3706 29.4616 25.5078 29.4215 26.0088 29.2774C23.617 35.2935 24.3633 42.0302 28.1184 43.5062C34.0067 45.8176 45.9918 37.7383 50.2584 33.6467C51.6481 32.3148 48.3387 31.4153 47.8166 32.0265C43.8427 36.6627 33.9936 42.895 29.2918 42.0595ZM31.404 11.6055C31.5095 11.1891 44.6786 6.63838 48.7422 10.8902C52.4788 14.8004 38.3841 23.288 26.1459 27.2062C26.0694 27.2356 31.404 11.6055 31.404 11.6055Z" fill="white"></path><path d="M59.9183 17.7188L62.0943 21.1065L65.9885 22.1291L63.4391 25.2453L63.6699 29.265L59.9183 27.8033L56.1668 29.265L56.3976 25.2453L53.8481 22.1291L57.7424 21.1065L59.9183 17.7188Z" fill="#A02424"></path><path fill-rule="evenodd" clip-rule="evenodd" d="M59.9184 15.6036L62.8154 20.114L68.0003 21.4755L64.6059 25.6245L64.9133 30.9763L59.9184 29.0302L54.9235 30.9763L55.2308 25.6245L51.8364 21.4755L57.0213 20.114L59.9184 15.6036ZM57.7424 21.1065L53.8482 22.1291L56.3977 25.2454L56.1668 29.2651L59.9184 27.8033L63.67 29.2651L63.4391 25.2454L65.9886 22.1291L62.0943 21.1065L59.9184 17.7188L57.7424 21.1065Z" fill="white"></path></svg> 