<?xml version="1.0" encoding="UTF-8"?> <svg xmlns="http://www.w3.org/2000/svg" width="594" height="339" viewBox="0 0 594 339" fill="none"><g clip-path="url(#clip0)"><path d="M392.14 200.9C407.03 224.09 439.25 218.5 462.85 176.45C490.64 126.92 440.99 92.15 408.23 134.76C410.25 128.24 411.16 123.42 412.63 119.12C414.31 114.22 396.57 115.05 395.44 122.52C394.52 128.54 393.44 146.45 385.95 174.45C382.07 186.82 352.29 213.7 358.41 188.45C366.72 154.2 382.68 133.26 367.82 125.43C358.14 120.33 339.38 125.04 328.81 140.62C328.7 123.39 309.08 117.69 289.52 144.47C289.63 144.29 292.12 134.89 294.99 127.94C297.58 121.68 278.93 123.37 278.52 130.14C274.82 148.16 268.76 176.01 247.67 198.88C196.75 254.06 234.42 150.83 247.01 130.8C250.26 125.37 233.18 122.68 229.37 130.8C226.45 136.13 224.99 141.77 222.5 150.26C222.5 109.31 158.64 123.71 137.83 171.1C127.13 195.48 126.74 209.35 134.14 221.54C117.86 230.53 98.87 232.77 87.3801 225.58C67.2101 212.9 62.7701 177.89 80.6501 139.94C80.6501 139.94 150.6 111.92 182.76 89.45C292.23 13.14 218.15 -22.24 91.7301 14.75C89.6201 15.37 88.0101 17.07 87.4801 19.2C83.3801 35.74 65.6901 102.61 53.0401 133.3C43.5501 135.5 13.6701 141.69 9.57005 142.49C4.58005 143.49 -3.40995 161.47 1.58005 160.47C4.98005 159.77 40.9801 151 48.1901 149.43C33.0001 193.87 28.5801 207.06 14.2701 239.5C10.7601 249.37 24.4201 246.04 28.6401 242.46C31.9101 239.68 61.1801 145.49 61.1801 145.49C61.1801 145.49 60.2701 145.75 65.5701 144.26C49.8901 183.21 56.6501 222.97 79.3901 236.38C95.3701 246.47 123.65 243.53 144.43 231.94C158.71 239.93 185.98 237.73 205.65 206.07C205.65 206.07 202.86 225.57 212.86 229.19C219.83 231.71 234.72 226.46 257.64 199.21C255.46 205.16 252.35 212.22 250.03 218.82C247.21 226.84 264.15 223.5 267.01 219.15C270.77 213.42 272.71 191.22 286.85 163.95C294.45 149.29 305.09 137.7 314.33 138.37C323.13 139.01 311.26 180.19 301.26 211.78C297.57 221.07 313.77 218.4 315.59 211.78C319.29 198.33 323.63 179.39 328.21 165.31C333.41 149.82 345.08 134.7 355 133.97C371.67 132.74 348.24 170.51 343.65 195.25C340.88 210.2 349.9 228.59 384.2 191.43C384.68 189.5 341.01 334.05 340.41 336.25C339.41 340.24 355.59 337.55 356.39 333.25C358.97 321.36 391.54 200 392.14 200.9ZM100.95 29.81C101.65 27.11 187.94 -2.35001 214.56 25.18C239.05 50.5 146.69 105.44 66.4901 130.81C65.9901 131.01 100.95 29.81 100.95 29.81ZM200.98 196.9C173.51 238.15 124.8 220.18 151.81 171.11C189.54 108.52 241.08 136.68 200.98 196.9ZM407.75 149.09C435.03 107.35 474.93 130.8 451.86 172.45C425.41 220.33 374.99 199.53 407.75 149.09Z" fill="#0D386E"></path><path d="M483.32 119.52C483.32 128.01 469.34 196.42 468.34 200.42C467.34 204.41 477.83 205.41 478.83 201.42C479.83 197.43 496.01 125.42 497.31 121.52C499.3 115.52 483.32 111.53 483.32 119.52Z" fill="#0D386E"></path><path d="M577.32 112.62C577.02 113.92 577.24 115.11 574.14 127.2C564.15 106.23 530.97 96.68 500.79 147.49C472.83 205.42 521.84 222.64 560.49 185.78C556.5 204.76 529.75 305.29 523.26 326.26C522.06 330.15 537.44 328.56 538.24 324.26C557.79 244.32 568.56 192.51 593.15 116.09C594.15 112.09 579.02 105.13 577.32 112.62ZM553.73 175.45C526.56 203.81 492.31 188.03 511.78 150.48C543.43 93.42 600.2 128.52 553.73 175.45Z" fill="#0D386E"></path><path d="M503.46 105.84C513.18 95.32 493.18 79.49 483.76 89.48C474.21 99.64 494.02 115.93 503.46 105.84Z" fill="#0D386E"></path><path d="M348.85 244C265.75 250.99 133.61 264.97 11.3699 275.16C10.3699 275.26 10.0699 276.76 10.9699 277.16L24.2499 283.85C24.4499 283.95 24.5499 283.95 24.7499 283.95C132.71 276.06 251.27 263.47 345.35 256.58C345.85 256.58 346.15 256.18 346.25 255.68L349.85 245.09C350.05 244.6 349.45 243.9 348.85 244Z" fill="#A02424"></path><path d="M397.06 253.26L504.32 244.87C504.62 244.87 504.82 244.67 505.02 244.47L514.81 231.19C515.41 230.49 514.81 229.39 513.91 229.49C472.86 233.29 431.71 238.08 399.65 240.58C399.15 240.58 398.75 240.98 398.75 241.58L395.95 252.07C395.86 252.76 396.36 253.26 397.06 253.26Z" fill="#A02424"></path></g><defs><clipPath id="clip0"><rect width="593.2" height="338.2" fill="white"></rect></clipPath></defs></svg> 