<?xml version="1.0" encoding="UTF-8"?> <svg xmlns="http://www.w3.org/2000/svg" width="67" height="67" viewBox="0 0 67 67" fill="none"><g clip-path="url(#clip0)"><path d="M66.7871 37.9195C66.4493 37.4937 65.831 37.4225 65.4052 37.7598L63.4762 39.2896L47.8853 18.8193L56.7982 13.0988C57.2553 12.8054 57.388 12.1972 57.0946 11.7401C56.8014 11.283 56.1932 11.1503 55.7361 11.4437L45.9264 17.74C45.4506 18.0454 45.332 18.7129 45.6751 19.1633L47.4604 21.5074L46.191 22.4792L41.1509 20.814C41.0524 20.7818 40.9463 20.7644 40.8424 20.7644H29.3043C28.8531 20.7644 28.4597 21.0715 28.3503 21.5093L27.701 24.1063L26.0621 23.4163C25.9056 23.3503 25.7345 23.3262 25.5663 23.3459L21.0074 23.8798L19.4585 22.9805L20.9318 20.4287C21.1995 19.9647 21.0354 19.3531 20.5719 19.0855L1.47518 8.05971C1.00448 7.78804 0.403186 7.94926 0.131915 8.41957C-0.139617 8.88988 0.0214704 9.4913 0.491777 9.76284L15.458 18.4036L2.54142 40.7759L1.47518 40.1603C1.00448 39.8885 0.403186 40.0499 0.131915 40.5202C-0.139617 40.9905 0.0214704 41.5919 0.491777 41.8634L5.68831 44.8638C6.15273 45.1318 6.7641 44.9674 7.03158 44.5039L7.78349 43.2016L9.90485 44.333C9.21287 45.6744 9.28104 47.3489 10.2247 48.653C11.0314 49.7678 12.2952 50.3605 13.5764 50.3605C14.0039 50.3605 14.4332 50.2936 14.8483 50.1588C14.8509 51.0369 15.13 51.8809 15.6608 52.5859C16.4668 53.6564 17.7123 54.2237 18.971 54.2237C19.3916 54.2237 19.8137 54.1602 20.2214 54.0311C20.2324 54.8518 20.4858 55.677 21.0025 56.391C21.6492 57.2848 22.6052 57.8732 23.6944 58.0479C23.9158 58.0835 24.1373 58.1011 24.3573 58.1011C24.7843 58.1011 25.2053 58.0344 25.608 57.9052C25.6197 58.7472 25.8876 59.5639 26.3915 60.2602C27.0382 61.1539 27.9943 61.7425 29.0834 61.9172C29.3048 61.9526 29.5263 61.9703 29.7463 61.9702C30.6085 61.9702 31.4466 61.7005 32.1586 61.1851L34.4528 59.5251C34.9491 59.166 35.3497 58.7123 35.6388 58.1942L39.6748 60.3941C40.2899 60.7294 40.9643 60.8997 41.6458 60.8997C42.0375 60.8997 42.4318 60.8433 42.8179 60.7296C43.8762 60.4179 44.7498 59.713 45.2777 58.7442C45.6892 57.9892 45.8514 57.1443 45.7556 56.3074C46.0025 56.3528 46.251 56.3753 46.4985 56.3753C47.9625 56.3752 49.3833 55.5959 50.1319 54.2224C50.5531 53.4494 50.6998 52.5999 50.6072 51.7853C50.8548 51.831 51.1041 51.8535 51.3523 51.8535C52.8165 51.8533 54.2372 51.0741 54.9857 49.7006C55.397 48.946 55.5591 48.1017 55.4637 47.2653C55.7091 47.3108 55.9577 47.3342 56.2077 47.3342C56.5995 47.3342 56.9936 47.2779 57.3798 47.1641C58.438 46.8524 59.3117 46.1475 59.8397 45.1787C60.3677 44.2101 60.487 43.0939 60.1753 42.0355C60.1005 41.7811 60.0022 41.5379 59.8838 41.307L61.6086 40.0827L62.5198 41.279C62.8485 41.7106 63.4874 41.7912 63.9132 41.4537L66.6277 39.301C67.0531 38.9635 67.1246 38.345 66.7871 37.9195ZM5.82022 42.669L4.24468 41.7593L17.1612 19.387L18.7368 20.2967L5.82022 42.669ZM14.8387 47.9845C13.8726 48.6839 12.5173 48.4667 11.818 47.5002C11.1188 46.5338 11.3362 45.1785 12.3026 44.4792L19.2589 39.4459C19.6453 39.1664 20.0899 39.0311 20.5298 39.0311C21.1774 39.0311 21.8152 39.3241 22.2429 39.8809C22.9759 40.8357 22.7695 42.2458 21.7957 42.951L14.8387 47.9845ZM20.2276 51.8537C19.2794 52.5398 17.9354 52.3376 17.2319 51.403C16.503 50.4351 16.7837 49.0049 17.7485 48.3068L22.9481 44.5447C23.1373 44.4186 23.3123 44.2858 23.5242 44.1959C23.8259 44.0677 24.1562 44.0096 24.4834 44.0278C25.1097 44.0626 25.6961 44.3776 26.0777 44.8744C26.8108 45.829 26.6044 47.2392 25.6305 47.9444L20.2276 51.8537ZM25.6165 55.7227C25.1485 56.0616 24.5765 56.1978 24.0058 56.1061C23.4353 56.0146 22.9345 55.7063 22.5957 55.2381C21.8968 54.2721 22.1136 52.9179 23.0788 52.2183C23.0788 52.2183 26.7837 49.5375 26.7841 49.5373L26.9285 49.4327C27.8837 48.7418 29.1944 48.9328 29.9125 49.8677C30.6457 50.8227 30.439 52.2332 29.4647 52.9381L25.6165 55.7227ZM34.1722 56.4911C34.0873 57.0746 33.7773 57.5861 33.2997 57.9317L31.0054 59.5918C30.0497 60.2835 28.6752 60.0621 27.9846 59.1074C27.2908 58.1486 27.5169 56.7808 28.469 56.0865L30.6177 54.5319L30.7634 54.4264C31.7048 53.7454 33.0402 53.9407 33.7472 54.8614C34.1064 55.3289 34.2573 55.9077 34.1722 56.4911ZM58.1127 44.2373C57.5489 45.2719 56.2141 45.6665 55.1777 45.1015L43.8085 38.9046C43.3314 38.6448 42.7343 38.8206 42.4744 39.2974C42.2146 39.7743 42.3903 40.3715 42.8671 40.6315L52.3945 45.8244C53.442 46.3953 53.8294 47.7119 53.2588 48.7593C52.6878 49.8066 51.3713 50.1946 50.3237 49.6235L40.6569 44.3545C40.1801 44.0946 39.5828 44.2705 39.323 44.7473C39.0631 45.2242 39.2388 45.8214 39.7158 46.0814L47.5421 50.3473C48.5883 50.9187 48.9752 52.2344 48.4048 53.2813C47.8411 54.3157 46.5063 54.7105 45.4698 54.1455L37.2762 49.6794C36.799 49.4196 36.202 49.5954 35.9421 50.0722C35.6822 50.5491 35.858 51.1463 36.3348 51.4063L42.6864 54.8683C43.7211 55.4322 44.1155 56.767 43.5506 57.8034C42.9869 58.8381 41.6521 59.2322 40.6158 58.6674L36.1606 56.2391C36.1763 55.3113 35.8823 54.4127 35.307 53.6636C34.5344 52.6576 33.4026 52.1027 32.2354 52.0461C32.2538 51.9588 32.2707 51.8707 32.2837 51.7816C32.4459 50.6679 32.1579 49.5629 31.4723 48.6702C30.6996 47.6643 29.5678 47.1094 28.4006 47.0528C28.419 46.9655 28.4359 46.8774 28.4489 46.7882C28.6111 45.6743 28.3231 44.5695 27.6375 43.6767C26.8648 42.6707 25.733 42.116 24.5658 42.0593C24.5842 41.972 24.6011 41.884 24.614 41.7949C24.7763 40.681 24.4883 39.576 23.8027 38.6834C22.4318 36.8983 19.9292 36.5337 18.106 37.8531L11.2434 42.8179L8.76729 41.4973L18.4749 24.6834L20.3028 25.7446C20.4866 25.8514 20.7003 25.8954 20.9109 25.8709L25.5375 25.329L27.2181 26.0367L26.2523 29.9004C26.2329 29.9784 26.2229 30.0585 26.2229 30.139V38.5303C26.2229 41.3861 28.5463 43.7093 31.4019 43.7093C34.2577 43.7093 36.5809 41.3859 36.5809 38.5303V30.421L36.7597 30.1351L57.2483 41.3024C58.2828 41.8663 58.6776 43.2007 58.1127 44.2373ZM58.5819 39.819C58.4564 39.7316 58.326 39.6497 58.1898 39.5755L37.8042 28.464L38.5606 27.254C38.8483 26.7933 38.7083 26.1867 38.2477 25.8989C37.7876 25.6113 37.1804 25.751 36.8927 26.2117L34.7638 29.6178C34.6664 29.774 34.6144 29.9546 34.6144 30.139V38.5303C34.6144 40.3015 33.1735 41.7427 31.4021 41.7427C29.6306 41.7427 28.1898 40.3016 28.1898 38.5303V30.26L30.0719 22.7311H40.684L46.0674 24.5096C46.3734 24.6107 46.7178 24.5525 46.9735 24.3567L48.6519 23.072L60.4158 38.5174L58.5819 39.819Z" fill="url(#paint0_linear)"></path><path d="M66.8438 5.48261C66.5505 5.02552 65.9423 4.89283 65.4852 5.18622L59.9758 8.72228C59.5187 9.01567 59.386 9.6239 59.6794 10.081C59.8672 10.3737 60.184 10.5334 60.5077 10.5334C60.6896 10.5334 60.8735 10.483 61.038 10.3775L66.5474 6.84145C67.0043 6.5478 67.137 5.93957 66.8438 5.48261Z" fill="url(#paint1_linear)"></path><circle cx="59" cy="22" r="3" stroke="#B51D09" stroke-width="2"></circle></g><defs><linearGradient id="paint0_linear" x1="33.5" y1="7.92773" x2="40.156" y2="99.0983" gradientUnits="userSpaceOnUse"><stop stop-color="#0D386F"></stop><stop offset="1" stop-color="#072953"></stop></linearGradient><linearGradient id="paint1_linear" x1="63.2615" y1="5.03027" x2="63.8806" y2="14.3223" gradientUnits="userSpaceOnUse"><stop stop-color="#0D386F"></stop><stop offset="1" stop-color="#072953"></stop></linearGradient><clipPath id="clip0"><rect width="67" height="67" fill="white"></rect></clipPath></defs></svg> 