<?xml version="1.0" encoding="UTF-8"?> <svg xmlns="http://www.w3.org/2000/svg" width="67" height="67" viewBox="0 0 67 67" fill="none"><path d="M39.7812 40.8281C39.7812 40.25 40.25 39.7812 40.8281 39.7812C41.4063 39.7812 41.875 40.25 41.875 40.8281C41.875 41.4063 41.4063 41.875 40.8281 41.875C40.25 41.875 39.7812 41.4063 39.7812 40.8281Z" fill="#B51D09"></path><path d="M43.9688 40.8281C43.9688 40.25 44.4375 39.7812 45.0156 39.7812C45.5938 39.7812 46.0625 40.25 46.0625 40.8281C46.0625 41.4063 45.5938 41.875 45.0156 41.875C44.4375 41.875 43.9688 41.4063 43.9688 40.8281Z" fill="#B51D09"></path><path d="M48.1562 40.8281C48.1562 40.25 48.625 39.7812 49.2031 39.7812C49.7813 39.7812 50.25 40.25 50.25 40.8281C50.25 41.4063 49.7813 41.875 49.2031 41.875C48.625 41.875 48.1562 41.4063 48.1562 40.8281Z" fill="#B51D09"></path><path d="M16.75 40.8281C16.75 40.25 17.2187 39.7812 17.7969 39.7812C18.375 39.7812 18.8438 40.25 18.8438 40.8281C18.8438 41.4063 18.375 41.875 17.7969 41.875C17.2187 41.875 16.75 41.4063 16.75 40.8281Z" fill="#B51D09"></path><path d="M20.9375 40.8281C20.9375 40.25 21.4062 39.7812 21.9844 39.7812C22.5625 39.7812 23.0312 40.25 23.0312 40.8281C23.0312 41.4063 22.5625 41.875 21.9844 41.875C21.4062 41.875 20.9375 41.4063 20.9375 40.8281Z" fill="#B51D09"></path><path d="M25.125 40.8281C25.125 40.25 25.5937 39.7812 26.1719 39.7812C26.75 39.7812 27.2188 40.25 27.2188 40.8281C27.2188 41.4063 26.75 41.875 26.1719 41.875C25.5937 41.875 25.125 41.4063 25.125 40.8281Z" fill="#B51D09"></path><path fill-rule="evenodd" clip-rule="evenodd" d="M60.3272 53.1488C61.8337 52.0004 62.8125 50.1924 62.8125 48.1562C62.8125 45.0502 60.5439 42.4707 57.5781 41.9692V40.8281C57.5781 37.9419 55.23 35.5938 52.3438 35.5938H48.341C47.7628 35.5938 47.2941 36.0625 47.2941 36.6406C47.2941 37.2188 47.7628 37.6875 48.341 37.6875H52.3438C54.0753 37.6875 55.4844 39.0966 55.4844 40.8281V41.9692C52.5186 42.4696 50.25 45.0491 50.25 48.1562C50.25 50.1924 51.2288 52.0004 52.7353 53.1488C49.4272 54.6123 47.1094 57.9215 47.1094 61.7656V63.9825C47.1094 65.0709 47.9916 65.9531 49.08 65.9531H63.9825C65.0709 65.9531 65.9531 65.0709 65.9531 63.9825V61.7656C65.9531 57.9215 63.6353 54.6123 60.3272 53.1488ZM52.3438 48.1562C52.3438 45.8468 54.2218 43.9688 56.5312 43.9688C58.8407 43.9688 60.7188 45.8468 60.7188 48.1562C60.7188 50.4657 58.8407 52.3438 56.5312 52.3438C54.2218 52.3438 52.3438 50.4657 52.3438 48.1562ZM49.2031 63.8594V61.7656C49.2031 57.7247 52.4903 54.4375 56.5312 54.4375C60.5722 54.4375 63.8594 57.7247 63.8594 61.7656V63.8594H61.7656V59.6719H59.6719V63.8594H53.3906V59.6719H51.2969V63.8594H49.2031Z" fill="url(#paint0_linear)"></path><path fill-rule="evenodd" clip-rule="evenodd" d="M42.3061 37.6875C42.8842 37.6875 43.3529 37.2188 43.3529 36.6406C43.3529 36.0625 42.8842 35.5938 42.3061 35.5938H34.5469V31.7789C35.1122 32.2092 35.7916 32.4531 36.514 32.4531C38.2769 32.4531 39.708 31.0482 39.7697 29.301C41.4782 29.2403 42.8496 27.8689 42.9104 26.1604C44.6189 26.0996 45.9903 24.7282 46.051 23.0197C47.7982 22.958 49.2031 21.5258 49.2031 19.764C49.2031 18.8909 48.8629 18.0701 48.2463 17.4535L48.0285 17.2358C49.4669 15.4707 50.25 13.2848 50.25 10.9765C50.25 5.50133 45.7955 1.04688 40.3204 1.04688C37.7587 1.04688 35.3519 2.01838 33.5 3.77294C31.6481 2.01838 29.2413 1.04688 26.6796 1.04688C21.2045 1.04688 16.75 5.50133 16.75 10.9765C16.75 13.5487 17.7288 15.9659 19.498 17.821C19.0803 18.3821 18.8438 19.0521 18.8438 19.764C18.8438 21.5269 20.2487 22.958 21.9959 23.0197C22.0566 24.7282 23.428 26.0996 25.1365 26.1604C25.1972 27.8689 26.5686 29.2403 28.2771 29.301C28.3389 31.0482 29.771 32.4531 31.5329 32.4531C31.8512 32.4531 32.1569 32.3935 32.4531 32.3066V35.5938H14.6562C11.77 35.5938 9.42188 37.9419 9.42188 40.8281V41.9692C6.45608 42.4707 4.1875 45.0502 4.1875 48.1562C4.1875 50.1924 5.16633 52.0004 6.67278 53.1488C3.36466 54.6123 1.04688 57.9215 1.04688 61.7656V63.9825C1.04688 65.0709 1.92914 65.9531 3.01746 65.9531H17.92C19.0084 65.9531 19.8906 65.0709 19.8906 63.9825V61.7656C19.8906 57.9215 17.5728 54.6123 14.2647 53.1488C15.7712 52.0004 16.75 50.1924 16.75 48.1562C16.75 45.0502 14.4814 42.4707 11.5156 41.9692V40.8281C11.5156 39.0966 12.9247 37.6875 14.6562 37.6875H32.4531V41.9692C29.4873 42.4696 27.2188 45.0491 27.2188 48.1562C27.2188 50.1924 28.1976 52.0004 29.704 53.1488C26.3959 54.6123 24.0781 57.9215 24.0781 61.7656V63.9825C24.0781 65.0709 24.9604 65.9531 26.0487 65.9531H40.9513C42.0396 65.9531 42.9219 65.0709 42.9219 63.9825V61.7656C42.9219 57.9215 40.6041 54.6123 37.296 53.1488C38.8024 52.0004 39.7812 50.1924 39.7812 48.1562C39.7812 45.0502 37.5127 42.4707 34.5469 41.9692V37.6875H42.3061ZM40.3204 3.14062C44.6408 3.14062 48.1562 6.65603 48.1562 10.9765C48.1562 12.7237 47.5815 14.3788 46.5336 15.7398L41.7201 10.9262C42.032 10.6917 42.3346 10.4426 42.6162 10.162L41.1359 8.68173C39.9822 9.83434 38.4507 10.4688 36.8196 10.4688H35.1603L33.3733 12.2558C33.1755 12.4536 32.9117 12.5625 32.6321 12.5625H28.699C28.4603 12.5625 28.2656 12.3678 28.2656 12.1291C28.2656 12.015 28.3117 11.903 28.3923 11.8224L34.7793 5.43537C36.2596 3.95614 38.2266 3.14062 40.3204 3.14062ZM26.6796 3.14062C28.677 3.14062 30.5551 3.89019 32.0092 5.2438L26.911 10.3421C26.4346 10.8184 26.1719 11.4539 26.1719 12.1291C26.1719 13.5225 27.3056 14.6562 28.699 14.6562H32.6321C33.4707 14.6562 34.26 14.3296 34.8536 13.736L36.0272 12.5625H36.8196C37.8655 12.5625 38.8788 12.3625 39.8231 11.9909L46.766 18.9338C46.9869 19.1557 47.1094 19.4499 47.1094 19.764C47.1094 20.4109 46.5828 20.9375 45.9358 20.9375C45.6218 20.9375 45.3276 20.815 45.1057 20.5941L42.6151 18.1036L41.1349 19.5839L43.6254 22.0744C43.8463 22.2963 43.9688 22.5905 43.9688 22.9046C43.9688 23.5515 43.4422 24.0781 42.7952 24.0781C42.4811 24.0781 42.187 23.9556 41.965 23.7348L39.4745 21.2442L37.9942 22.7245L40.4847 25.215C40.7056 25.437 40.8281 25.7311 40.8281 26.0452C40.8281 26.6922 40.3015 27.2188 39.6546 27.2188C39.3405 27.2188 39.0463 27.0963 38.8244 26.8754L36.3339 24.3849L34.8536 25.8651L37.3441 28.3557C37.565 28.5776 37.6875 28.8718 37.6875 29.1858C37.6875 29.8328 37.1609 30.3594 36.514 30.3594C36.1999 30.3594 35.9057 30.2369 35.6838 30.016L35.3341 29.6663C35.5027 29.2685 35.5938 28.8383 35.5938 28.3923C35.5938 26.6294 34.1888 25.1983 32.4416 25.1365C32.3809 23.428 31.0095 22.0566 29.301 21.9959C29.2403 20.2874 27.8689 18.916 26.1604 18.8553C26.0986 17.108 24.6665 15.7031 22.9046 15.7031C22.2 15.7031 21.5363 15.9334 20.9804 16.3428C19.6048 14.8834 18.8438 12.9907 18.8438 10.9765C18.8438 6.65603 22.3592 3.14062 26.6796 3.14062ZM20.9375 19.764C20.9375 19.4499 21.06 19.1557 21.2809 18.9338L22.0744 18.1402C22.2963 17.9194 22.5905 17.7969 22.9046 17.7969C23.5515 17.7969 24.0781 18.3235 24.0781 18.9704C24.0781 19.2845 23.9556 19.5787 23.7348 19.8006L22.9412 20.5941C22.7193 20.815 22.4251 20.9375 22.111 20.9375C21.4641 20.9375 20.9375 20.4109 20.9375 19.764ZM24.0781 22.9046C24.0781 22.5905 24.2006 22.2963 24.4215 22.0744L25.215 21.2809C25.437 21.06 25.7311 20.9375 26.0452 20.9375C26.6922 20.9375 27.2188 21.4641 27.2188 22.111C27.2188 22.4251 27.0963 22.7193 26.8754 22.9412L26.0818 23.7348C25.8599 23.9556 25.5657 24.0781 25.2517 24.0781C24.6047 24.0781 24.0781 23.5515 24.0781 22.9046ZM27.2188 26.0452C27.2188 25.7311 27.3412 25.437 27.5621 25.215L28.3557 24.4215C28.5776 24.2006 28.8718 24.0781 29.1858 24.0781C29.8328 24.0781 30.3594 24.6047 30.3594 25.2517C30.3594 25.5657 30.2369 25.8599 30.016 26.0818L29.2225 26.8754C29.0005 27.0963 28.7064 27.2188 28.3923 27.2188C27.7453 27.2188 27.2188 26.6922 27.2188 26.0452ZM31.5329 30.3594C30.886 30.3594 30.3594 29.8328 30.3594 29.1858C30.3594 28.8718 30.4819 28.5776 30.7027 28.3557L31.4963 27.5621C31.7182 27.3412 32.0124 27.2188 32.3265 27.2188C32.9734 27.2188 33.5 27.7453 33.5 28.3923C33.5 28.7064 33.3775 29.0005 33.1566 29.2225L32.3631 30.016C32.1412 30.2369 31.847 30.3594 31.5329 30.3594ZM17.7969 61.7656V63.8594H15.7031V59.6719H13.6094V63.8594H7.32812V59.6719H5.23438V63.8594H3.14062V61.7656C3.14062 57.7247 6.42781 54.4375 10.4688 54.4375C14.5097 54.4375 17.7969 57.7247 17.7969 61.7656ZM14.6562 48.1562C14.6562 50.4657 12.7782 52.3438 10.4688 52.3438C8.15934 52.3438 6.28125 50.4657 6.28125 48.1562C6.28125 45.8468 8.15934 43.9688 10.4688 43.9688C12.7782 43.9688 14.6562 45.8468 14.6562 48.1562ZM40.8281 61.7656V63.8594H38.7344V59.6719H36.6406V63.8594H30.3594V59.6719H28.2656V63.8594H26.1719V61.7656C26.1719 57.7247 29.4591 54.4375 33.5 54.4375C37.5409 54.4375 40.8281 57.7247 40.8281 61.7656ZM37.6875 48.1562C37.6875 50.4657 35.8094 52.3438 33.5 52.3438C31.1906 52.3438 29.3125 50.4657 29.3125 48.1562C29.3125 45.8468 31.1906 43.9688 33.5 43.9688C35.8094 43.9688 37.6875 45.8468 37.6875 48.1562Z" fill="url(#paint1_linear)"></path><defs><linearGradient id="paint0_linear" x1="33.5" y1="1.04687" x2="43.3826" y2="110.234" gradientUnits="userSpaceOnUse"><stop stop-color="#0D386F"></stop><stop offset="1" stop-color="#072953"></stop></linearGradient><linearGradient id="paint1_linear" x1="33.5" y1="1.04687" x2="43.3826" y2="110.234" gradientUnits="userSpaceOnUse"><stop stop-color="#0D386F"></stop><stop offset="1" stop-color="#072953"></stop></linearGradient></defs></svg> 