<?xml version="1.0" encoding="UTF-8"?> <svg xmlns="http://www.w3.org/2000/svg" width="16" height="13" viewBox="0 0 16 13" fill="none"><path d="M2.56016 7L5.52316 4.037C5.65735 3.90317 5.73591 3.72351 5.74303 3.53413C5.75015 3.34474 5.68531 3.15968 5.56155 3.01616C5.43778 2.87263 5.26427 2.78128 5.0759 2.76048C4.88753 2.73967 4.69826 2.79095 4.54616 2.904L4.46216 2.977L0.220158 7.219C0.092878 7.34605 0.0154856 7.5146 0.00208588 7.69393C-0.0113138 7.87327 0.0401712 8.05145 0.147158 8.196L0.220158 8.28L4.46216 12.523C4.5956 12.6589 4.77576 12.739 4.96606 12.7469C5.15636 12.7548 5.34256 12.6901 5.48686 12.5658C5.63116 12.4414 5.72275 12.2669 5.74305 12.0775C5.76335 11.8881 5.71083 11.6981 5.59616 11.546L5.52316 11.462L2.56016 8.5H8.25016C10.263 8.49998 12.1968 7.71685 13.6425 6.31634C15.0882 4.91583 15.9323 3.0078 15.9962 0.996L16.0002 0.75C16.0002 0.551088 15.9211 0.360322 15.7805 0.21967C15.6398 0.0790178 15.4491 0 15.2502 0C15.0512 0 14.8605 0.0790178 14.7198 0.21967C14.5792 0.360322 14.5002 0.551088 14.5002 0.75C14.5 2.36765 13.8726 3.92221 12.7499 5.08685C11.6272 6.25148 10.0967 6.93547 8.48016 6.995L8.25016 7H2.56016L5.52316 4.037L2.56016 7Z" fill="white"></path></svg> 