<?xml version="1.0" encoding="UTF-8"?> <svg xmlns="http://www.w3.org/2000/svg" width="65" height="65" viewBox="0 0 65 65" fill="none"><path d="M12.892 28.3125H14.4205C16.308 28.3125 17.8438 26.7767 17.8438 24.8892V22.8018C19.7396 21.4754 20.9844 19.2801 20.9844 16.7969C20.9844 12.7559 17.6972 9.46875 13.6562 9.46875C9.61531 9.46875 6.32812 12.7559 6.32812 16.7969C6.32812 19.2811 7.57286 21.4764 9.46875 22.8018V24.8892C9.46875 26.7767 11.0045 28.3125 12.892 28.3125ZM15.75 24.8892C15.75 25.622 15.1533 26.2188 14.4205 26.2188H12.892C12.1592 26.2188 11.5625 25.622 11.5625 24.8892V23.8162C12.2262 24.0151 12.9287 24.125 13.6562 24.125C14.3838 24.125 15.0863 24.0151 15.75 23.8162V24.8892ZM12.6094 16.7969C12.6094 16.22 13.0794 15.75 13.6562 15.75C14.2331 15.75 14.7031 16.22 14.7031 16.7969C14.7031 17.3737 14.2331 17.8438 13.6562 17.8438C13.0794 17.8438 12.6094 17.3737 12.6094 16.7969ZM8.42188 16.7969C8.42188 13.9106 10.77 11.5625 13.6562 11.5625C16.5425 11.5625 18.8906 13.9106 18.8906 16.7969C18.8906 19.324 17.089 21.4387 14.7031 21.9255V19.7449C15.9185 19.3115 16.7969 18.1599 16.7969 16.7969C16.7969 15.0653 15.3878 13.6562 13.6562 13.6562C11.9247 13.6562 10.5156 15.0653 10.5156 16.7969C10.5156 18.1599 11.394 19.3115 12.6094 19.7449V21.9255C10.2235 21.4387 8.42188 19.324 8.42188 16.7969Z" fill="#22314F"></path><path d="M42.9688 17.113L48.6397 12.3874C49.6928 11.5091 50.2969 10.2194 50.2969 8.849C50.2969 7.61892 49.8174 6.46317 48.9391 5.5838C48.0691 4.71384 46.9123 4.23438 45.6822 4.23438H45.4886C44.582 4.23438 43.7131 4.49609 42.9688 4.98394C42.2265 4.49609 41.3576 4.23438 40.4479 4.23438H40.2542C39.0241 4.23438 37.8684 4.71384 36.989 5.59217C36.1201 6.46212 35.6406 7.61892 35.6406 8.849C35.6406 10.2204 36.2447 11.5102 37.2978 12.3864L42.9688 17.113ZM38.4787 7.06408C38.954 6.58984 39.5842 6.32812 40.2553 6.32812H40.4489C41.12 6.32812 41.7502 6.58984 42.2297 7.06827L42.974 7.80422L43.7141 7.06408C44.1884 6.58984 44.8186 6.32812 45.4896 6.32812H45.6833C46.3543 6.32812 46.9846 6.58984 47.4682 7.07245C47.9414 7.54773 48.2031 8.17795 48.2031 8.849C48.2031 9.59647 47.8744 10.3 47.2997 10.7784L42.9688 14.387L38.6378 10.7773C38.0631 10.3 37.7344 9.59647 37.7344 8.849C37.7344 8.17795 37.9961 7.54773 38.4787 7.06408Z" fill="#B51D09"></path><path fill-rule="evenodd" clip-rule="evenodd" d="M41.9219 23.0781H60.7656C63.075 23.0781 64.9531 24.9562 64.9531 27.2656V33.5469C64.9531 35.8563 63.075 37.7344 60.7656 37.7344H45.0625C44.4843 37.7344 44.0156 37.2657 44.0156 36.6875C44.0156 36.1093 44.4843 35.6406 45.0625 35.6406H60.7656C61.9203 35.6406 62.8594 34.7016 62.8594 33.5469V27.2656C62.8594 26.1109 61.9203 25.1719 60.7656 25.1719H41.9219C40.7672 25.1719 39.8281 26.1109 39.8281 27.2656V41.0038C39.8281 41.0038 41.586 40.0008 42.8348 39.802C44.4554 39.5439 47.1562 39.802 47.1562 39.802C54.4069 40.7682 59.7188 47.5687 59.7188 54.8843V61.9531C59.7188 63.61 58.3756 64.9531 56.7188 64.9531C56.7188 64.9531 36.7794 64.9531 24.0032 64.9531C23.5 64.5 23.5036 63.3094 24.0095 62.8594C25.3437 62.8594 27.4258 62.8594 27.4258 62.8594L29.3384 51.3877L27.4258 44.5C26.5487 44.1538 25.873 43.8765 25.325 43.6516C23.3736 42.8506 23.0407 42.714 21 42.5C19.9421 42.3891 18.2772 42.4317 18.2772 42.4317C12.0619 43.2608 7.375 48.6145 7.375 54.8843V62.8594H15.75V55.7783L14.329 52.9363C14.0187 52.3158 14.2702 51.5611 14.8907 51.2507C15.3045 51.0437 15.8078 51.2114 16.0147 51.6253L17.8438 55.2842V62.8594C17.8438 62.8594 19.7732 62.8594 21.0095 62.8594C21.5 63.5 21.5 64 21.0032 64.9531C16.0349 64.9531 8.28125 64.9531 8.28125 64.9531C6.6244 64.9531 5.28125 63.61 5.28125 61.9531V54.8843C5.28125 47.5687 10.2493 40.9673 17.5 40C17.5 40 20.3793 39.7417 22 40C23.2489 40.199 25.1719 41.0038 25.1719 41.0038V34.5938C25.1719 33.439 24.2328 32.5 23.0781 32.5H4.23438C1.92497 32.5 0.046875 30.6219 0.046875 28.3125V9.46875C0.046875 7.15934 1.92497 5.28125 4.23438 5.28125H23.0781C25.3875 5.28125 27.2656 7.15934 27.2656 9.46875V25.1719C27.2656 25.75 26.7969 26.2188 26.2188 26.2188C25.6406 26.2188 25.1719 25.75 25.1719 25.1719V9.46875C25.1719 8.31405 24.2328 7.375 23.0781 7.375H4.23438C3.07967 7.375 2.14062 8.31405 2.14062 9.46875V28.3125C2.14062 29.4672 3.07967 30.4062 4.23438 30.4062H23.0781C25.3875 30.4062 27.2656 32.2843 27.2656 34.5938V41.8413L31.4531 43.5163V24.125C31.4531 21.2388 33.8013 18.8906 36.6875 18.8906H50.2969C51.4516 18.8906 52.3906 17.9516 52.3906 16.7969V4.23438C52.3906 3.07967 51.4516 2.14062 50.2969 2.14062H35.6406C34.4859 2.14062 33.5469 3.07967 33.5469 4.23438V13.6562C33.5469 14.2344 33.0782 14.7031 32.5 14.7031C31.9218 14.7031 31.4531 14.2344 31.4531 13.6562V4.23438C31.4531 1.92497 33.3312 0.046875 35.6406 0.046875H50.2969C52.6063 0.046875 54.4844 1.92497 54.4844 4.23438V16.7969C54.4844 19.1063 52.6063 20.9844 50.2969 20.9844H36.6875C34.956 20.9844 33.5469 22.3935 33.5469 24.125V43.5163L37.7344 41.8413V27.2656C37.7344 24.9562 39.6125 23.0781 41.9219 23.0781ZM35.4522 62.8594L33.707 52.3906H31.293L29.5478 62.8594H35.4522ZM30 45L31.2239 50.2969H33.7761L35 45C35 45 34.207 46 32.5 46C30.793 46 30 45 30 45ZM57.625 62.8594V54.8843C57.625 48.6145 52.9381 43.2608 46.7228 42.4317C46.7228 42.4317 45.0821 42.0543 44.0156 42.0705C43.278 42.0818 42.4151 42.2874 41.6242 42.5403C40.3037 42.9625 39.1841 43.5163 39.1841 43.5163L37.3849 44.2359C37.3346 44.4649 37.2975 44.6536 37.2572 44.8586C37.0998 45.6595 36.8932 46.7103 35.6616 51.3867L37.5742 62.8594H47.1562V55.2842L48.8926 51.8114C49.1513 51.2942 49.7803 51.0845 50.2976 51.3433C50.8147 51.602 51.0242 52.2309 50.7655 52.748L49.25 55.7783V62.8594H57.625Z" fill="url(#paint0_linear)"></path><path d="M51.1094 27.2656V29.3594H49.0156V31.4531H51.1094V33.5469H53.2031V31.4531H55.2969V29.3594H53.2031V27.2656H51.1094Z" fill="#22314F"></path><defs><linearGradient id="paint0_linear" x1="32.5" y1="0.0468747" x2="42.3826" y2="109.234" gradientUnits="userSpaceOnUse"><stop stop-color="#0D386F"></stop><stop offset="1" stop-color="#072953"></stop></linearGradient></defs></svg> 