<?xml version="1.0" encoding="UTF-8"?> <svg xmlns="http://www.w3.org/2000/svg" width="67" height="63" viewBox="0 0 67 63" fill="none"><path d="M66.0186 56.7432H61.755V21.0102C61.755 18.7338 59.9031 16.8818 57.6267 16.8818H45.0393C44.4973 16.8818 44.0579 17.3213 44.0579 17.8633C44.0579 18.4053 44.4973 18.8447 45.0393 18.8447H57.6267C58.8208 18.8447 59.7921 19.8162 59.7921 21.0102V56.7433H56.4328C56.4835 56.3727 56.5101 55.9998 56.5101 55.6268C56.5101 51.0368 52.7757 47.3025 48.1857 47.3025C47.5686 47.3025 46.9523 47.373 46.3449 47.5126C45.286 45.4723 43.1767 44.1554 40.8429 44.1554C40.0816 44.1554 39.3421 44.2943 38.6459 44.564C38.36 41.9777 36.1613 39.9594 33.5 39.9594C30.8387 39.9594 28.64 41.9777 28.3541 44.564C27.6579 44.2943 26.9184 44.1554 26.1571 44.1554C23.8233 44.1554 21.7139 45.4723 20.6551 47.5126C20.0475 47.3729 19.4314 47.3025 18.8143 47.3025C14.2242 47.3025 10.4899 51.0368 10.4899 55.6268C10.4899 55.9999 10.5165 56.3727 10.5672 56.7433H7.20787V21.0102C7.20787 19.8161 8.17923 18.8447 9.37333 18.8447H21.9611C22.5031 18.8447 22.9425 18.4053 22.9425 17.8633C22.9425 17.3213 22.5031 16.8818 21.9611 16.8818H9.37333C7.0969 16.8818 5.24497 18.7339 5.24497 21.0102V56.7433H0.981445C0.439426 56.7433 0 57.1827 0 57.7247V59.8227C0 61.5207 1.38148 62.9021 3.07938 62.9021H63.9206C65.6186 62.9021 67 61.5206 67 59.8227V57.7247C67 57.1826 66.5606 56.7432 66.0186 56.7432ZM65.0371 59.8227C65.0371 60.4384 64.5362 60.9392 63.9206 60.9392H3.07938C2.46369 60.9392 1.96289 60.4383 1.96289 59.8227V58.7062H14.6179C15.1599 58.7062 15.5994 58.2668 15.5994 57.7247C15.5994 57.1827 15.1599 56.7433 14.6179 56.7433H12.5532C12.4866 56.3734 12.4527 55.9999 12.4527 55.6268C12.4527 52.1191 15.3065 49.2653 18.8142 49.2653C19.5128 49.2653 20.2124 49.3849 20.8935 49.6208C21.1402 49.7062 21.4106 49.6898 21.6452 49.5755C21.8797 49.461 22.059 49.2579 22.1435 49.011C22.7351 47.2809 24.3481 46.1184 26.1572 46.1184C27.1493 46.1184 28.0915 46.4695 28.8821 47.1339C29.2159 47.4143 29.6946 47.441 30.0575 47.1993C30.4204 46.9576 30.5803 46.5056 30.4502 46.0896C30.3379 45.7303 30.2856 45.4276 30.2856 45.137C30.2856 43.3645 31.7276 41.9226 33.5 41.9226C35.2724 41.9226 36.7144 43.3646 36.7144 45.137C36.7144 45.4276 36.6621 45.7303 36.5498 46.0896C36.4197 46.5058 36.5798 46.9578 36.9425 47.1993C37.3054 47.4409 37.7841 47.4143 38.1179 47.1339C38.9086 46.4697 39.8509 46.1184 40.8428 46.1184C42.6519 46.1184 44.2649 47.2809 44.8565 49.011C44.941 49.2579 45.1203 49.461 45.3548 49.5755C45.5894 49.69 45.8599 49.7063 46.1065 49.6208C46.7876 49.3849 47.487 49.2653 48.1858 49.2653C51.6936 49.2653 54.5473 52.1191 54.5473 55.6268C54.5473 55.9999 54.5133 56.3734 54.4468 56.7433H18.8146C18.2725 56.7433 17.8331 57.1827 17.8331 57.7247C17.8331 58.2668 18.2725 58.7062 18.8146 58.7062H65.0371V59.8227Z" fill="url(#paint0_linear)"></path><path d="M20.8875 28.9476C20.2705 29.688 19.9307 30.6267 19.9307 31.5906V34.6472C19.9307 34.9961 20.116 35.3187 20.4172 35.4948C20.57 35.584 20.7411 35.6286 20.9121 35.6286C21.0784 35.6286 21.2448 35.5865 21.3945 35.5019L28.3837 31.5582C28.65 32.0445 28.9323 32.5229 29.2306 32.9926L28.352 36.5071C28.2786 36.8003 28.3445 37.1109 28.5305 37.3492C28.7164 37.5875 29.0018 37.7267 29.3041 37.7267H37.696C37.9983 37.7267 38.2836 37.5875 38.4696 37.3492C38.6556 37.111 38.7215 36.8003 38.6481 36.5071L37.7695 32.9926C38.0678 32.5229 38.3502 32.0446 38.6165 31.5582L45.6057 35.5019C45.7555 35.5865 45.9217 35.6286 46.088 35.6286C46.259 35.6286 46.4301 35.5839 46.5829 35.4948C46.8842 35.3189 47.0695 34.9962 47.0695 34.6472V31.5906C47.0695 30.6267 46.7296 29.688 46.1126 28.9476L41.4535 23.3585C41.6989 21.9006 41.8245 20.4141 41.8245 18.9124C41.8245 15.3333 41.1316 11.8736 39.765 8.62972C38.447 5.50113 36.5709 2.7256 34.1887 0.380212C33.8067 0.00412205 33.1937 0.00412205 32.8117 0.380212C30.4295 2.72547 28.5534 5.501 27.2354 8.62972C25.8688 11.8737 25.1759 15.3333 25.1759 18.9124C25.1759 20.4118 25.3011 21.896 25.5457 23.3517L20.8875 28.9476ZM21.8936 32.9664V31.5906C21.8936 31.0849 22.0718 30.5926 22.3954 30.2042L26.0741 25.7898C26.4417 27.1649 26.9195 28.5059 27.5052 29.8001L21.8936 32.9664ZM30.561 35.7637L31.1193 33.5307H35.8806L36.4388 35.7637H30.561ZM44.6043 30.2042C44.9279 30.5926 45.1062 31.0849 45.1062 31.5906V32.9664L39.4945 29.8C40.0801 28.5058 40.558 27.1649 40.9256 25.7897L44.6043 30.2042ZM33.4999 2.48731C35.148 4.25901 36.5074 6.29048 37.5405 8.49009H29.4592C30.4923 6.29048 31.8517 4.25901 33.4999 2.48731ZM28.6413 10.4529H38.3583C39.3396 13.1283 39.8612 15.9966 39.8612 18.9123C39.8612 23.4253 38.6471 27.7888 36.3447 31.5677H30.6549C28.3525 27.7888 27.1384 23.4253 27.1384 18.9123C27.1384 15.9966 27.6601 13.1284 28.6413 10.4529Z" fill="url(#paint1_linear)"></path><path d="M37.6278 17.8632C37.6278 15.5868 35.7759 13.7349 33.4994 13.7349C31.223 13.7349 29.3711 15.5869 29.3711 17.8632C29.3711 20.1395 31.223 21.9916 33.4994 21.9916C35.7759 21.9916 37.6278 20.1396 37.6278 17.8632ZM31.334 17.8632C31.334 16.6691 32.3054 15.6978 33.4994 15.6978C34.6935 15.6978 35.6649 16.6693 35.6649 17.8632C35.6649 19.0572 34.6935 20.0287 33.4994 20.0287C32.3054 20.0287 31.334 19.0573 31.334 17.8632Z" fill="#B51D09"></path><defs><linearGradient id="paint0_linear" x1="33.5" y1="16.8818" x2="38.3337" y2="94.6321" gradientUnits="userSpaceOnUse"><stop stop-color="#0D386F"></stop><stop offset="1" stop-color="#072953"></stop></linearGradient><linearGradient id="paint1_linear" x1="33.5001" y1="0.0981444" x2="41.3848" y2="62.927" gradientUnits="userSpaceOnUse"><stop stop-color="#0D386F"></stop><stop offset="1" stop-color="#072953"></stop></linearGradient></defs></svg> 