<?xml version="1.0" encoding="UTF-8"?> <svg xmlns="http://www.w3.org/2000/svg" width="67" height="67" viewBox="0 0 67 67" fill="none"><path d="M4.1875 20.937C4.1875 21.5152 3.7188 21.9839 3.14062 21.9839C2.56245 21.9839 2.09375 21.5152 2.09375 20.937V17.7964C2.09531 16.4087 2.64729 15.0782 3.62858 14.0969C4.60988 13.1156 5.94036 12.5636 7.32812 12.562H42.9219V10.4683H40.8281C40.6211 10.4683 40.4187 10.4069 40.2465 10.2919C40.0743 10.1769 39.9401 10.0133 39.8609 9.82205C39.7817 9.63076 39.7609 9.42026 39.8013 9.21718C39.8417 9.0141 39.9414 8.82756 40.0879 8.68115L46.3691 2.3999C46.4663 2.30269 46.5817 2.22557 46.7087 2.17296C46.8358 2.12034 46.9719 2.09326 47.1094 2.09326C47.2469 2.09326 47.383 2.12034 47.51 2.17296C47.637 2.22557 47.7524 2.30269 47.8496 2.3999L54.1309 8.68115C54.2773 8.82756 54.377 9.0141 54.4174 9.21718C54.4578 9.42026 54.4371 9.63076 54.3578 9.82205C54.2786 10.0133 54.1444 10.1769 53.9723 10.2919C53.8001 10.4069 53.5977 10.4683 53.3906 10.4683H51.2969V12.562H55.4844C56.8721 12.5636 58.2026 13.1156 59.1839 14.0969C60.1652 15.0782 60.7172 16.4087 60.7188 17.7964V37.687C60.7188 38.2652 60.25 38.7339 59.6719 38.7339C59.0937 38.7339 58.625 38.2652 58.625 37.687V17.7964C58.624 16.9638 58.2928 16.1655 57.7041 15.5767C57.1153 14.988 56.317 14.6568 55.4844 14.6558H51.2969V32.4527C51.2969 33.0308 50.8282 33.4995 50.25 33.4995C49.6718 33.4995 49.2031 33.0308 49.2031 32.4527V9.42142C49.2031 9.14378 49.3134 8.8775 49.5097 8.68117C49.7061 8.48485 49.9724 8.37455 50.25 8.37455H50.8633L47.1094 4.62059L43.3554 8.37455H43.9688C44.2464 8.37455 44.5127 8.48485 44.709 8.68117C44.9053 8.8775 45.0156 9.14378 45.0156 9.42142V33.4995C45.0156 34.0777 44.5469 34.5464 43.9688 34.5464C43.3906 34.5464 42.9219 34.0777 42.9219 33.4995V15.6558C42.9219 15.1035 42.4742 14.6558 41.9219 14.6558H7.32812C6.49548 14.6568 5.69721 14.988 5.10844 15.5767C4.51967 16.1655 4.18847 16.9638 4.1875 17.7964V20.937ZM7.32812 54.437H24.7647L22.2522 62.812H20.8906C20.3383 62.812 19.8906 63.2598 19.8906 63.812V63.9058C19.8906 64.4581 20.3383 64.9058 20.8906 64.9058H41.9219C42.4742 64.9058 42.9219 64.4581 42.9219 63.9058V63.812C42.9219 63.2598 42.4742 62.812 41.9219 62.812H40.5603L39.5011 59.2815C39.3424 58.7525 38.7848 58.4523 38.2558 58.6111L38.1659 58.6381C37.6369 58.7968 37.3368 59.3543 37.4955 59.8832L38.3742 62.812H24.4377L26.9502 54.437H33.5469C34.0992 54.437 34.5469 53.9893 34.5469 53.437V53.3433C34.5469 52.791 34.0992 52.3433 33.5469 52.3433H7.32812C6.49548 52.3423 5.69721 52.0111 5.10844 51.4224C4.51967 50.8336 4.18847 50.0353 4.1875 49.2027V48.1558H32.5C33.0523 48.1558 33.5 47.7081 33.5 47.1558V47.062C33.5 46.5098 33.0523 46.062 32.5 46.062H4.1875V25.1245C4.1875 24.5464 3.7188 24.0777 3.14062 24.0777C2.56245 24.0777 2.09375 24.5464 2.09375 25.1245V49.2027C2.09531 50.5904 2.64729 51.9209 3.62858 52.9022C4.60988 53.8835 5.94036 54.4355 7.32812 54.437ZM39.7812 36.6402C39.2031 36.6402 38.7344 36.1715 38.7344 35.5933V19.8902H34.5469V41.9683C34.5469 43.0729 33.6514 43.9683 32.5469 43.9683H8.375C7.79683 43.9683 7.32812 43.4996 7.32812 42.9214C7.32812 42.3433 7.79683 41.8745 8.375 41.8745H11.5156V33.4995C11.5156 33.2219 11.6259 32.9556 11.8222 32.7593C12.0186 32.563 12.2849 32.4527 12.5625 32.4527H18.8438C19.1214 32.4527 19.3877 32.563 19.584 32.7593C19.7803 32.9556 19.8906 33.2219 19.8906 33.4995V41.8745H21.9844V26.1714C21.9844 25.8938 22.0947 25.6275 22.291 25.4312C22.4873 25.2348 22.7536 25.1245 23.0312 25.1245H29.3125C29.5901 25.1245 29.8564 25.2348 30.0528 25.4312C30.2491 25.6275 30.3594 25.8938 30.3594 26.1714V41.8745H32.4531V18.8433C32.4531 18.5657 32.5634 18.2994 32.7597 18.103C32.9561 17.9067 33.2224 17.7964 33.5 17.7964H39.7812C40.0589 17.7964 40.3252 17.9067 40.5215 18.103C40.7178 18.2994 40.8281 18.5657 40.8281 18.8433V35.5933C40.8281 36.1715 40.3594 36.6402 39.7812 36.6402ZM17.7969 34.5464H13.6094V41.8745H17.7969V34.5464ZM28.2656 27.2183H24.0781V41.8745H28.2656V27.2183ZM63.9859 59.5449C64.5729 60.135 64.9036 60.9328 64.9062 61.7652C64.9066 62.1777 64.8257 62.5863 64.668 62.9675C64.5103 63.3487 64.2789 63.6951 63.9872 63.9868C63.6955 64.2785 63.3492 64.5098 62.9679 64.6675C62.5867 64.8252 62.1782 64.9062 61.7656 64.9058C60.9342 64.8985 60.1381 64.5686 59.5453 63.9855L54.5343 58.9746C51.8985 60.5295 48.7861 61.0696 45.7805 60.4936C42.7749 59.9177 40.0826 58.2653 38.2083 55.8462C36.334 53.4271 35.4064 50.4074 35.5994 47.3532C35.7924 44.2991 37.0928 41.4202 39.2567 39.2562C41.4206 37.0923 44.2995 35.792 47.3537 35.599C50.4078 35.406 53.4275 36.3336 55.8466 38.2079C58.2658 40.0822 59.9182 42.7745 60.4941 45.7801C61.07 48.7856 60.5299 51.8981 58.975 54.5339L63.9859 59.5449ZM58.625 48.1558C58.625 46.0853 58.011 44.0613 56.8607 42.3397C55.7104 40.6181 54.0754 39.2763 52.1625 38.4839C50.2496 37.6916 48.1446 37.4843 46.1139 37.8882C44.0832 38.2921 42.2178 39.2892 40.7537 40.7533C39.2896 42.2174 38.2926 44.0827 37.8887 46.1134C37.4847 48.1442 37.692 50.2491 38.4844 52.162C39.2767 54.0749 40.6185 55.7099 42.3401 56.8602C44.0617 58.0106 46.0857 58.6245 48.1562 58.6245C50.9318 58.6214 53.5927 57.5174 55.5553 55.5548C57.5179 53.5923 58.6218 50.9313 58.625 48.1558ZM62.5052 61.0256L57.7437 56.2637C57.2921 56.7968 56.7973 57.2917 56.2642 57.7432L61.026 62.5048C61.1222 62.6061 61.2376 62.6871 61.3656 62.743C61.4935 62.7989 61.6314 62.8287 61.771 62.8305C61.9106 62.8323 62.0492 62.8062 62.1786 62.7536C62.3079 62.701 62.4254 62.623 62.5242 62.5242C62.6229 62.4255 62.7009 62.308 62.7535 62.1786C62.8061 62.0493 62.8322 61.9107 62.8304 61.7711C62.8286 61.6314 62.7989 61.4936 62.7429 61.3656C62.687 61.2377 62.6065 61.1217 62.5052 61.0256ZM56.5312 48.1558C56.5312 49.8122 56.0401 51.4314 55.1198 52.8087C54.1996 54.186 52.8916 55.2594 51.3612 55.8933C49.8309 56.5272 48.147 56.693 46.5224 56.3699C44.8978 56.0467 43.4055 55.2491 42.2342 54.0778C41.063 52.9066 40.2653 51.4143 39.9422 49.7897C39.619 48.1651 39.7849 46.4812 40.4188 44.9508C41.0526 43.4205 42.1261 42.1125 43.5033 41.1922C44.8806 40.272 46.4998 39.7808 48.1562 39.7808C50.3767 39.7833 52.5054 40.6665 54.0755 42.2365C55.6456 43.8066 56.5288 45.9354 56.5312 48.1558ZM54.4375 48.1558C54.4375 46.9135 54.0691 45.6991 53.3789 44.6661C52.6887 43.6332 51.7077 42.8281 50.56 42.3527C49.4122 41.8773 48.1493 41.7529 46.9308 41.9952C45.7124 42.2376 44.5932 42.8358 43.7147 43.7143C42.8363 44.5927 42.2381 45.7119 41.9957 46.9304C41.7533 48.1488 41.8777 49.4118 42.3531 50.5595C42.8285 51.7073 43.6336 52.6883 44.6666 53.3785C45.6995 54.0687 46.9139 54.437 48.1562 54.437C49.8216 54.4352 51.4182 53.7729 52.5957 52.5953C53.7733 51.4177 54.4357 49.8211 54.4375 48.1558Z" fill="url(#paint0_linear)"></path><path d="M8 18.0469C8 17.4687 8.4687 17 9.04688 17C9.62505 17 10.0938 17.4687 10.0938 18.0469C10.0938 18.625 9.62505 19.0938 9.04688 19.0938C8.4687 19.0938 8 18.625 8 18.0469Z" fill="#B51D09"></path><path d="M12.1875 18.0469C12.1875 17.4687 12.6562 17 13.2344 17C13.8125 17 14.2812 17.4687 14.2812 18.0469C14.2812 18.625 13.8125 19.0938 13.2344 19.0938C12.6562 19.0938 12.1875 18.625 12.1875 18.0469Z" fill="#B51D09"></path><path d="M16.375 18.0469C16.375 17.4687 16.8437 17 17.4219 17C18 17 18.4688 17.4687 18.4688 18.0469C18.4688 18.625 18 19.0938 17.4219 19.0938C16.8437 19.0938 16.375 18.625 16.375 18.0469Z" fill="#B51D09"></path><defs><linearGradient id="paint0_linear" x1="33.5" y1="2.09326" x2="43.0638" y2="107.758" gradientUnits="userSpaceOnUse"><stop stop-color="#0D386F"></stop><stop offset="1" stop-color="#072953"></stop></linearGradient></defs></svg> 