<?xml version="1.0" encoding="UTF-8"?> <svg xmlns="http://www.w3.org/2000/svg" width="57" height="62" viewBox="0 0 57 62" fill="none"><path d="M54.7266 32.4089C51.8793 29.5743 48.5877 32.2273 48.5877 32.2273V17.3055C48.5877 16.8044 48.1816 16.3978 47.6805 16.3978C47.1789 16.3978 46.7729 16.8044 46.7729 17.3055V33.5042C46.7729 33.5042 42.445 36.9159 40.5848 37.7498V10.8824C40.5848 9.63347 41.6007 8.61756 42.8496 8.61756H44.508C45.757 8.61756 46.7729 9.63347 46.7729 10.8824V18.2691C46.7729 18.7707 47.1789 18.8638 47.6805 18.8638C48.1816 18.8638 48.5877 19.5017 48.5877 19.0001V10.8824C48.5877 8.63269 46.7577 6.80273 44.508 6.80273H42.8496C40.5999 6.80273 38.7695 8.63269 38.7695 10.8824V38.4693C38.2282 38.6211 37.6727 38.7241 37.1083 38.7785V19.6436C37.1083 17.3825 35.2689 15.5431 33.0083 15.5431H31.3901C29.1295 15.5431 27.2901 17.3825 27.2901 19.6436V28.8912L25.6284 29.7734V26.6959C25.6284 24.6603 23.9724 23.0043 21.9373 23.0043H19.5018C17.4662 23.0043 15.8107 24.6603 15.8107 26.6959V34.9848L12.8471 36.5576L4.52507 38.9359C3.07708 39.3495 1.86783 40.2979 1.12091 41.6054C0.373518 42.9135 0.170715 44.4366 0.549847 45.8941L1.48066 49.4755C1.60641 49.9605 2.10183 50.2513 2.58733 50.1255C3.07236 49.9993 3.36356 49.5039 3.23734 49.0184L2.30653 45.4374C1.76667 43.3602 2.96032 41.2707 5.02428 40.6812L12.6329 38.5067L18.3516 53.7694C18.7345 54.7914 18.674 57.7072 15.649 58.7818L9.89911 60.0879C7.89519 60.5427 5.92058 59.3415 5.40341 57.3522L4.23623 52.8608C4.11001 52.3757 3.61458 52.0845 3.12956 52.2103C2.64406 52.3365 2.35333 52.8319 2.47908 53.3174L3.64673 57.8093C4.30288 60.3328 6.54459 62.0001 9.04016 62.0001C10.8739 62.0001 16.0513 60.5517 16.0513 60.5517C17.6269 60.1943 18.9704 59.1732 19.7367 57.7512C20.3692 56.5779 20.5569 55.2277 20.2856 53.9414L40.1782 49.0713C41.8233 48.6681 43.3852 47.8867 44.6938 46.8112L54.3744 38.857C57.3257 36.2394 55.5946 33.2725 54.7266 32.4089ZM31.3901 17.3584H33.0083C34.2681 17.3584 35.293 18.3838 35.293 19.6436V38.8239L29.5658 38.8215C29.0396 38.8168 29.4037 38.4693 29.4325 38.4457L31.0819 37.1097C32.6206 35.8631 33.6256 34.1301 34.0686 31.9579C34.3499 30.5799 33.8242 29.2004 32.6977 28.358C31.6454 27.5714 30.2919 27.4201 29.1054 27.9401V19.6436C29.1054 18.3838 30.1303 17.3584 31.3901 17.3584ZM17.626 26.6959C17.626 25.6615 18.4674 24.8196 19.5018 24.8196H21.9373C22.9716 24.8196 23.8136 25.6615 23.8136 26.6959V30.7368L17.6255 34.0214L17.626 26.6959ZM53.2224 37.4548L43.5412 45.4091C42.4417 46.3129 41.1294 46.9696 39.7466 47.308L19.7074 52.2145L14.3182 37.8325L29.7057 29.6646C30.3312 29.3323 31.0436 29.3876 31.6104 29.8117C32.1772 30.2357 32.4315 30.9023 32.2902 31.5953C31.9333 33.3439 31.1424 34.7248 29.9393 35.6991L28.2899 37.0355C27.6139 37.5829 27.3648 38.4665 27.655 39.2867C27.9453 40.1064 28.695 40.6368 29.5649 40.6368L36.1779 40.6396H36.1827C38.5369 40.6396 40.7994 39.9239 42.7253 38.5695L50.116 33.3723C51.1509 32.6443 52.544 32.7729 53.428 33.6777C53.9371 34.1977 54.9337 35.7431 53.2224 37.4548Z" fill="url(#paint0_linear)"></path><path d="M14.8752 54.3507C14.8752 52.3789 13.2712 50.7744 11.2994 50.7744C9.32762 50.7744 7.72363 52.3789 7.72363 54.3507C7.72363 56.322 9.32762 57.9264 11.2994 57.9264C13.2712 57.9264 14.8752 56.322 14.8752 54.3507ZM9.53893 54.3507C9.53893 53.3797 10.3284 52.5897 11.2994 52.5897C12.2699 52.5897 13.0599 53.3797 13.0599 54.3507C13.0599 55.3212 12.2704 56.1111 11.2994 56.1111C10.3284 56.1111 9.53893 55.3212 9.53893 54.3507Z" fill="#B51D09"></path><path d="M4.77239 28.5359L17.9664 15.2403L20.9342 16.7752C21.9974 17.325 23.2913 17.1369 24.1536 16.3068L31.3353 9.3935C31.3353 9.3935 31.1377 14.3726 34.1278 14.3726C35.667 14.3726 36.9197 11.6915 36.9197 10.1518C36.9197 8.61207 36.9197 2.83005 36.9197 2.83005C36.9197 2.82155 36.9193 2.81256 36.9193 2.80358C36.9193 2.02177 36.922 1.097 36.9239 0.539571C36.9249 0.262624 36.7005 0.0380713 36.4236 0.0380641C35.7316 0.038046 35.2502 0.0380867 34.1278 0.0380867C31.9764 0.0380867 28.7398 0.0380867 26.8699 0.0380867C25 0.0380867 21.7686 1.26436 21.7686 2.80358C21.7686 5.87257 27.2013 5.62202 27.2013 5.62202L21.7223 10.8958L18.7114 9.33866C17.6227 8.77516 16.3109 8.98175 15.4467 9.85158L0.808987 24.6023C-0.275466 25.6953 -0.268847 27.4666 0.824115 28.5511C1.35074 29.0734 3.14902 30.1593 4.77239 28.5359ZM2.09719 25.8811L16.7349 11.1303C16.924 10.9403 17.2275 10.6075 17.8775 10.9512L21.4661 12.8071C21.8116 12.9858 22.2324 12.9248 22.5127 12.6549L30.0821 5.36864C30.3487 5.11194 30.4329 4.71863 30.2944 4.37542C30.1559 4.03175 29.8231 3.8072 29.4524 3.8072H26.8699C26.3314 3.8072 24.1536 3.38788 24.1536 2.84896C24.1536 2.31052 26.3314 1.85339 26.8699 1.85339H34.1278C34.3949 1.85339 35.104 1.85339 35.104 2.82438C35.104 2.83242 35.1044 2.84046 35.1044 2.84896V10.1518C35.1044 10.6902 34.6662 12.6549 34.1278 12.6549C33.5889 12.6549 33.1506 10.6902 33.1506 10.1518V7.26005C33.1506 6.89604 32.9332 6.56702 32.5985 6.42473C32.2638 6.28196 31.8761 6.35382 31.6138 6.60626L22.8947 14.9992C22.5931 15.2894 22.1402 15.3556 21.7686 15.1632L18.2089 13.3219C17.8567 13.1399 17.427 13.2075 17.1476 13.4888L3.48419 27.2572C2.88855 27.8528 2.28675 27.4453 2.10239 27.2624C1.72042 26.8828 1.71806 26.263 2.09719 25.8811Z" fill="url(#paint1_linear)"></path><defs><linearGradient id="paint0_linear" x1="28.1946" y1="6.80273" x2="36.5299" y2="99.6699" gradientUnits="userSpaceOnUse"><stop stop-color="#0D386F"></stop><stop offset="1" stop-color="#072953"></stop></linearGradient><linearGradient id="paint1_linear" x1="18.4629" y1="0.0380858" x2="22.0268" y2="49.5682" gradientUnits="userSpaceOnUse"><stop stop-color="#0D386F"></stop><stop offset="1" stop-color="#072953"></stop></linearGradient></defs></svg> 