<?xml version="1.0" encoding="UTF-8"?> <svg xmlns="http://www.w3.org/2000/svg" width="67" height="70" viewBox="0 0 67 70" fill="none"><path d="M61.2078 9.72045H41.7254L40.4629 7.4356C39.6713 6.0032 37.9118 5.51019 36.5402 6.33747L35.2379 7.1232C35.0191 7.25513 34.7515 7.23927 34.5564 7.08246C33.58 6.29837 32.5107 5.65196 31.3777 5.16155C31.1529 5.06421 31.0075 4.83083 31.0075 4.56696V3.00016C31.0073 1.34586 29.7193 0 28.1359 0H23.8786C22.2954 0 21.0072 1.34586 21.0072 3.00003V4.56683C21.0072 4.83083 20.8618 5.06421 20.6367 5.16169C19.5032 5.65224 18.4334 6.29837 17.4572 7.08218C17.2621 7.23886 16.9946 7.25486 16.7757 7.12292L15.474 6.33775C14.1026 5.51087 12.343 6.00347 11.5516 7.43587L10.289 9.72072H5.79278C3.92436 9.72072 2.4043 11.309 2.4043 13.2609V52.3686C2.4043 54.3207 3.92436 55.9088 5.79278 55.9088H21.7196V62.2997L18.9966 68.3244C18.8323 68.688 18.8574 69.1145 19.0636 69.4544C19.2697 69.7941 19.628 70 20.013 70H46.9879C47.3729 70 47.7312 69.7941 47.9373 69.4544C48.1434 69.1145 48.1687 68.688 48.0043 68.3244L45.2814 62.2997V55.9088H61.2082C63.0766 55.9088 64.5967 54.3205 64.5967 52.3686V13.2608C64.5963 11.3087 63.0762 9.72045 61.2078 9.72045ZM43.9012 15.4498C43.9195 15.4498 43.9342 15.4652 43.9342 15.4844V16.5217C43.9342 17.4887 44.4831 18.351 45.3323 18.7183C45.9308 18.9774 46.4964 19.3194 47.0134 19.7343C47.7442 20.3212 48.735 20.3878 49.5371 19.904L50.3993 19.384C50.4036 19.3812 50.4109 19.3768 50.4243 19.3806C50.4375 19.3843 50.4417 19.3921 50.4442 19.3967L51.8534 21.947C51.8626 21.9634 51.8569 21.9846 51.8412 21.9941L50.9795 22.5139C50.178 22.9972 49.7379 23.9262 49.8581 24.8805C49.9002 25.2152 49.9217 25.5562 49.9217 25.8939C49.9217 26.2327 49.9003 26.5744 49.8585 26.909C49.7388 27.8627 50.1792 28.791 50.9802 29.274L51.8412 29.7934C51.8569 29.803 51.8623 29.8239 51.8534 29.8406L50.4442 32.3908C50.435 32.4071 50.415 32.4131 50.3992 32.4035L49.5375 31.8837C48.7355 31.3998 47.7449 31.4662 47.014 32.0531C46.4976 32.4676 45.9317 32.8094 45.3323 33.0688C44.4829 33.4366 43.9339 34.2988 43.9339 35.2656V36.3031C43.9339 36.3221 43.9191 36.3376 43.9009 36.3376H41.0825C41.0642 36.3376 41.0495 36.3221 41.0495 36.3031V35.2657C41.0495 34.2991 40.5007 33.4367 39.6514 33.069C39.0525 32.8098 38.4869 32.468 37.9702 32.0531C37.2394 31.4663 36.2488 31.3996 35.4465 31.8834L34.5844 32.4035C34.5687 32.4131 34.5485 32.4071 34.5392 32.3908L33.7509 30.9644C34.0257 30.7744 34.2949 30.5749 34.5568 30.3646C34.7518 30.2079 35.0192 30.1919 35.2383 30.3239L36.54 31.109C37.3797 31.6155 38.3639 31.6249 39.1833 31.2291C40.168 31.8985 41.3025 32.2506 42.4914 32.2506C45.8466 32.2506 48.576 29.3988 48.576 25.8935C48.576 22.3881 45.8464 19.5365 42.4914 19.5365C41.615 19.5365 40.7684 19.7287 39.9893 20.0971C40.03 19.6408 40.0514 19.1806 40.0514 18.7233C40.0514 18.0852 40.011 17.4408 39.9313 16.808C39.8993 16.5528 40.0195 16.3031 40.2383 16.1711L41.4341 15.4498H43.9012ZM42.8784 23.8824C42.6799 23.1084 42.2046 22.4614 41.5405 22.0608L41.4837 22.0265C41.8088 21.9347 42.1462 21.885 42.4918 21.885C44.6074 21.885 46.3285 23.683 46.3285 25.8935C46.3285 28.104 44.6073 29.9022 42.4918 29.9022C41.8809 29.9022 41.2937 29.7532 40.7614 29.4707L42.5914 26.159C42.975 25.4651 43.0768 24.6566 42.8784 23.8824ZM11.3698 12.4621L13.4983 8.61002C13.6704 8.29871 14.0524 8.19207 14.3502 8.37158L15.6517 9.15676C16.6615 9.7657 17.9078 9.68271 18.8269 8.94443C19.647 8.28599 20.5452 7.74322 21.4967 7.33156C22.5648 6.86958 23.2548 5.78431 23.2548 4.56696V3.00003C23.2548 2.64073 23.5346 2.34856 23.8784 2.34856H28.1356C28.4794 2.34856 28.7592 2.64073 28.7592 3.00003V4.56696C28.7592 5.78403 29.4492 6.86904 30.5169 7.33128C31.4677 7.74308 32.3658 8.28586 33.1862 8.94457C34.1054 9.68285 35.3519 9.76611 36.3616 9.15703L37.6639 8.37131C37.962 8.19207 38.344 8.29871 38.5158 8.60974L40.6444 12.4618C40.7277 12.6126 40.7497 12.7881 40.7067 12.956C40.6784 13.0664 40.622 13.1629 40.5474 13.2421C40.4695 13.2862 40.398 13.3405 40.3325 13.4019L39.1146 14.1369C38.1058 14.7453 37.5516 15.914 37.7028 17.1141C37.7698 17.6458 37.8038 18.1872 37.8038 18.723C37.8038 19.261 37.7699 19.8031 37.7034 20.3346C37.5531 21.5338 38.1073 22.7015 39.1154 23.3098L40.4163 24.0945C40.5605 24.1816 40.6637 24.322 40.7067 24.4901C40.7497 24.6581 40.7276 24.8336 40.6444 24.9843L38.5158 28.8364C38.3437 29.1477 37.9615 29.254 37.6639 29.0748L36.3622 28.2896C35.3529 27.6808 34.1065 27.7641 33.1872 28.5017C32.3674 29.1598 31.469 29.7026 30.5173 30.1146C29.4492 30.5765 28.7592 31.6618 28.7592 32.879V34.4462C28.7592 34.8055 28.4794 35.0977 28.1356 35.0977H23.8784C23.5346 35.0977 23.2548 34.8055 23.2548 34.4462V32.8793C23.2548 31.6622 22.5649 30.5772 21.4971 30.115C20.5463 29.7032 19.6482 29.1604 18.8278 28.5017C18.3179 28.0921 17.707 27.8841 17.092 27.8841C16.5985 27.8841 16.1019 28.018 15.6524 28.2892L14.3501 29.0749C14.0522 29.2546 13.6701 29.1479 13.4982 28.8365L11.3696 24.9844C11.2863 24.8336 11.2643 24.6581 11.3073 24.4902C11.3504 24.3222 11.4536 24.1816 11.598 24.0947L12.8995 23.3094C13.9083 22.701 14.4625 21.5323 14.3113 20.332C14.2443 19.8005 14.2103 19.2592 14.2103 18.7233C14.2103 18.1853 14.2442 17.6432 14.3107 17.1116C14.4611 15.9125 13.9069 14.7447 12.8987 14.1365L11.5978 13.3517C11.4536 13.2646 11.3504 13.1242 11.3075 12.9562C11.2645 12.7881 11.2864 12.6129 11.3698 12.4621ZM21.7866 67.6516L23.5557 63.7373H37.996C38.6167 63.7373 39.12 63.2118 39.12 62.563C39.12 61.9143 38.6167 61.3888 37.996 61.3888H23.9675V55.9088H43.0332V62.563C43.0332 62.7364 43.07 62.9077 43.1408 63.0644L45.214 67.6516H21.7866ZM62.3484 52.3686C62.3484 53.0267 61.8376 53.5602 61.2078 53.5602H5.79278C5.16295 53.5602 4.6522 53.0266 4.6522 52.3686V43.3831H47.3126C47.9332 43.3831 48.4365 42.8573 48.4365 42.2089C48.4365 41.5604 47.9332 41.0346 47.3126 41.0346H4.6522V13.2608C4.6522 12.6026 5.16295 12.0691 5.79278 12.0691H9.12224C9.01245 12.5317 9.00865 13.0166 9.11818 13.4907C9.30806 14.3126 9.83987 15.0034 10.5408 15.4261L11.7749 16.1706C11.9934 16.3024 12.1141 16.5523 12.0822 16.8069C12.0029 17.4389 11.9627 18.0838 11.9627 18.7233C11.9627 19.3615 12.0031 20.0058 12.0828 20.6386C12.1149 20.8937 11.9943 21.1435 11.7757 21.2754L10.5296 22.0271C9.90635 22.4032 9.41392 22.9919 9.18688 23.7054C8.92372 24.5322 9.01035 25.4117 9.42308 26.1586L11.5516 30.0106C12.3432 31.4431 14.1029 31.9361 15.4743 31.1088L16.7766 30.323C16.9957 30.1912 17.2633 30.207 17.4584 30.3638C18.4347 31.1479 19.5041 31.7943 20.6371 32.2847C20.8619 32.382 21.0073 32.6154 21.0073 32.8793V34.4462C21.0073 36.103 22.293 37.4462 23.8788 37.4462H28.136C29.7218 37.4462 31.0075 36.103 31.0075 34.4462V32.879C31.0075 32.615 31.1529 32.3816 31.3779 32.2841C31.5142 32.2252 31.6493 32.1637 31.7837 32.1004L32.5928 33.5647C33.2216 34.7027 34.6195 35.0937 35.7087 34.4369L36.5708 33.9168C36.5835 33.9093 36.5962 33.9111 36.6007 33.9147C37.2733 34.4548 38.0103 34.9003 38.7911 35.2384C38.7941 35.2396 38.8019 35.2499 38.8019 35.2654V36.3029C38.8019 37.6191 39.823 38.6859 41.0827 38.6859H43.9013C45.1611 38.6859 46.1822 37.6191 46.1822 36.3029V35.2654C46.1822 35.2486 46.1908 35.2392 46.1928 35.2384C46.974 34.9004 47.7112 34.4552 48.3838 33.9152C48.3885 33.9116 48.4011 33.9099 48.4136 33.9174L49.2753 34.4372C50.3649 35.0945 51.7623 34.7028 52.3911 33.5649L53.8003 31.0147C54.4302 29.8749 54.0564 28.4175 52.9655 27.7594L52.1044 27.24C52.0918 27.2324 52.087 27.2199 52.0878 27.2141C52.1423 26.7783 52.1701 26.3341 52.1701 25.8935C52.1701 25.4535 52.1422 25.0095 52.0873 24.5736C52.0863 24.5662 52.0922 24.5545 52.1039 24.5475L52.9656 24.0277C54.0564 23.3697 54.4303 21.9121 53.8005 20.7724L52.3912 18.2222C51.7615 17.0825 50.3667 16.692 49.2757 17.3499L48.4131 17.87C48.4005 17.8777 48.3877 17.876 48.3831 17.8722C47.7101 17.3317 46.9731 16.8864 46.1924 16.5483C46.1906 16.5475 46.1819 16.5382 46.1819 16.5214V15.4841C46.1819 14.1679 45.1606 13.101 43.9009 13.101H42.9576C42.9933 12.7534 42.972 12.4053 42.8921 12.0689H61.2078C61.8376 12.0689 62.3484 12.6023 62.3484 13.2605V41.0343H52.7876C52.167 41.0343 51.6637 41.5601 51.6637 42.2086C51.6637 42.857 52.167 43.3829 52.7876 43.3829H62.3486V52.3686H62.3484Z" fill="url(#paint0_linear)"></path><path d="M33.9979 45.2109C32.5532 45.2109 31.3779 46.4389 31.3779 47.9483C31.3779 49.4576 32.5532 50.6856 33.9979 50.6856C35.4427 50.6856 36.6179 49.4576 36.6179 47.9483C36.6179 46.439 35.4427 45.2109 33.9979 45.2109ZM33.9979 49.1925C33.3412 49.1925 32.807 48.6344 32.807 47.9483C32.807 47.2621 33.3412 46.704 33.9979 46.704C34.6547 46.704 35.1888 47.2621 35.1888 47.9483C35.1888 48.6344 34.6547 49.1925 33.9979 49.1925Z" fill="#B51D09"></path><path d="M26.0066 9.7207C21.2551 9.7207 17.3896 13.7592 17.3896 18.7235C17.3896 23.6878 21.2551 27.7263 26.0066 27.7263C30.7581 27.7263 34.6236 23.6878 34.6236 18.7235C34.6236 13.7594 30.7581 9.7207 26.0066 9.7207ZM26.0066 25.3778C22.4946 25.3778 19.6376 22.3928 19.6376 18.7235C19.6376 15.0542 22.4946 12.0693 26.0066 12.0693C29.5186 12.0693 32.3757 15.0542 32.3757 18.7235C32.3757 22.3928 29.5186 25.3778 26.0066 25.3778Z" fill="url(#paint1_linear)"></path><defs><linearGradient id="paint0_linear" x1="33.5005" y1="-3.16886e-07" x2="45.4708" y2="117.501" gradientUnits="userSpaceOnUse"><stop stop-color="#0D386F"></stop><stop offset="1" stop-color="#072953"></stop></linearGradient><linearGradient id="paint1_linear" x1="26.0066" y1="9.7207" x2="28.8688" y2="39.9877" gradientUnits="userSpaceOnUse"><stop stop-color="#0D386F"></stop><stop offset="1" stop-color="#072953"></stop></linearGradient></defs></svg> 