<?xml version="1.0" encoding="UTF-8"?> <svg xmlns="http://www.w3.org/2000/svg" width="67" height="67" viewBox="0 0 67 67" fill="none"><path d="M65.8833 6.7C66.5 6.7 67 6.20001 67 5.58333V1.11667C67 0.499992 66.5 0 65.8833 0H1.11667C0.499992 0 0 0.499992 0 1.11667V5.58333C0 6.20001 0.499992 6.7 1.11667 6.7H3.35V44.6667H1.11667C0.499992 44.6667 0 45.1667 0 45.7833V50.25C0 50.8667 0.499992 51.3667 1.11667 51.3667H28.8403L17.0194 65.1576C16.7358 65.4886 16.6709 65.9542 16.8531 66.3501C17.0352 66.7459 17.431 66.9995 17.8667 67H22.3333C22.6594 67 22.9685 66.8577 23.1806 66.6101L30.15 58.4832V65.8833C30.15 66.5 30.65 67 31.2667 67H35.7333C36.35 67 36.85 66.5 36.85 65.8833V58.4832L43.8194 66.6101C44.0315 66.8577 44.3406 67 44.6667 67H49.1333C49.569 66.9995 49.9648 66.7459 50.1469 66.3501C50.3291 65.9542 50.2642 65.4886 49.9806 65.1576L38.1597 51.3667H65.8833C66.5 51.3667 67 50.8667 67 50.25V45.7833C67 45.1667 66.5 44.6667 65.8833 44.6667H63.65V6.7H65.8833ZM2.23333 2.23333H64.7667V4.46667H2.23333V2.23333ZM21.8197 64.7667H20.2941L30.15 53.2652V55.0514L21.8197 64.7667ZM34.6167 64.7667H32.3833V51.3667H34.6167V64.7667ZM45.1803 64.7667L36.85 55.0514V53.2652L46.7059 64.7667H45.1803ZM64.7667 49.1333H2.23333V46.9H64.7667V49.1333ZM61.4167 44.6667H5.58333V6.7H61.4167V44.6667Z" fill="url(#paint0_linear)"></path><path d="M16.75 35.7349C16.7413 38.0582 18.515 40.0003 20.8296 40.2015C23.1441 40.4027 25.227 38.7959 25.619 36.5059C26.0116 34.2158 24.5831 32.0076 22.3334 31.4269V31.2682C22.3372 28.1859 24.8344 25.6887 27.9167 25.6849H39.0834C43.3979 25.6794 46.8946 22.1828 46.9 17.8682V17.7095C49.0777 17.1474 50.4981 15.0531 50.2146 12.8219C49.9311 10.5908 48.0325 8.91797 45.7834 8.91797C43.5342 8.91797 41.6357 10.5908 41.3521 12.8219C41.0686 15.0531 42.489 17.1474 44.6667 17.7095V17.8682C44.6629 20.9505 42.1656 23.4477 39.0834 23.4515H27.9167C23.6022 23.457 20.1055 26.9537 20.1 31.2682V31.4269C18.1339 31.9345 16.7577 33.7044 16.75 35.7349ZM43.55 13.4015C43.55 12.1682 44.55 11.1682 45.7834 11.1682C47.0167 11.1682 48.0167 12.1682 48.0167 13.4015C48.0167 14.6349 47.0167 15.6349 45.7834 15.6349C44.55 15.6349 43.55 14.6349 43.55 13.4015ZM21.2167 33.5015C22.45 33.5015 23.45 34.5015 23.45 35.7349C23.45 36.9682 22.45 37.9682 21.2167 37.9682C19.9833 37.9682 18.9834 36.9682 18.9834 35.7349C18.9834 34.5015 19.9833 33.5015 21.2167 33.5015Z" fill="url(#paint1_linear)"></path><path d="M38.7071 31.8719C38.3166 32.2625 38.3166 32.8956 38.7071 33.2861L39.579 34.1581L38.7071 35.03C38.3166 35.4205 38.3166 36.0537 38.7071 36.4442L38.8719 36.609C39.2625 36.9996 39.8956 36.9996 40.2861 36.609L41.1581 35.7371L42.03 36.609C42.4205 36.9996 43.0537 36.9996 43.4442 36.609L43.609 36.4442C43.9996 36.0537 43.9996 35.4205 43.609 35.03L42.7371 34.1581L43.609 33.2861C43.9996 32.8956 43.9996 32.2625 43.609 31.8719L43.4442 31.7071C43.0537 31.3166 42.4205 31.3166 42.03 31.7071L41.1581 32.579L40.2861 31.7071C39.8956 31.3166 39.2625 31.3166 38.8719 31.7071L38.7071 31.8719Z" fill="#B51D09"></path><path d="M19.4442 13.7071C19.0537 13.3166 18.4205 13.3166 18.03 13.7071L17.1581 14.579L16.2861 13.7071C15.8956 13.3166 15.2625 13.3166 14.8719 13.7071L14.7071 13.8719C14.3166 14.2625 14.3166 14.8956 14.7071 15.2861L15.579 16.1581L14.7071 17.03C14.3166 17.4205 14.3166 18.0537 14.7071 18.4442L14.8719 18.609C15.2625 18.9996 15.8956 18.9996 16.2861 18.609L17.1581 17.7371L18.03 18.609C18.4205 18.9996 19.0537 18.9996 19.4442 18.609L19.609 18.4442C19.9996 18.0537 19.9996 17.4205 19.609 17.03L18.7371 16.1581L19.609 15.2861C19.9996 14.8956 19.9996 14.2625 19.609 13.8719L19.4442 13.7071Z" fill="url(#paint2_linear)"></path><defs><linearGradient id="paint0_linear" x1="33.5" y1="-3.03305e-07" x2="43.7014" y2="112.709" gradientUnits="userSpaceOnUse"><stop stop-color="#0D386F"></stop><stop offset="1" stop-color="#072953"></stop></linearGradient><linearGradient id="paint1_linear" x1="33.5003" y1="8.91797" x2="37.9577" y2="61.6271" gradientUnits="userSpaceOnUse"><stop stop-color="#0D386F"></stop><stop offset="1" stop-color="#072953"></stop></linearGradient><linearGradient id="paint2_linear" x1="17.1581" y1="13" x2="18.1198" y2="23.6252" gradientUnits="userSpaceOnUse"><stop stop-color="#0D386F"></stop><stop offset="1" stop-color="#072953"></stop></linearGradient></defs></svg> 