<?xml version="1.0" encoding="UTF-8"?> <svg xmlns="http://www.w3.org/2000/svg" width="16" height="13" viewBox="0 0 16 13" fill="none"><path d="M13.4398 7L10.4768 4.037C10.3426 3.90317 10.2641 3.72351 10.257 3.53413C10.2499 3.34474 10.3147 3.15968 10.4385 3.01616C10.5622 2.87263 10.7357 2.78128 10.9241 2.76048C11.1125 2.73967 11.3017 2.79095 11.4538 2.904L11.5378 2.977L15.7798 7.219C15.9071 7.34605 15.9845 7.5146 15.9979 7.69393C16.0113 7.87327 15.9598 8.05145 15.8528 8.196L15.7798 8.28L11.5378 12.523C11.4044 12.6589 11.2242 12.739 11.0339 12.7469C10.8436 12.7548 10.6574 12.6901 10.5131 12.5658C10.3688 12.4414 10.2772 12.2669 10.2569 12.0775C10.2366 11.8881 10.2892 11.6981 10.4038 11.546L10.4768 11.462L13.4398 8.5H7.74984C5.73703 8.49998 3.80318 7.71685 2.3575 6.31634C0.911821 4.91583 0.0677328 3.0078 0.00384235 0.996L-0.00015831 0.75C-0.00015831 0.551088 0.0788593 0.360322 0.219512 0.21967C0.360165 0.0790178 0.55093 0 0.749843 0C0.948755 0 1.13952 0.0790178 1.28017 0.21967C1.42083 0.360322 1.49984 0.551088 1.49984 0.75C1.50004 2.36765 2.12743 3.92221 3.25011 5.08685C4.37279 6.25148 5.90329 6.93547 7.51984 6.995L7.74984 7H13.4398L10.4768 4.037L13.4398 7Z" fill="white"></path></svg> 