<?xml version="1.0" encoding="UTF-8"?> <svg xmlns="http://www.w3.org/2000/svg" width="67" height="67" viewBox="0 0 67 67" fill="none"><g clip-path="url(#clip0)"><path d="M66.0186 58.7432H61.755V23.0102C61.755 20.7338 59.9031 18.8818 57.6267 18.8818H45.0393C44.4973 18.8818 44.0579 19.3213 44.0579 19.8633C44.0579 20.4053 44.4973 20.8447 45.0393 20.8447H57.6267C58.8208 20.8447 59.7921 21.8162 59.7921 23.0102V58.7433H56.4328C56.4835 58.3727 56.5101 57.9998 56.5101 57.6268C56.5101 53.0368 52.7757 49.3025 48.1857 49.3025C47.5686 49.3025 46.9523 49.373 46.3449 49.5126C45.286 47.4723 43.1767 46.1554 40.8429 46.1554C40.0816 46.1554 39.3421 46.2943 38.6459 46.564C38.36 43.9777 36.1613 41.9594 33.5 41.9594C30.8387 41.9594 28.64 43.9777 28.3541 46.564C27.6579 46.2943 26.9184 46.1554 26.1571 46.1554C23.8233 46.1554 21.7139 47.4723 20.6551 49.5126C20.0475 49.3729 19.4314 49.3025 18.8143 49.3025C14.2242 49.3025 10.4899 53.0368 10.4899 57.6268C10.4899 57.9999 10.5165 58.3727 10.5672 58.7433H7.20787V23.0102C7.20787 21.8161 8.17923 20.8447 9.37333 20.8447H21.9611C22.5031 20.8447 22.9425 20.4053 22.9425 19.8633C22.9425 19.3213 22.5031 18.8818 21.9611 18.8818H9.37333C7.0969 18.8818 5.24497 20.7339 5.24497 23.0102V58.7433H0.981445C0.439426 58.7433 0 59.1827 0 59.7247V61.8227C0 63.5207 1.38148 64.9021 3.07938 64.9021H63.9206C65.6186 64.9021 67 63.5206 67 61.8227V59.7247C67 59.1826 66.5606 58.7432 66.0186 58.7432ZM65.0371 61.8227C65.0371 62.4384 64.5362 62.9392 63.9206 62.9392H3.07938C2.46369 62.9392 1.96289 62.4383 1.96289 61.8227V60.7062H14.6179C15.1599 60.7062 15.5994 60.2668 15.5994 59.7247C15.5994 59.1827 15.1599 58.7433 14.6179 58.7433H12.5532C12.4866 58.3734 12.4527 57.9999 12.4527 57.6268C12.4527 54.1191 15.3065 51.2653 18.8142 51.2653C19.5128 51.2653 20.2124 51.3849 20.8935 51.6208C21.1402 51.7062 21.4106 51.6898 21.6452 51.5755C21.8797 51.461 22.059 51.2579 22.1435 51.011C22.7351 49.2809 24.3481 48.1184 26.1572 48.1184C27.1493 48.1184 28.0915 48.4695 28.8821 49.1339C29.2159 49.4143 29.6946 49.441 30.0575 49.1993C30.4204 48.9576 30.5803 48.5056 30.4502 48.0896C30.3379 47.7303 30.2856 47.4276 30.2856 47.137C30.2856 45.3645 31.7276 43.9226 33.5 43.9226C35.2724 43.9226 36.7144 45.3646 36.7144 47.137C36.7144 47.4276 36.6621 47.7303 36.5498 48.0896C36.4197 48.5058 36.5798 48.9578 36.9425 49.1993C37.3054 49.4409 37.7841 49.4143 38.1179 49.1339C38.9086 48.4697 39.8509 48.1184 40.8428 48.1184C42.6519 48.1184 44.2649 49.2809 44.8565 51.011C44.941 51.2579 45.1203 51.461 45.3548 51.5755C45.5894 51.69 45.8599 51.7063 46.1065 51.6208C46.7876 51.3849 47.487 51.2653 48.1858 51.2653C51.6936 51.2653 54.5473 54.1191 54.5473 57.6268C54.5473 57.9999 54.5133 58.3734 54.4468 58.7433H18.8146C18.2725 58.7433 17.8331 59.1827 17.8331 59.7247C17.8331 60.2668 18.2725 60.7062 18.8146 60.7062H65.0371V61.8227Z" fill="url(#paint0_linear)"></path><path d="M20.8875 30.9476C20.2705 31.688 19.9307 32.6267 19.9307 33.5906V36.6472C19.9307 36.9961 20.116 37.3187 20.4172 37.4948C20.57 37.584 20.7411 37.6286 20.9121 37.6286C21.0784 37.6286 21.2448 37.5865 21.3945 37.5019L28.3837 33.5582C28.65 34.0445 28.9323 34.5229 29.2306 34.9926L28.352 38.5071C28.2786 38.8003 28.3445 39.1109 28.5305 39.3492C28.7164 39.5875 29.0018 39.7267 29.3041 39.7267H37.696C37.9983 39.7267 38.2836 39.5875 38.4696 39.3492C38.6556 39.111 38.7215 38.8003 38.6481 38.5071L37.7695 34.9926C38.0678 34.5229 38.3502 34.0446 38.6165 33.5582L45.6057 37.5019C45.7555 37.5865 45.9217 37.6286 46.088 37.6286C46.259 37.6286 46.4301 37.5839 46.5829 37.4948C46.8842 37.3189 47.0695 36.9962 47.0695 36.6472V33.5906C47.0695 32.6267 46.7296 31.688 46.1126 30.9476L41.4535 25.3585C41.6989 23.9006 41.8245 22.4141 41.8245 20.9124C41.8245 17.3333 41.1316 13.8736 39.765 10.6297C38.447 7.50113 36.5709 4.7256 34.1887 2.38021C33.8067 2.00412 33.1937 2.00412 32.8117 2.38021C30.4295 4.72547 28.5534 7.501 27.2354 10.6297C25.8688 13.8737 25.1759 17.3333 25.1759 20.9124C25.1759 22.4118 25.3011 23.896 25.5457 25.3517L20.8875 30.9476ZM21.8936 34.9664V33.5906C21.8936 33.0849 22.0718 32.5926 22.3954 32.2042L26.0741 27.7898C26.4417 29.1649 26.9195 30.5059 27.5052 31.8001L21.8936 34.9664ZM30.561 37.7637L31.1193 35.5307H35.8806L36.4388 37.7637H30.561ZM44.6043 32.2042C44.9279 32.5926 45.1062 33.0849 45.1062 33.5906V34.9664L39.4945 31.8C40.0801 30.5058 40.558 29.1649 40.9256 27.7897L44.6043 32.2042ZM33.4999 4.48731C35.148 6.25901 36.5074 8.29048 37.5405 10.4901H29.4592C30.4923 8.29048 31.8517 6.25901 33.4999 4.48731ZM28.6413 12.4529H38.3583C39.3396 15.1283 39.8612 17.9966 39.8612 20.9123C39.8612 25.4253 38.6471 29.7888 36.3447 33.5677H30.6549C28.3525 29.7888 27.1384 25.4253 27.1384 20.9123C27.1384 17.9966 27.6601 15.1284 28.6413 12.4529Z" fill="url(#paint1_linear)"></path><path d="M37.6278 19.8632C37.6278 17.5868 35.7759 15.7349 33.4994 15.7349C31.223 15.7349 29.3711 17.5869 29.3711 19.8632C29.3711 22.1395 31.223 23.9916 33.4994 23.9916C35.7759 23.9916 37.6278 22.1396 37.6278 19.8632ZM31.334 19.8632C31.334 18.6691 32.3054 17.6978 33.4994 17.6978C34.6935 17.6978 35.6649 18.6693 35.6649 19.8632C35.6649 21.0572 34.6935 22.0287 33.4994 22.0287C32.3054 22.0287 31.334 21.0573 31.334 19.8632Z" fill="#B51D09"></path></g><defs><linearGradient id="paint0_linear" x1="33.5" y1="18.8818" x2="38.3337" y2="96.6321" gradientUnits="userSpaceOnUse"><stop stop-color="#0D386F"></stop><stop offset="1" stop-color="#072953"></stop></linearGradient><linearGradient id="paint1_linear" x1="33.5001" y1="2.09814" x2="41.3848" y2="64.927" gradientUnits="userSpaceOnUse"><stop stop-color="#0D386F"></stop><stop offset="1" stop-color="#072953"></stop></linearGradient><clipPath id="clip0"><rect width="67" height="67" fill="white"></rect></clipPath></defs></svg> 