<?xml version="1.0" encoding="UTF-8"?> <svg xmlns="http://www.w3.org/2000/svg" width="67" height="67" viewBox="0 0 67 67" fill="none"><path d="M1.5225 17.1109L3.71228 17.5464C3.78585 17.5607 3.86066 17.5678 3.93562 17.5676C4.51018 17.5676 4.99096 17.1316 5.04696 16.5597C5.10296 15.9879 4.7159 15.4669 4.15225 15.3554L1.96247 14.9199C1.35747 14.7994 0.769277 15.1921 0.648709 15.7971C0.528141 16.4021 0.92085 16.9903 1.52585 17.1109H1.5225Z" fill="url(#paint0_linear)"></path><path d="M62.8537 29.311L65.0435 29.7465C65.1171 29.7604 65.1919 29.7675 65.2668 29.7678C65.8427 29.7713 66.3268 29.3363 66.3846 28.7633C66.4425 28.1903 66.0551 27.6673 65.4901 27.5556L63.3004 27.1201C62.6954 26.9996 62.1072 27.3923 61.9866 27.9973C61.866 28.6023 62.2587 29.1905 62.8637 29.311H62.8537Z" fill="url(#paint1_linear)"></path><path d="M1.73935 29.7678C1.81429 29.7675 1.88904 29.7604 1.96268 29.7465L4.15247 29.311C4.75747 29.1905 5.15018 28.6023 5.02961 27.9973C4.90904 27.3923 4.32085 26.9996 3.71585 27.1201L1.52607 27.5556C0.962209 27.6672 0.575103 28.1885 0.631409 28.7605C0.687715 29.3325 1.16904 29.7683 1.74382 29.7678H1.73935Z" fill="url(#paint2_linear)"></path><path d="M63.0704 17.5674C63.1454 17.5676 63.2202 17.5605 63.2937 17.5462L65.4835 17.1107C65.8749 17.0327 66.1949 16.7518 66.323 16.3739C66.4512 15.9959 66.368 15.5784 66.1047 15.2784C65.8415 14.9785 65.4383 14.8418 65.0469 14.9198L62.8571 15.3553C62.2935 15.4667 61.9064 15.9877 61.9624 16.5595C62.0184 17.1314 62.4992 17.5674 63.0738 17.5674H63.0704Z" fill="url(#paint3_linear)"></path><path d="M6.57753 41.4399C6.79772 41.4398 7.01296 41.3745 7.19616 41.2523L9.05318 40.0117C9.40874 39.8015 9.6192 39.4122 9.60035 38.9996C9.58151 38.5869 9.33642 38.2184 8.96317 38.0415C8.58993 37.8645 8.1495 37.9081 7.81814 38.1547L5.95554 39.3953C5.54683 39.6689 5.36524 40.1777 5.50839 40.6483C5.65153 41.1188 6.08569 41.4403 6.57753 41.4399Z" fill="url(#paint4_linear)"></path><path d="M58.5703 6.69969C58.791 6.69941 59.0066 6.63374 59.19 6.51097L61.047 5.27036C61.3811 5.04971 61.5715 4.66712 61.546 4.26759C61.5205 3.86806 61.2832 3.51273 60.9238 3.33626C60.5645 3.1598 60.1381 3.1892 59.8064 3.41334L57.9494 4.65396C57.5398 4.92708 57.3574 5.43622 57.5004 5.90732C57.6433 6.37841 58.078 6.70029 58.5703 6.69969Z" fill="url(#paint5_linear)"></path><path d="M7.81709 6.51093C8.14845 6.75755 8.58888 6.8011 8.96212 6.62417C9.33537 6.44724 9.58045 6.07872 9.5993 5.66609C9.61815 5.25347 9.40769 4.86414 9.05213 4.65391L7.19511 3.4133C6.68242 3.07466 5.99247 3.21383 5.65115 3.72474C5.30983 4.23565 5.44538 4.92632 5.95449 5.27031L7.81709 6.51093Z" fill="url(#paint6_linear)"></path><path d="M59.8055 41.2532C60.3182 41.5918 61.0082 41.4526 61.3495 40.9417C61.6908 40.4308 61.5553 39.7401 61.0461 39.3961L59.1891 38.1555C58.8574 37.9314 58.4311 37.902 58.0717 38.0784C57.7124 38.2549 57.475 38.6102 57.4495 39.0098C57.4241 39.4093 57.6145 39.7919 57.9485 40.0125L59.8055 41.2532Z" fill="url(#paint7_linear)"></path><path d="M12.378 26.6132C12.8477 31.4481 14.9667 35.9741 18.3789 39.4314C19.9504 41.0167 21.2126 42.881 22.1008 44.9288C22.9862 46.9597 23.4457 49.1507 23.4508 51.3663V53.5997H21.2175C20.6008 53.5997 20.1008 54.0996 20.1008 54.7163C20.1008 55.3331 20.6008 55.833 21.2175 55.833H23.4508V58.0663C23.4508 59.9165 24.9507 61.4163 26.8008 61.4163H26.8422C27.2017 63.9612 29.9967 65.883 33.5008 65.883C37.0049 65.883 39.8 63.9612 40.1595 61.4163H40.2008C42.051 61.4163 43.5508 59.9165 43.5508 58.0663V55.833H45.7842C46.4009 55.833 46.9008 55.3331 46.9008 54.7163C46.9008 54.0996 46.4009 53.5997 45.7842 53.5997H43.5508V51.3663C43.6016 46.8743 45.425 42.5843 48.6239 39.4303C52.0356 35.9732 54.1541 31.4475 54.6237 26.6132C54.7764 24.9718 54.7389 23.3182 54.5121 21.6853C54.6417 21.1665 54.7106 20.6344 54.7175 20.0997C54.7221 18.1686 53.8875 16.3309 52.4306 15.0635C52.3937 15.0232 52.3538 14.9859 52.3111 14.9518C51.9753 14.6742 51.6137 14.4292 51.2313 14.2204C51.2741 13.9988 51.3058 13.7752 51.3262 13.5504C51.3542 13.3151 51.368 13.0783 51.3675 12.8413C51.364 8.90377 48.2252 5.68526 44.289 5.58301C43.3342 2.91035 40.8056 1.1237 37.9675 1.11634C37.4576 1.11309 36.9492 1.17158 36.4533 1.29054C35.3559 1.5458 34.3405 2.07348 33.5008 2.82484C32.6665 2.07674 31.6573 1.55064 30.5662 1.29501C30.0647 1.17339 29.5502 1.11339 29.0342 1.11634C26.196 1.12337 23.6673 2.91014 22.7127 5.58301C18.7765 5.68526 15.6377 8.90377 15.6342 12.8413C15.6335 13.0652 15.6461 13.289 15.6721 13.5113C15.6945 13.7525 15.7269 13.9904 15.7704 14.2204H15.7626C15.3878 14.4262 15.033 14.6666 14.7029 14.9384L14.6906 14.9463L14.6761 14.9563C13.1625 16.2366 12.288 18.1173 12.2842 20.0997C12.2896 20.6372 12.3571 21.1722 12.4852 21.6943C12.2598 23.3243 12.2238 24.9749 12.378 26.6132ZM33.5008 63.6497C31.3848 63.6497 29.5557 62.6726 29.1291 61.4163H37.8726C37.446 62.6726 35.6225 63.6497 33.5008 63.6497ZM41.3175 58.0663C41.3175 58.6831 40.8176 59.183 40.2008 59.183H26.8008C26.1841 59.183 25.6842 58.6831 25.6842 58.0663V52.483H41.3175V58.0663ZM22.8925 7.81634C23.073 7.81611 23.2534 7.82505 23.433 7.84314C24.0074 7.90384 24.5333 7.51642 24.6457 6.94981C25.0679 4.85982 26.902 3.35519 29.0342 3.34967C29.3725 3.34591 29.71 3.38341 30.0392 3.46134C31.0653 3.70109 31.9744 4.294 32.6075 5.13634C32.8273 5.40341 33.155 5.55816 33.5008 5.55816C33.8467 5.55816 34.1744 5.40341 34.3942 5.13634C35.0318 4.29209 35.9461 3.69913 36.977 3.46134C37.3015 3.38448 37.6341 3.34698 37.9675 3.34967C40.1004 3.35541 41.9347 4.86117 42.356 6.95204C42.4683 7.51866 42.9943 7.90608 43.5687 7.84537C43.7483 7.82654 43.9286 7.81685 44.1092 7.81634C46.8831 7.81942 49.1311 10.0674 49.1342 12.8413C49.1335 12.9985 49.1238 13.1554 49.1051 13.3115C49.0723 13.7029 48.9886 14.0884 48.8561 14.4583C48.8112 14.5845 48.7882 14.7174 48.788 14.8513C48.7879 15.3296 49.0923 15.7548 49.5451 15.9088C49.9878 16.0614 50.4027 16.2851 50.7734 16.571C50.8117 16.6143 50.8531 16.6546 50.8974 16.6916C51.9067 17.5352 52.4882 18.7842 52.4842 20.0997H34.6175V16.7497C34.6175 16.133 34.1176 15.633 33.5008 15.633C32.8841 15.633 32.3842 16.133 32.3842 16.7497V20.0997H26.8008C26.1841 20.0997 25.6842 20.5996 25.6842 21.2163C25.6842 21.8331 26.1841 22.333 26.8008 22.333H52.3446C52.5077 23.6847 52.526 25.0499 52.3993 26.4055C51.9781 30.728 50.0828 34.7741 47.0315 37.8647C43.7009 41.1691 41.6825 45.5697 41.351 50.2497H25.6496C25.5124 48.1103 25.0058 46.0108 24.1521 44.0444C23.1541 41.7426 21.7359 39.6469 19.9702 37.8647C16.9189 34.7741 15.0236 30.728 14.6024 26.4055C14.4757 25.0499 14.494 23.6847 14.6571 22.333H20.1008C20.7176 22.333 21.2175 21.8331 21.2175 21.2163C21.2175 20.5996 20.7176 20.0997 20.1008 20.0997H14.5175C14.5215 18.7803 15.1029 17.5288 16.1088 16.6749C16.5082 16.3404 16.9648 16.0809 17.4566 15.9088C17.741 15.812 17.9745 15.6046 18.1041 15.3335C18.2338 15.0625 18.2487 14.7506 18.1456 14.4683C18.009 14.0841 17.9242 13.6834 17.8932 13.2768C17.8763 13.1323 17.8677 12.9869 17.8675 12.8413C17.8706 10.0674 20.1186 7.81942 22.8925 7.81634Z" fill="url(#paint8_linear)"></path><path d="M19.0498 25.9894C18.9924 25.3748 18.4477 24.9231 17.8332 24.9805C17.2186 25.0379 16.7669 25.5825 16.8242 26.1971C17.1979 30.0086 18.8712 33.5757 21.5634 36.2996C21.7722 36.5142 22.059 36.6351 22.3584 36.6346C22.8078 36.6341 23.2131 36.3642 23.3869 35.9498C23.5607 35.5354 23.4692 35.0572 23.1546 34.7363C20.8225 32.3785 19.373 29.2899 19.0498 25.9894Z" fill="#B51D09"></path><path d="M23.4512 18.9825C24.8658 18.9767 26.1242 18.0829 26.5957 16.7492H29.0345C29.6512 16.7492 30.1512 16.2492 30.1512 15.6325V13.1937C31.6895 12.6499 32.6122 11.0769 32.3363 9.46881C32.0604 7.86074 30.6661 6.6853 29.0345 6.6853C27.403 6.6853 26.0087 7.86074 25.7328 9.46881C25.4569 11.0769 26.3796 12.6499 27.9179 13.1937V14.5158H26.5957C26.0251 12.9139 24.3432 11.9952 22.6869 12.3808C21.0307 12.7664 19.9274 14.3335 20.123 16.0227C20.3186 17.712 21.7507 18.9856 23.4512 18.9825ZM29.0345 8.93251C29.6512 8.93251 30.1512 9.43246 30.1512 10.0492C30.1512 10.6659 29.6512 11.1658 29.0345 11.1658C28.4178 11.1658 27.9179 10.6659 27.9179 10.0492C27.9179 9.43246 28.4178 8.93251 29.0345 8.93251ZM23.4512 14.5158C24.0679 14.5158 24.5679 15.0158 24.5679 15.6325C24.5679 16.2492 24.0679 16.7492 23.4512 16.7492C22.8345 16.7492 22.3345 16.2492 22.3345 15.6325C22.3345 15.0158 22.8345 14.5158 23.4512 14.5158Z" fill="url(#paint9_linear)"></path><path d="M36.8508 13.1937V15.6325C36.8508 16.2492 37.3508 16.7492 37.9675 16.7492H40.4063C40.9502 18.2874 42.5231 19.2102 44.1312 18.9343C45.7393 18.6584 46.9147 17.2641 46.9147 15.6325C46.9147 14.0009 45.7393 12.6067 44.1312 12.3308C42.5231 12.0549 40.9502 12.9776 40.4063 14.5158H39.0842V13.1937C40.6224 12.6499 41.5452 11.0769 41.2693 9.46881C40.9934 7.86074 39.5991 6.6853 37.9675 6.6853C36.3359 6.6853 34.9416 7.86074 34.6657 9.46881C34.3898 11.0769 35.3126 12.6499 36.8508 13.1937ZM43.5508 14.5158C44.1676 14.5158 44.6675 15.0158 44.6675 15.6325C44.6675 16.2492 44.1676 16.7492 43.5508 16.7492C42.9341 16.7492 42.4342 16.2492 42.4342 15.6325C42.4342 15.0158 42.9341 14.5158 43.5508 14.5158ZM37.9675 8.93251C38.5842 8.93251 39.0842 9.43246 39.0842 10.0492C39.0842 10.6659 38.5842 11.1658 37.9675 11.1658C37.3508 11.1658 36.8508 10.6659 36.8508 10.0492C36.8508 9.43246 37.3508 8.93251 37.9675 8.93251Z" fill="url(#paint10_linear)"></path><defs><linearGradient id="paint0_linear" x1="2.83965" y1="14.8982" x2="3.08608" y2="19.412" gradientUnits="userSpaceOnUse"><stop stop-color="#0D386F"></stop><stop offset="1" stop-color="#072953"></stop></linearGradient><linearGradient id="paint1_linear" x1="64.1776" y1="27.0984" x2="64.424" y2="31.6122" gradientUnits="userSpaceOnUse"><stop stop-color="#0D386F"></stop><stop offset="1" stop-color="#072953"></stop></linearGradient><linearGradient id="paint2_linear" x1="2.83867" y1="27.0984" x2="3.08511" y2="31.6122" gradientUnits="userSpaceOnUse"><stop stop-color="#0D386F"></stop><stop offset="1" stop-color="#072953"></stop></linearGradient><linearGradient id="paint3_linear" x1="64.1696" y1="14.8982" x2="64.416" y2="19.4117" gradientUnits="userSpaceOnUse"><stop stop-color="#0D386F"></stop><stop offset="1" stop-color="#072953"></stop></linearGradient><linearGradient id="paint4_linear" x1="7.53074" y1="37.9338" x2="7.98372" y2="43.8455" gradientUnits="userSpaceOnUse"><stop stop-color="#0D386F"></stop><stop offset="1" stop-color="#072953"></stop></linearGradient><linearGradient id="paint5_linear" x1="59.5002" y1="3.22192" x2="59.9508" y2="9.08562" gradientUnits="userSpaceOnUse"><stop stop-color="#0D386F"></stop><stop offset="1" stop-color="#072953"></stop></linearGradient><linearGradient id="paint6_linear" x1="7.53168" y1="3.22827" x2="7.98443" y2="9.13561" gradientUnits="userSpaceOnUse"><stop stop-color="#0D386F"></stop><stop offset="1" stop-color="#072953"></stop></linearGradient><linearGradient id="paint7_linear" x1="59.4925" y1="37.9641" x2="59.9428" y2="43.8216" gradientUnits="userSpaceOnUse"><stop stop-color="#0D386F"></stop><stop offset="1" stop-color="#072953"></stop></linearGradient><linearGradient id="paint8_linear" x1="33.5009" y1="1.11621" x2="48.3916" y2="108.904" gradientUnits="userSpaceOnUse"><stop stop-color="#0D386F"></stop><stop offset="1" stop-color="#072953"></stop></linearGradient><linearGradient id="paint9_linear" x1="26.2427" y1="6.6853" x2="28.117" y2="27.3717" gradientUnits="userSpaceOnUse"><stop stop-color="#0D386F"></stop><stop offset="1" stop-color="#072953"></stop></linearGradient><linearGradient id="paint10_linear" x1="40.766" y1="6.6853" x2="42.6384" y2="27.3725" gradientUnits="userSpaceOnUse"><stop stop-color="#0D386F"></stop><stop offset="1" stop-color="#072953"></stop></linearGradient></defs></svg> 