<?xml version="1.0" encoding="UTF-8"?> <svg xmlns="http://www.w3.org/2000/svg" width="67" height="68" viewBox="0 0 67 68" fill="none"><path d="M13.892 30.132H15.4205C17.308 30.132 18.8438 28.5891 18.8438 26.6929V24.5958C20.7396 23.2632 21.9844 21.0578 21.9844 18.5631C21.9844 14.5035 18.6972 11.2012 14.6562 11.2012C10.6153 11.2012 7.32812 14.5035 7.32812 18.5631C7.32812 21.0589 8.57286 23.2643 10.4688 24.5958V26.6929C10.4688 28.5891 12.0045 30.132 13.892 30.132ZM16.75 26.6929C16.75 27.4291 16.1533 28.0285 15.4205 28.0285H13.892C13.1592 28.0285 12.5625 27.4291 12.5625 26.6929V25.6149C13.2262 25.8147 13.9287 25.9251 14.6562 25.9251C15.3838 25.9251 16.0863 25.8147 16.75 25.6149V26.6929ZM13.6094 18.5631C13.6094 17.9837 14.0794 17.5114 14.6562 17.5114C15.2331 17.5114 15.7031 17.9837 15.7031 18.5631C15.7031 19.1426 15.2331 19.6149 14.6562 19.6149C14.0794 19.6149 13.6094 19.1426 13.6094 18.5631ZM9.42188 18.5631C9.42188 15.6636 11.77 13.3046 14.6562 13.3046C17.5425 13.3046 19.8906 15.6636 19.8906 18.5631C19.8906 21.102 18.089 23.2264 15.7031 23.7155V21.5248C16.9185 21.0894 17.7969 19.9325 17.7969 18.5631C17.7969 16.8236 16.3878 15.408 14.6562 15.408C12.9247 15.408 11.5156 16.8236 11.5156 18.5631C11.5156 19.9325 12.394 21.0894 13.6094 21.5248V23.7155C11.2235 23.2264 9.42188 21.102 9.42188 18.5631Z" fill="#22314F"></path><path d="M43.9688 18.8805L49.6397 14.1331C50.6928 13.2507 51.2969 11.955 51.2969 10.5783C51.2969 9.34256 50.8174 8.18147 49.9391 7.29804C49.0691 6.42407 47.9123 5.94238 46.6822 5.94238H46.4886C45.582 5.94238 44.7131 6.20531 43.9688 6.69541C43.2265 6.20531 42.3576 5.94238 41.4479 5.94238H41.2542C40.0241 5.94238 38.8684 6.42407 37.989 7.30645C37.1201 8.18042 36.6406 9.34256 36.6406 10.5783C36.6406 11.9561 37.2447 13.2518 38.2978 14.132L43.9688 18.8805ZM39.4787 8.78516C39.954 8.30873 40.5842 8.0458 41.2553 8.0458H41.4489C42.12 8.0458 42.7502 8.30873 43.2297 8.78936L43.974 9.52871L44.7141 8.78516C45.1884 8.30873 45.8186 8.0458 46.4896 8.0458H46.6833C47.3543 8.0458 47.9846 8.30873 48.4682 8.79357C48.9414 9.27104 49.2031 9.90417 49.2031 10.5783C49.2031 11.3292 48.8744 12.036 48.2997 12.5166L43.9688 16.1419L39.6378 12.5156C39.0631 12.036 38.7344 11.3292 38.7344 10.5783C38.7344 9.90417 38.9961 9.27104 39.4787 8.78516Z" fill="#B51D09"></path><path fill-rule="evenodd" clip-rule="evenodd" d="M42.9219 24.873H61.7656C64.075 24.873 65.9531 26.7597 65.9531 29.0798V35.3901C65.9531 37.7101 64.075 39.5969 61.7656 39.5969H46.0625C45.4843 39.5969 45.0156 39.1261 45.0156 38.5452C45.0156 37.9644 45.4843 37.4935 46.0625 37.4935H61.7656C62.9203 37.4935 63.8594 36.5501 63.8594 35.3901V29.0798C63.8594 27.9198 62.9203 26.9764 61.7656 26.9764H42.9219C41.7672 26.9764 40.8281 27.9198 40.8281 29.0798V42.8814C40.8281 42.8814 42.586 41.8738 43.8348 41.674C45.4554 41.4148 48.1562 41.674 48.1562 41.674C55.4069 42.6448 60.7188 49.4767 60.7188 56.826V63.9275C60.7188 65.592 59.3756 66.9414 57.7188 66.9414C57.7188 66.9414 37.7794 66.9414 25.0032 66.9414C24.5 66.4862 24.5036 65.2901 25.0095 64.838C26.3437 64.838 28.4258 64.838 28.4258 64.838L30.3384 53.3133L28.4258 46.3938C27.5487 46.046 26.873 45.7674 26.325 45.5414C24.3736 44.7368 24.0407 44.5995 22 44.3846C20.9421 44.2731 19.2772 44.3159 19.2772 44.3159C13.0619 45.1489 8.375 50.5273 8.375 56.826V64.838H16.75V57.7242L15.329 54.8691C15.0187 54.2457 15.2702 53.4875 15.8907 53.1757C16.3045 52.9677 16.8078 53.1362 17.0147 53.552L18.8438 57.2278V64.838C18.8438 64.838 20.7732 64.838 22.0095 64.838C22.5 65.4815 22.5 65.9839 22.0032 66.9414C17.0349 66.9414 9.28125 66.9414 9.28125 66.9414C7.6244 66.9414 6.28125 65.592 6.28125 63.9275V56.826C6.28125 49.4767 11.2493 42.8448 18.5 41.873C18.5 41.873 21.3793 41.6135 23 41.873C24.2489 42.073 26.1719 42.8814 26.1719 42.8814V36.4418C26.1719 35.2818 25.2328 34.3384 24.0781 34.3384H5.23438C2.92497 34.3384 1.04688 32.4516 1.04688 30.1315V11.2007C1.04688 8.88067 2.92497 6.9939 5.23438 6.9939H24.0781C26.3875 6.9939 28.2656 8.88067 28.2656 11.2007V26.9764C28.2656 27.5572 27.7969 28.0281 27.2188 28.0281C26.6406 28.0281 26.1719 27.5572 26.1719 26.9764V11.2007C26.1719 10.0407 25.2328 9.09732 24.0781 9.09732H5.23438C4.07967 9.09732 3.14062 10.0407 3.14062 11.2007V30.1315C3.14062 31.2916 4.07967 32.2349 5.23438 32.2349H24.0781C26.3875 32.2349 28.2656 34.1217 28.2656 36.4418V43.7228L32.4531 45.4055V25.9247C32.4531 23.0251 34.8013 20.6661 37.6875 20.6661H51.2969C52.4516 20.6661 53.3906 19.7227 53.3906 18.5627V5.94219C53.3906 4.78216 52.4516 3.83877 51.2969 3.83877H36.6406C35.4859 3.83877 34.5469 4.78216 34.5469 5.94219V15.4076C34.5469 15.9884 34.0782 16.4593 33.5 16.4593C32.9218 16.4593 32.4531 15.9884 32.4531 15.4076V5.94219C32.4531 3.62212 34.3312 1.73535 36.6406 1.73535H51.2969C53.6063 1.73535 55.4844 3.62212 55.4844 5.94219V18.5627C55.4844 20.8828 53.6063 22.7696 51.2969 22.7696H37.6875C35.956 22.7696 34.5469 24.1852 34.5469 25.9247V45.4055L38.7344 43.7228V29.0798C38.7344 26.7597 40.6125 24.873 42.9219 24.873ZM36.4522 64.838L34.707 54.3209H32.293L30.5478 64.838H36.4522ZM31 46.8961L32.2239 52.2174H34.7761L36 46.8961C36 46.8961 35.207 47.9007 33.5 47.9007C31.793 47.9007 31 46.8961 31 46.8961ZM58.625 64.838V56.826C58.625 50.5273 53.9381 45.1489 47.7228 44.3159C47.7228 44.3159 46.0821 43.9368 45.0156 43.9531C44.278 43.9644 43.4151 44.171 42.6242 44.425C41.3037 44.8492 40.1841 45.4055 40.1841 45.4055L38.3849 46.1285C38.3346 46.3585 38.2975 46.5481 38.2572 46.7541C38.0998 47.5586 37.8932 48.6143 36.6616 53.3123L38.5742 64.838H48.1562V57.2278L49.8926 53.739C50.1513 53.2193 50.7803 53.0087 51.2976 53.2687C51.8147 53.5286 52.0242 54.1604 51.7655 54.6799L50.25 57.7242V64.838H58.625Z" fill="url(#paint0_linear)"></path><path d="M52.1094 29.0801V31.1835H50.0156V33.2869H52.1094V35.3903H54.2031V33.2869H56.2969V31.1835H54.2031V29.0801H52.1094Z" fill="#22314F"></path><defs><linearGradient id="paint0_linear" x1="33.5" y1="1.73535" x2="43.4734" y2="111.419" gradientUnits="userSpaceOnUse"><stop stop-color="#0D386F"></stop><stop offset="1" stop-color="#072953"></stop></linearGradient></defs></svg> 