<?xml version="1.0" encoding="UTF-8"?> <svg xmlns="http://www.w3.org/2000/svg" width="67" height="67" viewBox="0 0 67 67" fill="none"><g clip-path="url(#clip0)"><path d="M17.2426 10.4844C9.18087 10.4844 2.62207 17.0432 2.62207 25.1049C2.62207 33.1666 9.18074 39.7254 17.2426 39.7254C25.3043 39.7254 31.8631 33.1666 31.8631 25.1049C31.8631 17.0432 25.3044 10.4844 17.2426 10.4844ZM17.2426 37.7586C10.2654 37.7586 4.58889 32.0822 4.58889 25.1049C4.58889 18.1276 10.2652 12.4512 17.2426 12.4512C24.2199 12.4512 29.8963 18.1276 29.8963 25.1049C29.8963 32.0822 24.2199 37.7586 17.2426 37.7586Z" fill="url(#paint0_linear)"></path><path d="M21.6235 22.9407C22.1665 22.9407 22.6069 22.5004 22.6069 21.9573V20.9083C22.6069 18.6309 20.7539 16.7779 18.4764 16.7779H18.4109V14.6143C18.4109 14.0712 17.9705 13.6309 17.4275 13.6309C16.8844 13.6309 16.444 14.0712 16.444 14.6143V16.8007C14.0919 17.032 12.248 19.0208 12.248 21.4328C12.248 23.9996 14.3362 26.0878 16.903 26.0878H17.9519C19.4342 26.0878 20.6401 27.2936 20.6401 28.7759C20.6401 30.2581 19.4342 31.464 17.9519 31.464H16.3785C15.1854 31.464 14.2149 30.4934 14.2149 29.3004C14.2149 28.7573 13.7745 28.3169 13.2315 28.3169C12.6884 28.3169 12.248 28.7573 12.248 29.3004C12.248 31.5778 14.101 33.4308 16.3785 33.4308H16.444V35.5944C16.444 36.1375 16.8844 36.5778 17.4275 36.5778C17.9705 36.5778 18.4109 36.1375 18.4109 35.5944V33.408C20.7631 33.1767 22.6069 31.1879 22.6069 28.7759C22.6069 26.2091 20.5187 24.1209 17.9519 24.1209H16.903C15.4207 24.1209 14.2149 22.9151 14.2149 21.4328C14.2149 19.9506 15.4207 18.7447 16.903 18.7447H18.4764C19.6695 18.7447 20.6401 19.7153 20.6401 20.9083V21.9573C20.6401 22.5004 21.0804 22.9407 21.6235 22.9407Z" fill="#B51D09"></path><path d="M32.9786 48.1188C33.5217 48.1188 33.962 47.6785 33.962 47.1354V40.8413C33.962 40.2982 33.5217 39.8579 32.9786 39.8579H5.70439C5.16133 39.8579 4.72098 40.2982 4.72098 40.8413V46.152H3.60646C3.06339 46.152 2.62305 46.5923 2.62305 47.1354V53.4295C2.62305 53.9725 3.06339 54.4129 3.60646 54.4129H4.72098V58.74H3.60646C3.06339 58.74 2.62305 59.1803 2.62305 59.7234V66.0175C2.62305 66.5605 3.06339 67.0009 3.60646 67.0009H30.8807C31.4238 67.0009 31.8641 66.5605 31.8641 66.0175V60.7068H32.9786C33.5217 60.7068 33.962 60.2665 33.962 59.7234V53.4293C33.962 52.8863 33.5217 52.4459 32.9786 52.4459H31.8641V48.1188H32.9786ZM4.58973 52.4459V48.1188H29.8971V52.4459H4.58973ZM29.8971 65.0341H4.58973V60.7069H29.8971V65.0341ZM31.9952 54.4129V58.74H6.6878V54.4129H31.9952ZM6.6878 46.1519V41.8247H31.9952V46.1519H6.6878Z" fill="url(#paint1_linear)"></path><path d="M64.1581 18.1863L49.4719 0.35322C49.0845 -0.117089 48.3408 -0.117089 47.9535 0.35322L33.2674 18.1863C32.7491 18.8158 33.2128 19.795 34.0267 19.795H40.3863V50.2818C40.3863 50.8249 40.8266 51.2652 41.3697 51.2652H56.0558C56.5988 51.2652 57.0392 50.8249 57.0392 50.2818V46.1514C57.0392 45.6083 56.5988 45.168 56.0558 45.168C55.5127 45.168 55.0724 45.6083 55.0724 46.1514V49.2984H42.3532V18.8116C42.3532 18.2685 41.9129 17.8282 41.3698 17.8282H36.1107L48.7129 2.52549L61.315 17.8282H56.0559C55.5128 17.8282 55.0725 18.2685 55.0725 18.8116V41.4965C55.0725 42.0395 55.5128 42.4799 56.0559 42.4799C56.599 42.4799 57.0393 42.0395 57.0393 41.4965V19.795H63.3989C64.2125 19.795 64.6765 18.8159 64.1581 18.1863Z" fill="url(#paint2_linear)"></path><path d="M56.0563 54.543H41.3701C40.8271 54.543 40.3867 54.9907 40.3867 55.543C40.3867 56.0952 40.8271 56.543 41.3701 56.543H56.0562C56.5993 56.543 57.0396 56.0952 57.0396 55.543C57.0396 54.9907 56.5994 54.543 56.0563 54.543Z" fill="url(#paint3_linear)"></path><path d="M56.0563 58.543H41.3701C40.8271 58.543 40.3867 58.9907 40.3867 59.543C40.3867 60.0952 40.8271 60.543 41.3701 60.543H56.0562C56.5993 60.543 57.0396 60.0952 57.0396 59.543C57.0396 58.9907 56.5994 58.543 56.0563 58.543Z" fill="url(#paint4_linear)"></path><path d="M56.0563 62.543H41.3701C40.8271 62.543 40.3867 62.9907 40.3867 63.543C40.3867 64.0952 40.8271 64.543 41.3701 64.543H56.0562C56.5993 64.543 57.0396 64.0952 57.0396 63.543C57.0397 62.9907 56.5994 62.543 56.0563 62.543Z" fill="url(#paint5_linear)"></path></g><defs><linearGradient id="paint0_linear" x1="17.2426" y1="10.4844" x2="21.6948" y2="59.6745" gradientUnits="userSpaceOnUse"><stop stop-color="#0D386F"></stop><stop offset="1" stop-color="#072953"></stop></linearGradient><linearGradient id="paint1_linear" x1="18.2925" y1="39.8579" x2="21.8793" y2="85.6115" gradientUnits="userSpaceOnUse"><stop stop-color="#0D386F"></stop><stop offset="1" stop-color="#072953"></stop></linearGradient><linearGradient id="paint2_linear" x1="48.7128" y1="0.000488049" x2="61.314" y2="85.0796" gradientUnits="userSpaceOnUse"><stop stop-color="#0D386F"></stop><stop offset="1" stop-color="#072953"></stop></linearGradient><linearGradient id="paint3_linear" x1="48.7132" y1="54.543" x2="48.75" y2="57.9346" gradientUnits="userSpaceOnUse"><stop stop-color="#0D386F"></stop><stop offset="1" stop-color="#072953"></stop></linearGradient><linearGradient id="paint4_linear" x1="48.7132" y1="58.543" x2="48.75" y2="61.9346" gradientUnits="userSpaceOnUse"><stop stop-color="#0D386F"></stop><stop offset="1" stop-color="#072953"></stop></linearGradient><linearGradient id="paint5_linear" x1="48.7132" y1="62.543" x2="48.75" y2="65.9346" gradientUnits="userSpaceOnUse"><stop stop-color="#0D386F"></stop><stop offset="1" stop-color="#072953"></stop></linearGradient><clipPath id="clip0"><rect width="67" height="67" fill="white"></rect></clipPath></defs></svg> 