<?xml version="1.0" encoding="UTF-8"?> <svg xmlns="http://www.w3.org/2000/svg" width="67" height="67" viewBox="0 0 67 67" fill="none"><path d="M27.916 21.7752C27.916 24.8586 30.416 27.3586 33.4993 27.3586C36.5827 27.3586 39.0827 24.8586 39.0827 21.7752C39.0827 21.1586 38.5827 20.6586 37.966 20.6586C37.3493 20.6586 36.8493 21.1586 36.8493 21.7752C36.8493 23.6253 35.3494 25.1252 33.4993 25.1252C31.6493 25.1252 30.1493 23.6253 30.1493 21.7752C30.1493 19.9252 31.6493 18.4252 33.4993 18.4252C34.116 18.4252 34.616 17.9252 34.616 17.3086C34.616 16.6919 34.116 16.1919 33.4993 16.1919C30.416 16.1919 27.916 18.6919 27.916 21.7752Z" fill="#B51D09"></path><path d="M23.4507 39.6415H43.5507C44.1673 39.6415 44.6673 39.1415 44.6673 38.5249V5.02487C44.6673 4.40819 44.1673 3.9082 43.5507 3.9082H23.4507C22.834 3.9082 22.334 4.40819 22.334 5.02487V12.8415C22.334 13.4582 22.834 13.9582 23.4507 13.9582C24.0673 13.9582 24.5673 13.4582 24.5673 12.8415V11.6245C27.3743 11.1475 29.5732 8.94847 30.0503 6.14154H36.951C37.4281 8.94847 39.6271 11.1475 42.434 11.6245V31.9252C39.6271 32.4023 37.4281 34.6013 36.951 37.4082H30.0503C29.5732 34.6013 27.3743 32.4023 24.5673 31.9252V17.3082C24.5673 16.6915 24.0673 16.1915 23.4507 16.1915C22.834 16.1915 22.334 16.6915 22.334 17.3082V38.5249C22.334 39.1415 22.834 39.6415 23.4507 39.6415ZM24.5673 9.3465V6.14154H27.7723C27.3655 7.71294 26.1387 8.93974 24.5673 9.3465ZM39.229 6.14154H42.434V9.3465C40.8626 8.93974 39.6358 7.71294 39.229 6.14154ZM42.434 34.2032V37.4082H39.229C39.6358 35.8368 40.8626 34.61 42.434 34.2032ZM27.7723 37.4082H24.5673V34.2032C26.1387 34.61 27.3655 35.8368 27.7723 37.4082Z" fill="url(#paint0_linear)"></path><path d="M32.3828 30.7085V32.9418C32.3828 33.5585 32.8828 34.0585 33.4995 34.0585C34.1162 34.0585 34.6161 33.5585 34.6161 32.9418V30.7085C34.6161 30.0918 34.1162 29.5918 33.4995 29.5918C32.8828 29.5918 32.3828 30.0918 32.3828 30.7085Z" fill="url(#paint1_linear)"></path><path d="M34.6161 12.8417V10.6084C34.6161 9.99169 34.1162 9.4917 33.4995 9.4917C32.8828 9.4917 32.3828 9.99169 32.3828 10.6084V12.8417C32.3828 13.4584 32.8828 13.9584 33.4995 13.9584C34.1162 13.9584 34.6161 13.4584 34.6161 12.8417Z" fill="url(#paint2_linear)"></path><path d="M65.8833 51.9248H7.81667V24.0081C7.81667 22.1581 9.31664 20.6581 11.1667 20.6581H18.9833C19.6 20.6581 20.1 20.1581 20.1 19.5415C20.1 18.9248 19.6 18.4248 18.9833 18.4248H11.1667C8.08329 18.4248 5.58333 20.9248 5.58333 24.0081V51.9248H1.11667C0.499992 51.9248 0 52.4248 0 53.0415V57.5081C0 60.5915 2.49996 63.0915 5.58333 63.0915H61.4167C64.5 63.0915 67 60.5915 67 57.5081V53.0415C67 52.4248 66.5 51.9248 65.8833 51.9248ZM64.7667 57.5081C64.7667 59.3582 63.2667 60.8581 61.4167 60.8581H5.58333C3.73331 60.8581 2.23333 59.3582 2.23333 57.5081V54.1581H25.6833V57.5081C25.6833 58.1248 26.1833 58.6248 26.8 58.6248H40.2C40.8167 58.6248 41.3167 58.1248 41.3167 57.5081C41.3167 56.8915 40.8167 56.3915 40.2 56.3915H27.9167V54.1581H64.7667V57.5081Z" fill="url(#paint3_linear)"></path><path d="M48.0161 20.6581H55.8327C57.6828 20.6581 59.1827 22.1581 59.1827 24.0081V48.5748C59.1827 49.1915 59.6827 49.6915 60.2994 49.6915C60.9161 49.6915 61.4161 49.1915 61.4161 48.5748V24.0081C61.4161 20.9248 58.9161 18.4248 55.8327 18.4248H48.0161C47.3994 18.4248 46.8994 18.9248 46.8994 19.5415C46.8994 20.1581 47.3994 20.6581 48.0161 20.6581Z" fill="url(#paint4_linear)"></path><path d="M48.0167 38.1747V44.8747H18.9833V38.1747C19.6 38.1747 20.1 37.6747 20.1 37.0581C20.1 36.4414 19.6 35.9414 18.9833 35.9414H17.8667C17.25 35.9414 16.75 36.4414 16.75 37.0581V45.9914C16.75 46.6081 17.25 47.1081 17.8667 47.1081H49.1333C49.75 47.1081 50.25 46.6081 50.25 45.9914V37.0581C50.25 36.4414 49.75 35.9414 49.1333 35.9414H48.0167C47.4 35.9414 46.9 36.4414 46.9 37.0581C46.9 37.6747 47.4 38.1747 48.0167 38.1747Z" fill="url(#paint5_linear)"></path><defs><linearGradient id="paint0_linear" x1="33.5007" y1="3.9082" x2="42.0969" y2="63.2674" gradientUnits="userSpaceOnUse"><stop stop-color="#0D386F"></stop><stop offset="1" stop-color="#072953"></stop></linearGradient><linearGradient id="paint1_linear" x1="33.4995" y1="29.5918" x2="34.8273" y2="36.9269" gradientUnits="userSpaceOnUse"><stop stop-color="#0D386F"></stop><stop offset="1" stop-color="#072953"></stop></linearGradient><linearGradient id="paint2_linear" x1="33.4995" y1="9.4917" x2="34.8273" y2="16.8268" gradientUnits="userSpaceOnUse"><stop stop-color="#0D386F"></stop><stop offset="1" stop-color="#072953"></stop></linearGradient><linearGradient id="paint3_linear" x1="33.5" y1="18.4248" x2="38.0545" y2="93.9051" gradientUnits="userSpaceOnUse"><stop stop-color="#0D386F"></stop><stop offset="1" stop-color="#072953"></stop></linearGradient><linearGradient id="paint4_linear" x1="54.1577" y1="18.4248" x2="64.117" y2="69.5118" gradientUnits="userSpaceOnUse"><stop stop-color="#0D386F"></stop><stop offset="1" stop-color="#072953"></stop></linearGradient><linearGradient id="paint5_linear" x1="33.5" y1="35.9414" x2="34.0709" y2="54.863" gradientUnits="userSpaceOnUse"><stop stop-color="#0D386F"></stop><stop offset="1" stop-color="#072953"></stop></linearGradient></defs></svg> 