<?xml version="1.0" encoding="UTF-8"?> <svg xmlns="http://www.w3.org/2000/svg" width="67" height="67" viewBox="0 0 67 67" fill="none"><path d="M55.2889 35.4121C54.7504 35.4121 54.3139 35.8487 54.3139 36.3871C54.3139 37.0698 53.7585 37.6252 53.0758 37.6252C52.3933 37.6252 51.8378 37.0698 51.8378 36.3871C51.8378 35.8485 51.4012 35.4121 50.8627 35.4121C50.3242 35.4121 49.8877 35.8487 49.8877 36.3871C49.8877 38.1451 51.318 39.5753 53.0758 39.5753C54.8337 39.5753 56.264 38.145 56.264 36.3871C56.264 35.8484 55.8274 35.4121 55.2889 35.4121Z" fill="url(#paint0_linear)"></path><path d="M64.4409 35.5716L61.6965 34.6925C61.345 34.5798 61.068 34.2992 60.9556 33.9419C60.3772 32.1029 59.5044 30.3765 58.3613 28.8103C57.8404 28.0965 57.2611 27.4149 56.6282 26.7659C57.0331 24.9898 57.2532 22.9796 57.2247 21.243C57.1838 18.7586 56.6874 17.3015 55.707 16.788C55.1789 16.5111 53.572 15.67 44.8742 19.6515C44.6682 19.7457 44.4758 19.8618 44.2977 19.9947C43.7113 19.8372 43.112 19.6914 42.509 19.5606C42.4364 19.5447 42.3615 19.5307 42.2884 19.5153C42.9932 17.9756 43.4047 16.3033 43.4821 14.577C43.5062 14.0389 43.0896 13.5833 42.5515 13.5593C42.0149 13.5326 41.5578 13.9517 41.5339 14.4898C41.4068 17.3282 40.2293 19.9989 38.2185 22.0098C37.0171 23.2113 35.6104 24.084 34.1111 24.6336C31.5111 24.2687 28.8627 24.2687 26.2627 24.6336C24.7633 24.084 23.3567 23.2113 22.1553 22.0098C20.01 19.8645 18.8284 17.0122 18.8284 13.9782C18.8284 10.9441 20.01 8.09191 22.1553 5.9466C24.3006 3.80116 27.1531 2.61963 30.1869 2.61963C33.2207 2.61963 36.0732 3.80116 38.2185 5.9466C39.0806 6.8087 39.793 7.7925 40.336 8.87039C40.5782 9.35143 41.1646 9.5451 41.6455 9.30275C42.1265 9.06066 42.32 8.47428 42.0778 7.99337C41.4415 6.7294 40.607 5.57692 39.5977 4.56747C37.084 2.05379 33.7418 0.669434 30.187 0.669434C26.6322 0.669434 23.2901 2.05379 20.7764 4.56747C18.2627 7.08128 16.8784 10.4233 16.8784 13.9781C16.8784 17.5329 18.2627 20.875 20.7764 23.3887C21.5015 24.1138 22.2903 24.7373 23.1247 25.2597C23.1249 25.2597 23.1252 25.2596 23.1255 25.2596C22.5192 25.4172 21.9175 25.5941 21.3225 25.793C20.8117 25.9638 20.5362 26.5161 20.7069 27.027C20.8776 27.5377 21.4302 27.8133 21.9408 27.6427C27.2584 25.865 33.1157 25.865 38.4333 27.6427C38.5359 27.677 38.64 27.6932 38.7425 27.6932C39.1504 27.6932 39.5307 27.4351 39.6671 27.027C39.8379 26.5163 39.5623 25.9638 39.0516 25.793C38.4566 25.5941 37.8549 25.417 37.2486 25.2596C37.2489 25.2596 37.2491 25.2597 37.2494 25.2597C38.0839 24.7373 38.8726 24.1138 39.5977 23.3887C40.2391 22.7472 40.8054 22.0467 41.297 21.3023C41.5658 21.3545 41.8326 21.4092 42.0955 21.4663C42.4457 21.5423 42.7943 21.6239 43.1398 21.7097C43.1289 21.7521 43.1178 21.7943 43.1087 21.8374C42.6332 24.094 42.6641 26.0899 43.2005 27.7692C43.6826 29.2787 44.5526 30.5016 45.7863 31.4041C47.2402 32.4677 48.9956 32.9272 50.5857 32.9272C51.7824 32.9272 52.8856 32.6668 53.6959 32.2078C54.6125 31.6887 55.3803 30.5949 55.9882 28.9526C56.2691 29.2805 56.5354 29.6164 56.7864 29.9603C57.8041 31.3545 58.581 32.8911 59.0956 34.5271C59.3977 35.488 60.1478 36.2441 61.1019 36.5499L63.8463 37.429C64.5664 37.6597 65.0502 38.3225 65.0502 39.0786V43.6293C65.0502 44.3854 64.5664 45.0482 63.8463 45.2789L59.4247 46.6952C58.7173 46.9219 58.1186 47.4081 57.739 48.0642C56.0018 51.0664 53.2706 53.5508 49.6208 55.4483C49.1992 55.6678 48.9071 56.0602 48.8192 56.5253L47.403 64.0239C47.3639 64.2306 47.1829 64.3804 46.9726 64.3804H42.3681C42.1578 64.3804 41.9768 64.2304 41.9377 64.0239L41.1533 59.8798C40.9989 59.0644 40.2342 58.5228 39.411 58.6475C37.4276 58.9474 35.3839 59.0993 33.3368 59.0993C31.8139 59.0993 30.3104 59.0144 28.868 58.8468C28.0704 58.755 27.3274 59.2987 27.1783 60.0863L26.4329 64.0239C26.3938 64.2306 26.2128 64.3804 26.0025 64.3804H21.398C21.1877 64.3804 21.0067 64.2304 20.9671 64.0208L19.6035 56.9384C19.5157 56.4821 19.2291 56.0941 18.8168 55.8739C12.5952 52.5526 9.30672 47.0036 9.30672 39.8273C9.30672 36.2014 10.1 32.9952 11.6644 30.2974C13.1243 27.7798 15.2565 25.6982 18.0018 24.1103C18.4679 23.8406 18.6272 23.2441 18.3576 22.7779C18.088 22.3117 17.4916 22.1527 17.0253 22.4221C11.7021 25.5014 8.49146 30.2522 7.60751 36.2861V36.2859C7.51368 36.2774 7.41973 36.2693 7.32616 36.2597C7.34317 35.6086 7.2254 34.9517 6.96892 34.3142C6.40321 32.9079 5.24118 31.893 4.00835 31.7285C3.03685 31.5984 2.11233 32.0109 1.47073 32.8586C0.540449 34.0879 0.692115 35.0607 0.983016 35.6603C1.47413 36.6722 2.73653 37.388 4.83146 37.8381C4.77388 37.9243 4.71054 38.0109 4.64119 38.098C3.40339 39.6503 1.94509 39.9936 0.998195 40.0259C0.443875 40.0446 0 40.4897 0 41.0444V41.0491C0 41.5962 0.431705 42.0425 0.978305 42.0674C1.04831 42.0707 1.12146 42.0724 1.19763 42.0724C2.39577 42.0724 4.31875 41.6305 6.16622 39.3139C6.45791 38.9483 6.69555 38.5625 6.87823 38.1639C7.06222 38.1847 7.23901 38.2025 7.40834 38.2182C7.40834 38.2178 7.40834 38.2176 7.40847 38.2172C7.37523 38.7456 7.35678 39.2817 7.35678 39.8273C7.35678 43.8876 8.32475 47.5078 10.2336 50.5878C11.9937 53.4275 14.5136 55.7526 17.7259 57.5011L19.0516 64.3864C19.2647 65.5129 20.2515 66.3305 21.398 66.3305H26.0025C27.149 66.3305 28.1358 65.5129 28.349 64.3864L29.0229 60.826C30.4226 60.9743 31.8717 61.0494 33.3367 61.0494C35.3467 61.0494 37.3543 60.9094 39.3109 60.633L40.0214 64.3867C40.2347 65.5131 41.2215 66.3306 42.3678 66.3306H46.9724C48.1188 66.3306 49.1056 65.513 49.3189 64.3862L50.6978 57.0854C54.5932 55.0255 57.5294 52.3196 59.4266 49.0408C59.5634 48.8045 59.7739 48.6311 60.0194 48.5524L64.4409 47.1362C65.9716 46.6456 67 45.2363 67 43.629V39.0784C67 37.4711 65.9716 36.0619 64.4409 35.5716ZM55.1282 23.9831C54.7529 27.1925 53.7462 29.938 52.7346 30.5109C51.5849 31.1621 48.9304 31.2879 46.9374 29.83C44.9421 28.3704 44.278 25.7456 45.0167 22.2394C45.0167 22.2392 45.0167 22.2392 45.0167 22.2392C45.0909 21.8871 45.3411 21.5825 45.6859 21.4246C50.5675 19.1901 53.3819 18.4592 54.4274 18.4592C54.5852 18.4592 54.7028 18.4759 54.781 18.5065C55.0951 18.8412 55.507 20.744 55.1282 23.9831ZM2.73771 34.8088C2.63682 34.6007 2.87498 34.235 3.02599 34.0353C3.26533 33.7191 3.48583 33.6545 3.65242 33.6545C3.68762 33.6545 3.72046 33.6574 3.75056 33.6614C4.19888 33.7212 4.82701 34.2146 5.15979 35.0417C5.23817 35.2365 5.33998 35.559 5.36379 35.9613C4.01398 35.6816 2.96527 35.2785 2.73771 34.8088Z" fill="url(#paint1_linear)"></path><path d="M31.1336 12.8605V9.37123C32.3368 9.4572 32.7838 10.0072 33.1963 10.0072C33.712 10.0072 33.9527 9.35408 33.9527 9.02746C33.9527 8.18512 32.3024 7.82421 31.1336 7.78979V7.3255C31.1336 7.11927 30.8757 6.93018 30.6179 6.93018C30.3255 6.93018 30.1193 7.11927 30.1193 7.3255V7.82395C28.4863 7.99589 26.8533 8.85538 26.8533 11.0212C26.8533 13.2215 28.5723 13.8403 30.1193 14.3903V18.4298C28.3659 18.2923 27.9019 17.0891 27.3346 17.0891C26.9049 17.0891 26.5439 17.6563 26.5439 18.0689C26.5439 18.9111 27.9878 20.0628 30.1193 20.0972V20.6301C30.1193 20.8363 30.3257 21.0254 30.6179 21.0254C30.8758 21.0254 31.1336 20.8363 31.1336 20.6301V20.0457C32.9901 19.7878 34.262 18.6189 34.262 16.5046C34.262 14.167 32.629 13.4105 31.1336 12.8605ZM30.2224 12.534C29.3114 12.1902 28.5723 11.8293 28.5723 10.8495C28.5723 9.95565 29.2598 9.5259 30.2224 9.40564V12.534ZM31.0303 18.3954V14.7685C31.8725 15.1294 32.5429 15.6107 32.5429 16.6936C32.5429 17.6736 31.9585 18.2236 31.0303 18.3954Z" fill="#B51D09"></path><defs><linearGradient id="paint0_linear" x1="53.0758" y1="35.4121" x2="53.4916" y2="42.4483" gradientUnits="userSpaceOnUse"><stop stop-color="#0D386F"></stop><stop offset="1" stop-color="#072953"></stop></linearGradient><linearGradient id="paint1_linear" x1="33.5" y1="0.669433" x2="43.3009" y2="111.162" gradientUnits="userSpaceOnUse"><stop stop-color="#0D386F"></stop><stop offset="1" stop-color="#072953"></stop></linearGradient></defs></svg> 