<?xml version="1.0" encoding="UTF-8"?> <svg xmlns="http://www.w3.org/2000/svg" width="67" height="67" viewBox="0 0 67 67" fill="none"><g clip-path="url(#clip0)"><path d="M25.6876 8.94307C23.2212 8.94307 21.2217 6.9436 21.2217 4.47715C21.2217 2.01071 23.2212 0.0112305 25.6876 0.0112305C28.1541 0.0112305 30.1535 2.01071 30.1535 4.47715C30.1507 6.94234 28.1529 8.94028 25.6876 8.94307ZM25.6876 2.24419C24.4543 2.24419 23.4546 3.24386 23.4546 4.47715C23.4546 5.71044 24.4543 6.71011 25.6876 6.71011C26.9209 6.71011 27.9206 5.71044 27.9206 4.47715C27.9192 3.24442 26.9202 2.24559 25.6876 2.24419Z" fill="url(#paint0_linear)"></path><path d="M5.59092 29.0398C3.12448 29.0398 1.125 27.0403 1.125 24.5738C1.125 22.1074 3.12448 20.1079 5.59092 20.1079C8.05737 20.1079 10.0568 22.1074 10.0568 24.5738C10.0541 27.039 8.05625 29.037 5.59092 29.0398ZM5.59092 22.3409C4.35763 22.3409 3.35796 23.3405 3.35796 24.5738C3.35796 25.8071 4.35763 26.8068 5.59092 26.8068C6.82421 26.8068 7.82388 25.8071 7.82388 24.5738C7.82249 23.3411 6.82352 22.3423 5.59092 22.3409Z" fill="url(#paint1_linear)"></path><path d="M12.9864 16.3396C10.52 16.3396 8.52051 14.3401 8.52051 11.8736C8.52051 9.40719 10.52 7.40771 12.9864 7.40771C15.4529 7.40771 17.4524 9.40719 17.4524 11.8736C17.4496 14.3388 15.4518 16.3368 12.9864 16.3396ZM12.9864 9.64068C11.7531 9.64068 10.7535 10.6403 10.7535 11.8736C10.7535 13.1069 11.7531 14.1066 12.9864 14.1066C14.2197 14.1066 15.2194 13.1069 15.2194 11.8736C15.218 10.6409 14.219 9.64207 12.9864 9.64068Z" fill="url(#paint2_linear)"></path><path d="M32.9331 67C23.9419 67.0138 15.3125 63.4593 8.93966 57.1167V61.4176C8.93966 63.884 6.94018 65.8835 4.47373 65.8835C2.00729 65.8835 0.0078125 63.884 0.0078125 61.4176V41.3217C0.00795206 38.8553 2.00743 36.856 4.47401 36.8561C4.79961 36.8561 5.12436 36.8917 5.44214 36.9623L25.5388 41.4282C27.9509 41.9429 29.489 44.3157 28.9743 46.7279C28.4596 49.14 26.0868 50.6781 23.6747 50.1634C23.6503 50.1583 23.6258 50.1528 23.6014 50.1471L12.5977 47.7016C14.0314 49.6737 15.7414 51.4292 17.6751 52.9143C22.0504 56.2741 27.4169 58.0867 32.9331 58.0681C46.7909 58.0681 58.0648 46.8069 58.0648 32.9646C58.0834 27.426 56.2507 22.0401 52.8578 17.6624C49.5388 13.3677 44.9269 10.254 39.703 8.78079C37.3206 8.14244 35.9067 5.69358 36.5452 3.31115C37.1837 0.928723 39.6324 -0.48516 42.0148 0.153327C42.0434 0.161003 42.0721 0.168958 42.1007 0.177192C49.1808 2.17165 55.432 6.38971 59.9316 12.2087C71.3929 27.1098 68.6044 48.4808 53.7034 59.942C47.7484 64.5222 40.4456 67.0037 32.9331 67ZM7.82318 53.1474C8.15114 53.1474 8.46236 53.2915 8.67449 53.5416C20.0486 66.942 40.1325 68.5847 53.5329 57.2105C60.6522 51.1676 64.7585 42.3029 64.7637 32.9646C64.7864 25.9453 62.463 19.1198 58.1625 13.5722C53.9582 8.13407 48.117 4.19206 41.5008 2.32781C40.31 2.00752 39.0849 2.71342 38.7646 3.90428C38.4484 5.08008 39.1325 6.29244 40.3024 6.62975C45.9905 8.23316 51.0123 11.6229 54.6263 16.2988C58.3216 21.0665 60.3177 26.9324 60.2978 32.9646C60.2978 48.0381 48.0221 60.3011 32.9331 60.3011C26.9263 60.321 21.0828 58.3467 16.3189 54.6878C13.4405 52.4752 11.0238 49.7196 9.20594 46.577C8.89779 46.0429 9.08089 45.3602 9.61499 45.0519C9.85699 44.9123 10.1424 44.8684 10.4151 44.9291L24.086 47.9669C25.2877 48.2435 26.4863 47.4935 26.7629 46.2918C27.0395 45.09 26.2895 43.8915 25.0877 43.6149C25.0767 43.6123 25.0658 43.6098 25.0548 43.6076L4.95815 39.1417C3.7543 38.8741 2.56148 39.6332 2.29395 40.8371C2.25864 40.9963 2.24077 41.1589 2.24077 41.3219V61.4176C2.24077 62.6508 3.24044 63.6505 4.47373 63.6505C5.70703 63.6505 6.7067 62.6508 6.7067 61.4176V54.2637C6.7067 53.6471 7.2066 53.1472 7.82318 53.1472V53.1474Z" fill="url(#paint3_linear)"></path><path d="M32.0497 37.4482C31.6799 37.4482 31.3297 37.2757 31.1053 36.9782L28.0682 32.9653C27.9744 32.8414 27.9058 32.7002 27.8665 32.5497C27.8272 32.3993 27.818 32.2426 27.8393 32.0886C27.8606 31.9346 27.9121 31.7862 27.9907 31.6521C28.0694 31.518 28.1737 31.4007 28.2977 31.307C28.4217 31.2128 28.5631 31.144 28.7137 31.1046C28.8643 31.0652 29.0212 31.0558 29.1754 31.0772C29.3296 31.0985 29.4781 31.15 29.6124 31.2288C29.7466 31.3077 29.864 31.4122 29.9578 31.5365L31.9562 34.1749L36.9805 26.1067C37.1471 25.8403 37.4126 25.6508 37.7187 25.5799C38.0248 25.509 38.3466 25.5624 38.6134 25.7284C39.1684 26.0735 39.3393 26.8045 38.9925 27.3604L33.0561 36.8889C32.9547 37.0523 32.815 37.1885 32.6491 37.2857C32.4832 37.3828 32.2961 37.438 32.1041 37.4465C32.0854 37.4482 32.0684 37.4482 32.0497 37.4482Z" fill="#B51D09"></path></g><defs><linearGradient id="paint0_linear" x1="25.6876" y1="0.0112304" x2="27.0476" y2="15.0366" gradientUnits="userSpaceOnUse"><stop stop-color="#0D386F"></stop><stop offset="1" stop-color="#072953"></stop></linearGradient><linearGradient id="paint1_linear" x1="5.59092" y1="20.1079" x2="6.95089" y2="35.1333" gradientUnits="userSpaceOnUse"><stop stop-color="#0D386F"></stop><stop offset="1" stop-color="#072953"></stop></linearGradient><linearGradient id="paint2_linear" x1="12.9864" y1="7.40771" x2="14.3464" y2="22.4331" gradientUnits="userSpaceOnUse"><stop stop-color="#0D386F"></stop><stop offset="1" stop-color="#072953"></stop></linearGradient><linearGradient id="paint3_linear" x1="33.4995" y1="-3.03305e-07" x2="43.7034" y2="112.709" gradientUnits="userSpaceOnUse"><stop stop-color="#0D386F"></stop><stop offset="1" stop-color="#072953"></stop></linearGradient><clipPath id="clip0"><rect width="67" height="67" fill="white"></rect></clipPath></defs></svg> 