<?xml version="1.0" encoding="UTF-8"?> <svg xmlns="http://www.w3.org/2000/svg" width="78" height="89" viewBox="0 0 78 89" fill="none"><rect width="42" height="5.93333" rx="2.96667" fill="#E6E8E9"></rect><rect x="23.7969" y="83.0164" width="54.2034" height="5.88305" rx="2.94152" fill="#E6E8E9"></rect><rect x="11.8984" y="47.7181" width="18.5085" height="5.88305" rx="2.94153" fill="#2B5081"></rect><rect x="24.458" y="53.6012" width="18.3028" height="5.94915" rx="2.97458" transform="rotate(-90 24.458 53.6012)" fill="#2B5081"></rect><rect width="18.5085" height="5.88305" rx="2.94153" transform="matrix(-1 0 0 1 66.1016 47.7181)" fill="#2B5081"></rect><rect width="18.3028" height="5.94915" rx="2.97458" transform="matrix(0 -1 -1 0 53.542 53.6012)" fill="#2B5081"></rect><rect x="11.8984" y="23.5322" width="54.2034" height="5.88305" rx="2.94152" fill="#2B5081"></rect><rect x="41.9746" y="35.2983" width="31.3763" height="5.94915" rx="2.97458" transform="rotate(90 41.9746 35.2983)" fill="#2B5081"></rect><rect y="47.0645" width="5.94915" height="5.88305" rx="2.94152" fill="#A02424"></rect><rect x="72.0508" y="47.0645" width="5.94915" height="5.88305" rx="2.94152" fill="#A02424"></rect><rect x="35.6953" y="71.2502" width="5.94915" height="5.88305" rx="2.94152" fill="#A02424"></rect></svg> 