<?xml version="1.0" encoding="UTF-8"?> <svg xmlns="http://www.w3.org/2000/svg" width="26" height="30" viewBox="0 0 26 30" fill="none"><rect width="14" height="2" rx="1" fill="#E6E8E9"></rect><rect x="7.93262" y="27.9829" width="18.0678" height="1.98305" rx="0.991526" fill="#E6E8E9"></rect><rect x="3.96582" y="16.085" width="6.16949" height="1.98305" rx="0.991527" fill="#2B5081"></rect><rect x="8.15234" y="18.0679" width="6.16949" height="1.98305" rx="0.991525" transform="rotate(-90 8.15234 18.0679)" fill="#2B5081"></rect><rect width="6.16949" height="1.98305" rx="0.991527" transform="matrix(-1 0 0 1 22.0342 16.085)" fill="#2B5081"></rect><rect width="6.16949" height="1.98305" rx="0.991527" transform="matrix(0 -1 -1 0 17.8477 18.0679)" fill="#2B5081"></rect><rect x="3.96582" y="7.93213" width="18.0678" height="1.98305" rx="0.991525" fill="#2B5081"></rect><rect x="13.9912" y="11.8984" width="10.5763" height="1.98305" rx="0.991526" transform="rotate(90 13.9912 11.8984)" fill="#2B5081"></rect><rect y="15.8643" width="1.98305" height="1.98305" rx="0.991525" fill="#A02424"></rect><rect x="24.0166" y="15.8643" width="1.98305" height="1.98305" rx="0.991525" fill="#A02424"></rect><rect x="11.8984" y="24.0171" width="1.98305" height="1.98305" rx="0.991525" fill="#A02424"></rect></svg> 