<?xml version="1.0" encoding="UTF-8"?> <svg xmlns="http://www.w3.org/2000/svg" width="67" height="67" viewBox="0 0 67 67" fill="none"><path d="M59.7266 34.4089C56.8793 31.5743 53.5877 34.2273 53.5877 34.2273V19.3055C53.5877 18.8044 53.1816 18.3978 52.6805 18.3978C52.1789 18.3978 51.7729 18.8044 51.7729 19.3055V35.5042C51.7729 35.5042 47.445 38.9159 45.5848 39.7498V12.8824C45.5848 11.6335 46.6007 10.6176 47.8496 10.6176H49.508C50.757 10.6176 51.7729 11.6335 51.7729 12.8824V20.2691C51.7729 20.7707 52.1789 20.8638 52.6805 20.8638C53.1816 20.8638 53.5877 21.5017 53.5877 21.0001V12.8824C53.5877 10.6327 51.7577 8.80273 49.508 8.80273H47.8496C45.5999 8.80273 43.7695 10.6327 43.7695 12.8824V40.4693C43.2282 40.6211 42.6727 40.7241 42.1083 40.7785V21.6436C42.1083 19.3825 40.2689 17.5431 38.0083 17.5431H36.3901C34.1295 17.5431 32.2901 19.3825 32.2901 21.6436V30.8912L30.6284 31.7734V28.6959C30.6284 26.6603 28.9724 25.0043 26.9373 25.0043H24.5018C22.4662 25.0043 20.8107 26.6603 20.8107 28.6959V36.9848L17.8471 38.5576L9.52507 40.9359C8.07708 41.3495 6.86783 42.2979 6.12091 43.6054C5.37352 44.9135 5.17071 46.4366 5.54985 47.8941L6.48066 51.4755C6.60641 51.9605 7.10183 52.2513 7.58733 52.1255C8.07236 51.9993 8.36356 51.5039 8.23734 51.0184L7.30653 47.4374C6.76667 45.3602 7.96032 43.2707 10.0243 42.6812L17.6329 40.5067L23.3516 55.7694C23.7345 56.7914 23.674 59.7072 20.649 60.7818L14.8991 62.0879C12.8952 62.5427 10.9206 61.3415 10.4034 59.3522L9.23623 54.8608C9.11001 54.3757 8.61458 54.0845 8.12956 54.2103C7.64406 54.3365 7.35333 54.8319 7.47908 55.3174L8.64673 59.8093C9.30288 62.3328 11.5446 64.0001 14.0402 64.0001C15.8739 64.0001 21.0513 62.5517 21.0513 62.5517C22.6269 62.1943 23.9704 61.1732 24.7367 59.7512C25.3692 58.5779 25.5569 57.2277 25.2856 55.9414L45.1782 51.0713C46.8233 50.6681 48.3852 49.8867 49.6938 48.8112L59.3744 40.857C62.3257 38.2394 60.5946 35.2725 59.7266 34.4089ZM36.3901 19.3584H38.0083C39.2681 19.3584 40.293 20.3838 40.293 21.6436V40.8239L34.5658 40.8215C34.0396 40.8168 34.4037 40.4693 34.4325 40.4457L36.0819 39.1097C37.6206 37.8631 38.6256 36.1301 39.0686 33.9579C39.3499 32.5799 38.8242 31.2004 37.6977 30.358C36.6454 29.5714 35.2919 29.4201 34.1054 29.9401V21.6436C34.1054 20.3838 35.1303 19.3584 36.3901 19.3584ZM22.626 28.6959C22.626 27.6615 23.4674 26.8196 24.5018 26.8196H26.9373C27.9716 26.8196 28.8136 27.6615 28.8136 28.6959V32.7368L22.6255 36.0214L22.626 28.6959ZM58.2224 39.4548L48.5412 47.4091C47.4417 48.3129 46.1294 48.9696 44.7466 49.308L24.7074 54.2145L19.3182 39.8325L34.7057 31.6646C35.3312 31.3323 36.0436 31.3876 36.6104 31.8117C37.1772 32.2357 37.4315 32.9023 37.2902 33.5953C36.9333 35.3439 36.1424 36.7248 34.9393 37.6991L33.2899 39.0355C32.6139 39.5829 32.3648 40.4665 32.655 41.2867C32.9453 42.1064 33.695 42.6368 34.5649 42.6368L41.1779 42.6396H41.1827C43.5369 42.6396 45.7994 41.9239 47.7253 40.5695L55.116 35.3723C56.1509 34.6443 57.544 34.7729 58.428 35.6777C58.9371 36.1977 59.9337 37.7431 58.2224 39.4548Z" fill="url(#paint0_linear)"></path><path d="M19.8752 56.3507C19.8752 54.3789 18.2712 52.7744 16.2994 52.7744C14.3276 52.7744 12.7236 54.3789 12.7236 56.3507C12.7236 58.322 14.3276 59.9264 16.2994 59.9264C18.2712 59.9264 19.8752 58.322 19.8752 56.3507ZM14.5389 56.3507C14.5389 55.3797 15.3284 54.5897 16.2994 54.5897C17.2699 54.5897 18.0599 55.3797 18.0599 56.3507C18.0599 57.3212 17.2704 58.1111 16.2994 58.1111C15.3284 58.1111 14.5389 57.3212 14.5389 56.3507Z" fill="#B51D09"></path><path d="M9.77239 30.5359L22.9664 17.2403L25.9342 18.7752C26.9974 19.325 28.2913 19.1369 29.1536 18.3068L36.3353 11.3935C36.3353 11.3935 36.1377 16.3726 39.1278 16.3726C40.667 16.3726 41.9197 13.6915 41.9197 12.1518C41.9197 10.6121 41.9197 4.83005 41.9197 4.83005C41.9197 4.82155 41.9193 4.81256 41.9193 4.80358C41.9193 4.02177 41.922 3.097 41.9239 2.53957C41.9249 2.26262 41.7005 2.03807 41.4236 2.03806C40.7316 2.03805 40.2502 2.03809 39.1278 2.03809C36.9764 2.03809 33.7398 2.03809 31.8699 2.03809C30 2.03809 26.7686 3.26436 26.7686 4.80358C26.7686 7.87257 32.2013 7.62202 32.2013 7.62202L26.7223 12.8958L23.7114 11.3387C22.6227 10.7752 21.3109 10.9817 20.4467 11.8516L5.80899 26.6023C4.72453 27.6953 4.73115 29.4666 5.82411 30.5511C6.35074 31.0734 8.14902 32.1593 9.77239 30.5359ZM7.09719 27.8811L21.7349 13.1303C21.924 12.9403 22.2275 12.6075 22.8775 12.9512L26.4661 14.8071C26.8116 14.9858 27.2324 14.9248 27.5127 14.6549L35.0821 7.36864C35.3487 7.11194 35.4329 6.71863 35.2944 6.37542C35.1559 6.03175 34.8231 5.8072 34.4524 5.8072H31.8699C31.3314 5.8072 29.1536 5.38788 29.1536 4.84896C29.1536 4.31052 31.3314 3.85339 31.8699 3.85339H39.1278C39.3949 3.85339 40.104 3.85339 40.104 4.82438C40.104 4.83242 40.1044 4.84046 40.1044 4.84896V12.1518C40.1044 12.6902 39.6662 14.6549 39.1278 14.6549C38.5889 14.6549 38.1506 12.6902 38.1506 12.1518V9.26005C38.1506 8.89604 37.9332 8.56702 37.5985 8.42473C37.2638 8.28196 36.8761 8.35382 36.6138 8.60626L27.8947 16.9992C27.5931 17.2894 27.1402 17.3556 26.7686 17.1632L23.2089 15.3219C22.8567 15.1399 22.427 15.2075 22.1476 15.4888L8.48419 29.2572C7.88855 29.8528 7.28675 29.4453 7.10239 29.2624C6.72042 28.8828 6.71806 28.263 7.09719 27.8811Z" fill="url(#paint1_linear)"></path><defs><linearGradient id="paint0_linear" x1="33.1946" y1="8.80273" x2="41.5299" y2="101.67" gradientUnits="userSpaceOnUse"><stop stop-color="#0D386F"></stop><stop offset="1" stop-color="#072953"></stop></linearGradient><linearGradient id="paint1_linear" x1="23.4629" y1="2.03809" x2="27.0268" y2="51.5682" gradientUnits="userSpaceOnUse"><stop stop-color="#0D386F"></stop><stop offset="1" stop-color="#072953"></stop></linearGradient></defs></svg> 