<?xml version="1.0" encoding="UTF-8"?> <svg xmlns="http://www.w3.org/2000/svg" width="67" height="67" viewBox="0 0 67 67" fill="none"><g clip-path="url(#clip0)"><path d="M59.8409 8.16644C51.6479 7.82542 40.6991 5.77681 34.9566 0.562828C34.5569 0.199823 34.0399 0 33.5006 0C32.9615 0 32.4444 0.199823 32.0447 0.562698C27.3688 4.80858 17.8334 7.72217 7.16009 8.16644C5.99478 8.21499 5.08203 9.16595 5.08203 10.3314V23.8995C5.08203 24.4415 5.52133 24.8809 6.06348 24.8809C6.60563 24.8809 7.04493 24.4415 7.04493 23.8995V10.3314C7.04493 10.2217 7.1313 10.1323 7.24161 10.1276C18.522 9.65811 28.2874 6.6257 33.3641 2.0159C33.4424 1.94497 33.5591 1.9451 33.6368 2.0159C39.815 7.62534 51.3151 9.77602 59.7594 10.1276C59.8697 10.1322 59.956 10.2217 59.956 10.3314V32.7396C59.956 43.6246 54.0741 53.7222 44.6055 59.0916L34.66 64.7315C33.954 65.132 33.0468 65.1318 32.3408 64.7315L22.3953 59.0916C12.9268 53.7222 7.04493 43.6246 7.04493 32.7396V28.4796C7.04493 27.9375 6.60563 27.4981 6.06348 27.4981C5.52133 27.4981 5.08203 27.9375 5.08203 28.4796V32.7396C5.08203 44.33 11.3451 55.0817 21.4272 60.7991L31.3727 66.439C32.6878 67.1848 34.3046 67.1895 35.6283 66.439L45.5737 60.7991C55.6558 55.0818 61.9189 44.33 61.9189 32.7396V10.3314C61.9189 9.16582 61.0062 8.21486 59.8409 8.16644Z" fill="url(#paint0_linear)"></path><path d="M23.9993 49.0698H37.2454C37.7302 49.0698 38.1231 48.6769 38.1231 48.1922C38.1231 47.7075 37.7302 47.3145 37.2454 47.3145H23.9993C23.3133 47.3145 22.7552 46.7564 22.7552 46.0704V32.2202C22.7552 31.5342 23.3133 30.9762 23.9993 30.9762H43.3306C44.0166 30.9762 44.5747 31.5342 44.5747 32.2202V46.0704C44.5747 46.7564 44.0166 47.3145 43.3306 47.3145H41.3412C40.8564 47.3145 40.4635 47.7075 40.4635 48.1922C40.4635 48.6769 40.8564 49.0698 41.3412 49.0698H43.3306C44.9845 49.0698 46.33 47.7243 46.33 46.0704V32.2202C46.33 30.5663 44.9845 29.2208 43.3306 29.2208H43.0349V27.37C43.0349 22.2033 38.8315 18 33.665 18C28.4985 18 24.2951 22.2033 24.2951 27.37V29.2208H23.9994C22.3455 29.2208 21 30.5663 21 32.2202V46.0704C21 47.7243 22.3455 49.0698 23.9993 49.0698ZM37.9437 29.2208H29.3864V27.37C29.3864 25.0107 31.3058 23.0913 33.6651 23.0913C36.0244 23.0913 37.9438 25.0107 37.9438 27.37V29.2208H37.9437ZM26.0505 27.37C26.0505 23.1713 29.4663 19.7553 33.665 19.7553C37.8637 19.7553 41.2795 23.1712 41.2795 27.37V29.2208H39.6989V27.37C39.6989 24.0428 36.9921 21.336 33.6649 21.336C30.3377 21.336 27.6308 24.0428 27.6308 27.37V29.2208H26.0505V27.37Z" fill="url(#paint1_linear)"></path><path d="M33.405 44.8315C34.555 44.8315 35.4907 43.8959 35.4907 42.7457V40.0954C36.3139 39.4554 36.81 38.4608 36.81 37.405C36.81 35.5275 35.2825 34 33.405 34C31.5275 34 30 35.5275 30 37.405C30 38.4812 30.4972 39.4581 31.3193 40.0956V42.7457C31.3193 43.8958 32.255 44.8315 33.405 44.8315ZM33.405 35.5173C34.4459 35.5173 35.2928 36.3642 35.2928 37.4051C35.2928 38.0751 34.932 38.7009 34.351 39.0383C34.1173 39.1741 33.9735 39.424 33.9735 39.6943V42.7457C33.9735 43.0592 33.7186 43.3143 33.405 43.3143C33.0914 43.3143 32.8365 43.0593 32.8365 42.7457V39.6943C32.8365 39.424 32.6926 39.1741 32.459 39.0383C31.8972 38.712 31.5172 38.1066 31.5172 37.4051C31.5172 36.3641 32.3641 35.5173 33.405 35.5173Z" fill="#B51D09"></path><path d="M24.0068 56.4739L32.4751 61.2761C33.1072 61.6348 33.8929 61.6352 34.5255 61.2762L42.994 56.4739C51.5392 51.6282 56.8474 42.5155 56.8474 32.6921V14.9684C56.8474 13.9123 56.0564 13.025 55.0075 12.9048C46.8413 11.9682 39.779 9.78848 34.5842 6.60099C33.9156 6.19088 33.0851 6.19101 32.4169 6.60099C27.2219 9.78848 20.1594 11.9682 11.9932 12.9048C10.9444 13.025 10.1533 13.9121 10.1533 14.9684V32.6921C10.1535 42.5155 15.4617 51.628 24.0068 56.4739ZM12.1163 14.9684C12.1163 14.9103 12.1595 14.8615 12.217 14.8548C20.6658 13.886 28.0059 11.6103 33.4436 8.27404C33.4788 8.25231 33.5228 8.25245 33.5577 8.27404C38.9951 11.6103 46.335 13.886 54.784 14.8548C54.8413 14.8614 54.8846 14.9102 54.8846 14.9683V32.692C54.8846 41.81 49.9575 50.2684 42.0259 54.7663L33.5571 59.5687C33.5219 59.5886 33.4787 59.5885 33.4436 59.5686L24.975 54.7663C17.0436 50.2684 12.1163 41.81 12.1163 32.692V14.9684Z" fill="url(#paint2_linear)"></path></g><defs><linearGradient id="paint0_linear" x1="33.5005" y1="-3.03306e-07" x2="45.4881" y2="112.354" gradientUnits="userSpaceOnUse"><stop stop-color="#0D386F"></stop><stop offset="1" stop-color="#072953"></stop></linearGradient><linearGradient id="paint1_linear" x1="33.665" y1="18" x2="39.444" y2="70.0532" gradientUnits="userSpaceOnUse"><stop stop-color="#0D386F"></stop><stop offset="1" stop-color="#072953"></stop></linearGradient><linearGradient id="paint2_linear" x1="33.5004" y1="6.29346" x2="43.4225" y2="98.9384" gradientUnits="userSpaceOnUse"><stop stop-color="#0D386F"></stop><stop offset="1" stop-color="#072953"></stop></linearGradient><clipPath id="clip0"><rect width="67" height="67" fill="white"></rect></clipPath></defs></svg> 