<?xml version="1.0" encoding="UTF-8"?> <svg xmlns="http://www.w3.org/2000/svg" width="100" height="100" viewBox="0 0 100 100" fill="none"><path d="M50 6.47214L59.3236 35.1672L59.7726 36.5491H61.2257H91.3975L66.988 54.2837L65.8124 55.1378L66.2615 56.5197L75.585 85.2148L51.1756 67.4803L50 66.6262L48.8244 67.4803L24.415 85.2148L33.7385 56.5197L34.1876 55.1378L33.012 54.2837L8.60254 36.5491H38.7743H40.2274L40.6764 35.1672L50 6.47214Z" fill="#F1F3F5" stroke="#E8EBF0" stroke-width="4"></path><path d="M74.5 26L77.5309 35.3283H87.3393L79.4042 41.0935L82.4351 50.4217L74.5 44.6565L66.5649 50.4217L69.5958 41.0935L61.6607 35.3283H71.4691L74.5 26Z" fill="url(#paint0_linear)"></path><defs><linearGradient id="paint0_linear" x1="59.9468" y1="53" x2="110.459" y2="54.5831" gradientUnits="userSpaceOnUse"><stop stop-color="#A02424"></stop><stop offset="1" stop-color="#D8561E"></stop></linearGradient></defs></svg> 