<?xml version="1.0" encoding="UTF-8"?> <svg xmlns="http://www.w3.org/2000/svg" width="115" height="38" viewBox="0 0 115 38" fill="none"><path d="M20.911 18.568L19.331 15.545L20.911 12.523H24.071L25.65 15.546L24.07 18.567H20.911V18.568ZM20.911 27.204L19.331 23.964L20.911 20.727H24.071L25.65 23.964L24.07 27.204H20.911ZM20.911 9.932L19.331 6.91L20.911 3.886H24.071L25.65 6.91L24.07 9.932H20.911ZM7.9 18.568L6.32 15.545L7.9 12.523H11.06L12.64 15.546L11.06 18.568H7.9ZM7.9 27.204L6.32 23.964L7.9 20.727H11.06L12.64 23.965L11.06 27.205H7.9V27.204ZM7.9 9.932L6.32 6.909L7.9 3.886H11.06L12.64 6.909L11.06 9.932H7.9ZM27.51 14.25L26.021 11.014L27.509 7.773H30.483L31.969 11.013L30.483 14.25H27.509H27.51ZM27.51 22.454L26.021 19.432L27.509 16.409H30.483L31.969 19.432L30.483 22.455H27.509L27.51 22.454ZM1.488 22.454L0 19.433L1.487 16.41H4.461L5.948 19.433L4.461 22.456H1.488V22.454ZM1.488 14.25L0 11.011L1.487 7.773H4.461L5.95 11.01L4.462 14.25H1.488ZM14.498 14.682L13.011 11.659L14.498 8.636H17.472L18.959 11.659L17.473 14.682H14.498ZM14.5 22.886L13.011 19.864L14.499 16.841H17.473L18.959 19.864L17.473 22.886H14.499H14.5ZM14.498 6.045L13.01 3.023L14.498 0H17.472L18.959 3.023L17.473 6.045H14.498ZM17.84 35.978C17.71 32.908 16.382 32.088 16.619 27.553C16.669 26.555 17.625 26.056 16.132 25.515C15.24 25.192 14.728 27.035 14.569 28.112C14.162 30.866 14.631 33.62 14.148 36.389C13.793 38.367 17.963 38.844 17.841 35.978H17.84ZM43.245 22.807L43.472 22.994L43.245 24.684C42.5372 25.1079 41.7481 25.3781 40.929 25.477C39.047 25.131 38.256 24.037 38.256 21.962L38.346 20.041L38.321 14.902H36.891L36.801 14.744L36.912 13.183H38.297V11.262L40.357 10.364L40.563 10.575L40.517 13.192H43.401L43.492 13.38L43.377 14.912H40.452L40.34 21.539C40.32 22.859 40.728 23.282 41.655 23.282C42.2177 23.267 42.7663 23.1031 43.245 22.807ZM52.041 12.601V15.226L51.767 15.309C51.4747 15.2207 51.1713 15.1745 50.866 15.172C49.848 15.172 48.983 15.929 48.114 17.796L48.092 19.58L48.267 25.046H45.722L45.898 19.826L45.749 12.768L48.154 12.523L48.127 15.01H48.303C49.245 13.142 50.433 12.552 51.425 12.552C51.631 12.554 51.837 12.571 52.042 12.602L52.041 12.601ZM55.119 19.099C55.169 21.787 56.211 23.336 58.396 23.336C59.6023 23.2788 60.768 22.8823 61.759 22.192L61.98 22.355L61.682 24.555C60.6138 25.1398 59.4196 25.4562 58.202 25.477C54.776 25.477 52.785 23.011 52.785 19.064C52.785 14.989 54.947 12.523 58.275 12.523C60.933 12.523 62.45 14.343 62.45 17.328C62.443 17.782 62.41 18.235 62.35 18.684L61.926 19.118H55.12V19.098L55.119 19.099ZM60.189 16.963C60.189 15.196 59.367 14.413 58.125 14.413C56.608 14.413 55.593 15.497 55.245 17.426L60.139 17.293L60.189 16.963ZM65.899 19.094C65.949 21.782 66.991 23.331 69.18 23.331C70.3828 23.2733 71.5452 22.8783 72.534 22.191L72.756 22.355L72.458 24.555C71.391 25.139 70.1982 25.4554 68.982 25.477C65.552 25.477 63.565 23.011 63.565 19.064C63.565 14.989 65.727 12.523 69.054 12.523C71.713 12.523 73.229 14.343 73.229 17.328C73.223 17.782 73.19 18.235 73.13 18.684L72.706 19.118H65.899V19.094ZM70.968 16.958C70.968 15.192 70.146 14.408 68.905 14.408C67.388 14.408 66.373 15.493 66.025 17.421L70.918 17.288L70.968 16.958ZM88.769 16.912C88.795 15.571 88.219 14.737 87.063 14.737C86.103 14.737 85.165 15.297 84.227 16.292L84.179 19.618L84.275 25.041H81.828L81.998 16.907C82.02 15.566 81.444 14.732 80.292 14.732C79.332 14.732 78.347 15.322 77.413 16.341L77.391 19.613L77.514 25.036H75.088L75.245 19.866L75.127 12.864L77.457 12.62L77.427 14.43H77.597C78.4239 13.5785 79.4337 12.9264 80.55 12.523C82.351 12.523 83.525 13.249 84.01 14.537H84.153C85.071 13.623 86.153 12.937 87.325 12.523C89.798 12.523 91.072 13.839 91.045 16.146L90.95 19.623L91.072 25.045H88.598L88.768 16.911L88.769 16.912ZM96.641 8.384C96.654 8.59 96.635 8.796 96.584 8.991C96.5362 9.17791 96.4553 9.35472 96.345 9.513C96.239 9.663 96.11 9.78 95.968 9.859C95.8309 9.93628 95.6753 9.97434 95.518 9.969C95.3664 9.98458 95.2135 9.95574 95.078 9.886C94.93 9.80917 94.8024 9.69809 94.706 9.562C94.5974 9.40976 94.5183 9.23845 94.473 9.057C94.4237 8.86447 94.4068 8.66508 94.423 8.467C94.4126 8.26133 94.4356 8.05534 94.491 7.857C94.5417 7.66979 94.6265 7.49352 94.741 7.337C94.8431 7.19709 94.9762 7.08276 95.13 7.003C95.2709 6.93088 95.4292 6.8997 95.587 6.913C95.7346 6.89961 95.8828 6.92913 96.014 6.998C96.149 7.068 96.272 7.178 96.372 7.318C96.472 7.458 96.549 7.628 96.596 7.811C96.642 7.996 96.658 8.191 96.641 8.384ZM96.539 25.045H94.493L94.638 19.869L94.518 12.869L96.568 12.625L96.408 19.63L96.539 25.045ZM102.576 25.045H100.365L100.518 19.794L100.389 6.262L102.595 6.045L102.422 19.548L102.576 25.045ZM109.773 22.403H109.965L112.319 14.621L112.681 12.608H114.862L111.094 24.708C110.061 28.058 108.456 29.738 105.425 30.659H105.211C104.744 30.1407 104.363 29.5513 104.082 28.913L104.156 28.607C106.411 28.103 107.758 27.193 108.787 25.367L104.732 12.659L107.108 12.523L107.47 14.323L109.773 22.403Z" fill="#195D32"></path></svg> 