<?xml version="1.0" encoding="UTF-8"?> <svg xmlns="http://www.w3.org/2000/svg" width="76" height="76" viewBox="0 0 76 76" fill="none"><path d="M38 6.47214L44.6294 26.8754L45.0784 28.2574H46.5315H67.9848L50.6287 40.8673L49.4532 41.7214L49.9022 43.1033L56.5316 63.5066L39.1756 50.8967L38 50.0426L36.8244 50.8967L19.4684 63.5066L26.0978 43.1033L26.5468 41.7214L25.3713 40.8673L8.01522 28.2574H29.4685H30.9216L31.3706 26.8754L38 6.47214Z" fill="#F1F3F5" stroke="#E8EBF0" stroke-width="4"></path><path d="M56.6194 19.7598L58.9229 26.8493H66.3772L60.3465 31.2308L62.65 38.3203L56.6194 33.9387L50.5887 38.3203L52.8922 31.2308L46.8615 26.8493H54.3159L56.6194 19.7598Z" fill="url(#paint0_linear_3604_18462)"></path><defs><linearGradient id="paint0_linear_3604_18462" x1="45.5589" y1="40.2798" x2="83.9479" y2="41.4829" gradientUnits="userSpaceOnUse"><stop stop-color="#A02424"></stop><stop offset="1" stop-color="#D8561E"></stop></linearGradient></defs></svg> 