<?xml version="1.0" encoding="UTF-8"?> <svg xmlns="http://www.w3.org/2000/svg" width="26" height="30" viewBox="0 0 26 30" fill="none"><rect x="16.085" width="9.91525" height="1.98305" rx="0.991525" fill="#E6E8E9"></rect><rect y="27.9829" width="9.91525" height="1.98305" rx="0.991526" fill="#E6E8E9"></rect><rect y="7.93213" width="14.1017" height="1.98305" rx="0.991525" fill="#2B5081"></rect><rect x="8.81738" y="3.61133" width="7.84262" height="1.98305" rx="0.991525" transform="rotate(40.7547 8.81738 3.61133)" fill="#2B5081"></rect><rect width="7.84262" height="1.98305" rx="0.991526" transform="matrix(0.757511 -0.652822 -0.652822 -0.757511 8.81738 14.146)" fill="#2B5081"></rect><rect width="14.1017" height="1.98305" rx="0.991526" transform="matrix(-1 0 0 1 26 20.271)" fill="#2B5081"></rect><rect width="7.84262" height="1.98305" rx="0.991526" transform="matrix(-0.757511 0.652822 0.652822 0.757511 17.1826 15.9502)" fill="#2B5081"></rect><rect width="7.84262" height="1.98305" rx="0.991525" transform="matrix(-0.757512 -0.652822 0.652822 -0.757511 17.1826 26.4849)" fill="#2B5081"></rect><rect width="1.98305" height="1.98305" rx="0.991526" transform="matrix(-1 0 0 1 9.91504 20.0508)" fill="#A02424"></rect><rect width="1.98305" height="1.98305" rx="0.991525" transform="matrix(-1 0 0 1 18.0674 7.93213)" fill="#A02424"></rect></svg> 