<?xml version="1.0" encoding="UTF-8"?> <svg xmlns="http://www.w3.org/2000/svg" width="220" height="88" viewBox="0 0 220 88" fill="none"><g clip-path="url(#clip0)"><path d="M153.324 45.7419C155.45 44.8331 156.817 43.4699 157.729 41.8796C158.412 40.5921 158.412 38.6988 157.957 37.4871C156.741 34.4579 154.995 31.5044 153.704 29.8383C152.261 27.945 151.274 26.5818 149.375 25.0672C146.793 22.9467 143.148 22.9467 142.237 23.4768C141.781 23.8555 132.365 40.6679 130.846 42.031C130.314 42.4854 127.884 44.303 126.897 43.7729C125.378 42.9398 125.834 40.062 128.492 36.1997C129.251 35.0637 130.846 33.1704 131.605 32.0345C133.731 28.7023 131.225 25.2944 128.492 24.84C127.732 24.6885 124.011 24.3856 120.67 25.4458C120.442 25.5216 120.214 25.5973 120.062 25.673C119.606 25.8245 119.151 25.976 118.695 26.2031C117.784 26.5818 116.949 27.0362 116.113 27.4906C113.455 24.5371 109.051 24.7642 106.241 25.673C105.861 25.8245 105.482 25.9002 105.102 26.0517C104.722 26.2031 103.659 26.809 103.583 26.8847C102.368 25.9002 101.077 24.9157 99.4822 24.84C97.1281 24.6128 94.698 24.9914 94.698 24.9914C94.698 24.9914 94.0905 27.2634 94.5461 27.5663C95.0777 28.0207 96.3687 28.8537 96.5205 29.6111C96.9762 31.1257 95.7611 34.3821 93.7107 37.1842C92.0401 39.4562 89.9897 41.7281 86.3445 42.1068C84.9016 42.2582 82.7753 41.9553 81.94 40.6679C81.7121 40.5164 83.5347 38.7746 84.6738 37.5629C86.2686 35.821 82.3956 35.4424 82.0159 35.8968C74.6497 45.0603 64.8533 47.0293 61.5119 45.3632C58.1705 43.6971 72.2955 26.6575 83.9903 28.6266C84.5219 29.8383 84.3701 31.8073 84.2182 32.2617C84.1422 32.6403 85.8129 32.9432 86.2686 32.7918C88.3949 31.4286 89.4581 26.7333 88.9265 24.6128C88.1671 21.6593 77.6113 22.2651 70.0173 26.0517C58.9299 31.5044 48.2983 43.167 52.0953 47.105C55.057 50.1343 66.5999 49.6042 70.7767 48.241C74.194 47.105 77.7632 44.6059 78.2189 44.4544C79.7377 46.1205 83.155 48.7711 86.3445 48.8469C89.9897 48.9226 91.5844 47.4837 93.1792 46.1963C95.3814 44.4544 96.9762 41.9553 98.4191 39.6076C99.9379 37.0328 100.014 35.821 101.457 33.019C102.824 32.1102 113.152 29.6868 110.038 36.5026C108.064 40.8193 105.633 44.303 104.266 46.1205C103.963 46.5749 107.76 46.6507 108.595 45.8933C111.177 43.5457 114.67 36.8056 116.873 33.7763C118.24 32.7918 128.567 29.3081 124.087 35.821C118.695 43.6214 115.506 51.8761 124.391 49.9828C124.922 49.8314 128.416 48.9226 129.555 48.0138C129.251 48.6197 110.646 80.8813 110.494 81.3357C110.646 82.4717 110.949 83.3804 111.101 83.9106C111.177 84.1377 111.405 84.2892 111.709 84.3649C111.937 84.3649 112.164 84.3649 112.392 84.2892C113 84.062 122.644 68.5371 130.314 54.8297C136.389 43.9243 142.617 34.155 144.135 31.883C148.008 31.4286 154.235 40.8193 151.729 42.7883C148.844 45.0603 136.237 49.6799 136.01 50.3615C135.706 51.1188 135.478 52.1033 135.858 52.5577C136.389 52.3305 152.868 45.8933 153.324 45.7419Z" fill="#B51D09"></path><path d="M159.476 51.7246C162.437 51.9518 168.816 40.5921 172.917 30.0654C173.676 28.0207 167.146 23.4768 166.386 25.673C165.627 27.8692 158.488 47.3322 157.957 48.6196C157.349 50.21 157.729 51.5732 159.476 51.7246Z" fill="#B51D09"></path><path d="M166.842 21.2048C169.424 21.2806 172.158 20.0689 174.284 18.5542C176.031 17.2668 179.221 14.5405 177.55 12.2685C176.563 10.9811 174.74 10.8296 173.145 11.0568C169.5 11.5112 165.247 14.7676 164.336 16.8124C163.881 17.8726 163.653 19.0843 164.26 19.9931C164.792 20.8262 165.855 21.1291 166.842 21.2048Z" fill="#B51D09"></path><path d="M219.24 2.72638C217.873 0.227236 215.063 -0.378615 212.33 0.227237C209.596 0.833089 207.014 2.27199 204.887 4.31674C201.014 8.02758 197.749 13.6317 197.293 14.4648C194.787 19.3116 193.193 24.537 192.205 29.6868C190.914 36.0482 190.079 42.6369 190.535 49.0741C190.535 49.377 190.459 49.6042 190.307 49.8314C188.864 51.4975 185.219 54.9054 181.725 56.8744C181.574 56.9501 181.346 56.9501 181.27 56.8744C179.447 55.587 179.371 52.3305 181.042 45.5147C182.941 37.7143 192.813 15.2978 192.433 15.6007C191.826 16.0551 190.307 17.1911 188.18 19.3116C184.991 22.568 182.257 26.2031 179.827 29.9897C177.397 33.852 175.346 37.8658 173.6 41.9553C172.157 45.3632 170.486 48.9983 170.258 52.7092C170.107 55.8142 171.094 58.8434 174.055 60.0551C176.03 60.8882 178.004 60.8882 179.979 60.2823C180.89 59.9794 181.877 59.6007 182.713 59.0706C183.092 58.8434 183.472 58.6162 183.776 58.389C185.826 57.0259 188.18 54.6782 190.003 52.7849C190.231 52.482 190.762 52.6334 190.762 53.0121C191.142 55.284 192.433 58.9192 195.091 63.0844C195.167 63.2358 195.167 63.463 195.091 63.6145C194.559 64.4475 192.053 66.7195 181.194 67.5525C170.486 68.3856 143.983 51.0431 132.516 69.976C132.44 70.1274 132.44 70.3546 132.516 70.5061L146.185 88C146.489 88.3787 147.097 88.0758 147.021 87.6214C145.654 82.6988 143.679 71.7935 152.412 70.1274C156.665 69.2944 163.803 70.0517 171.246 71.4148C180.207 73.0809 191.826 72.3236 196.762 65.1291C198.432 62.7057 199.799 58.6162 199.799 58.6162C199.344 57.4045 198.888 56.1928 198.508 54.9054C198.281 54.0723 198.053 53.315 197.825 52.482C197.217 50.1343 196.838 47.7866 196.686 45.4389C196.686 45.2117 196.762 44.9088 196.914 44.6816C198.129 43.2427 199.268 41.8038 200.407 40.3649C206.862 32.1859 213.013 23.704 217.721 14.389C220.683 8.48197 220.379 4.84686 219.24 2.72638ZM196.686 42.2582C196.762 41.4252 198.129 20.8262 206.254 12.42C210.127 8.48197 214.532 6.28576 217.114 7.64892C217.266 7.72466 217.418 7.95185 217.342 8.17904C214.684 17.6455 196.686 42.7883 196.686 42.2582Z" fill="#B51D09"></path><path d="M64.8535 54.7539L67.6633 60.8882C68.119 60.8882 109.507 54.2238 112.24 53.0878C114.595 52.1033 68.2708 54.451 64.8535 54.7539Z" fill="url(#paint0_linear)"></path><path d="M49.3614 34.6851C68.1947 18.9329 85.737 15.6007 83.4587 6.74016C81.1046 -2.57482 39.8688 6.43723 36.6034 8.17905C30.9838 13.3288 10.252 36.8056 0 64.5233C0 64.5233 10.4798 79.8211 12.0746 81.1085C13.6693 82.3202 12.3024 65.8107 23.7694 43.0155C22.6303 51.346 36.2237 67.9312 61.9676 62.1756L58.6262 54.7539C48.9058 56.723 31.0597 49.9071 49.3614 34.6851ZM33.5658 30.9742C32.0469 31.5801 30.68 31.9587 29.465 32.1859C33.4139 23.5526 38.8057 17.6455 43.1343 14.2376C49.9689 11.284 58.7021 9.69368 63.2585 10.9054C68.2706 12.2686 48.2982 25.1429 33.5658 30.9742Z" fill="url(#paint1_linear)"></path></g><defs><linearGradient id="paint0_linear" x1="88.5904" y1="52.8482" x2="88.7993" y2="66.4809" gradientUnits="userSpaceOnUse"><stop stop-color="#0D386F"></stop><stop offset="1" stop-color="#072953"></stop></linearGradient><linearGradient id="paint1_linear" x1="41.8294" y1="2.58588" x2="53.0799" y2="134.911" gradientUnits="userSpaceOnUse"><stop stop-color="#0D386F"></stop><stop offset="1" stop-color="#072953"></stop></linearGradient><clipPath id="clip0"><rect width="220" height="88" fill="white"></rect></clipPath></defs></svg> 