<?xml version="1.0" encoding="UTF-8"?> <svg xmlns="http://www.w3.org/2000/svg" width="27" height="30" viewBox="0 0 27 30" fill="none"><path fill-rule="evenodd" clip-rule="evenodd" d="M4.53726 21.8866C4.04761 21.6311 3.8578 21.0271 4.1133 20.5374L7.27175 14.4847C7.52725 13.995 8.13131 13.8052 8.62096 14.0607C9.11061 14.3162 9.30042 14.9202 9.04492 15.4099L5.88647 21.4627C5.63097 21.9523 5.02691 22.1421 4.53726 21.8866Z" fill="#2B5081"></path><path fill-rule="evenodd" clip-rule="evenodd" d="M12.5536 21.8945C12.0596 21.6475 11.8594 21.0468 12.1064 20.5528L20.1066 4.55284C20.3536 4.05886 20.9543 3.85863 21.4483 4.10562C21.9423 4.35261 22.1425 4.95329 21.8955 5.44726L13.8953 21.4473C13.6483 21.9412 13.0476 22.1415 12.5536 21.8945Z" fill="#B51D09"></path><path fill-rule="evenodd" clip-rule="evenodd" d="M8.55266 21.8945C8.05866 21.6475 7.85843 21.0468 8.10543 20.5528L13.6056 9.55283C13.8526 9.05885 14.4533 8.85863 14.9473 9.10562C15.4413 9.35261 15.6415 9.95328 15.3945 10.4473L9.89433 21.4473C9.64734 21.9412 9.04665 22.1415 8.55266 21.8945Z" fill="#2B5081"></path><path fill-rule="evenodd" clip-rule="evenodd" d="M0 29C0 28.4477 0.447728 28 1.00003 28H17.0005C17.5528 28 18.0005 28.4477 18.0005 29C18.0005 29.5523 17.5528 30 17.0005 30H1.00003C0.447728 30 0 29.5523 0 29Z" fill="#E6E8E9"></path><path fill-rule="evenodd" clip-rule="evenodd" d="M4 1C4 0.447715 4.44773 -2.55858e-08 5.00003 -5.71475e-08L25.5006 -1.22867e-06C26.0529 -1.26023e-06 26.5006 0.447714 26.5006 0.999999C26.5006 1.55228 26.0529 2 25.5006 2L5.00003 2C4.44773 2 4 1.55228 4 1Z" fill="#E6E8E9"></path></svg> 