<?xml version="1.0" encoding="UTF-8"?> <svg xmlns="http://www.w3.org/2000/svg" width="141" height="76" viewBox="0 0 141 76" fill="none"><path d="M138.026 41.1435C138.345 40.3788 137.983 39.5006 137.219 39.1818L124.758 33.9867C123.994 33.6679 123.115 34.0293 122.797 34.7939C122.478 35.5586 122.839 36.4369 123.604 36.7557L134.68 41.3735L130.062 52.4494C129.743 53.214 130.105 54.0923 130.869 54.4111C131.634 54.7299 132.512 54.3685 132.831 53.6039L138.026 41.1435ZM1.01719 25.2278C29.5327 49.9595 63.6508 54.0991 90.5091 52.1069C103.946 51.1102 115.605 48.5773 123.906 46.294C128.058 45.152 131.373 44.0712 133.656 43.274C134.798 42.8754 135.681 42.5475 136.282 42.3182C136.582 42.2036 136.812 42.1135 136.968 42.0516C137.046 42.0206 137.106 41.9966 137.147 41.9801C137.167 41.9719 137.183 41.9655 137.194 41.961C137.199 41.9588 137.204 41.957 137.207 41.9557C137.208 41.9551 137.21 41.9545 137.21 41.9542C137.212 41.9537 137.212 41.9534 136.642 40.5662C136.071 39.1791 136.071 39.179 136.071 39.179C136.07 39.1792 136.07 39.1794 136.069 39.1797C136.068 39.1804 136.065 39.1816 136.061 39.1832C136.053 39.1865 136.04 39.1917 136.022 39.1988C135.987 39.213 135.934 39.2345 135.861 39.2631C135.717 39.3204 135.5 39.4056 135.212 39.5154C134.637 39.7351 133.78 40.0531 132.667 40.4418C130.441 41.2193 127.19 42.2793 123.11 43.4015C114.948 45.6467 103.485 48.1361 90.2871 49.1151C63.8762 51.0741 30.6735 46.9778 2.98281 22.9614L1.01719 25.2278Z" fill="url(#paint0_linear)"></path><defs><linearGradient id="paint0_linear" x1="65.9444" y1="12.9528" x2="80.2568" y2="82.8894" gradientUnits="userSpaceOnUse"><stop stop-color="#0D386F"></stop><stop offset="1" stop-color="#072953"></stop></linearGradient></defs></svg> 