<?xml version="1.0" encoding="UTF-8"?> <!-- Generator: Adobe Illustrator 24.0.1, SVG Export Plug-In . SVG Version: 6.00 Build 0) --> <svg xmlns="http://www.w3.org/2000/svg" xmlns:xlink="http://www.w3.org/1999/xlink" version="1.1" id="Layer_1" x="0px" y="0px" viewBox="0 0 162.21 87.85" style="enable-background:new 0 0 162.21 87.85;" xml:space="preserve"> <style type="text/css"> .st0{fill:#4167B0;} .st1{fill:none;stroke:#C1C5C8;stroke-width:1.5221;} .st2{fill:#FFFFFF;stroke:#FFFFFF;stroke-width:0.5016;} .st3{fill:#FFFFFF;} .st4{fill:none;stroke:#FFFFFF;stroke-width:1.4845;} .st5{fill:none;stroke:#C1C5C8;stroke-width:1.5676;} </style> <g> <path class="st0" d="M160.79,57.43c0,14.95-11.18,27.28-25.61,29.02H16.94c-0.16-0.03-0.31-0.06-0.46-0.1C7.6,84.3,1,76.65,1,67.52 c0-10.01,7.93-18.25,18.09-19.27c-0.01-0.18-0.01-0.37-0.01-0.56c0-12.13,10.08-21.97,22.52-21.97c2.37,0,4.66,0.36,6.81,1.03 C54.52,12.13,68.97,1.86,85.82,1.86c17.76,0,32.85,11.41,38.33,27.3c2.39-0.64,4.91-0.98,7.51-0.98 C147.75,28.18,160.79,41.27,160.79,57.43z"></path> <g> <g> <g> <path class="st1" d="M89.16,44.73"></path> </g> </g> <g> <g> <path class="st1" d="M94.23,71.27"></path> </g> </g> <g> <path class="st2" d="M39.36,46.21c4.03,0,7.28,1.21,9.73,3.63c2.45,2.42,3.67,5.63,3.67,9.63c0,3.79-1.17,6.93-3.49,9.43 c-2.48,2.69-5.78,4.03-9.9,4.03c-4,0-7.24-1.25-9.71-3.74c-2.48-2.5-3.71-5.74-3.71-9.72c0-3.98,1.23-7.19,3.69-9.61 C32.08,47.42,35.33,46.21,39.36,46.21z M39.36,48.09c-1.52,0-2.56,0.76-3.12,2.27c-0.56,1.51-0.84,4.34-0.84,8.5 c0,3.61,0.1,6.03,0.3,7.26c0.53,3.28,1.75,4.92,3.66,4.92c1.52,0,2.57-0.95,3.14-2.86c0.53-1.74,0.8-4.85,0.8-9.32 c0-4.15-0.27-6.99-0.83-8.5C41.92,48.85,40.88,48.09,39.36,48.09z"></path> </g> <path class="st3" d="M118.24,34.43c3.19,0.14,5.67,2.09,5.52,4.28c-0.14,2.13-2.78,3.8-6.05,3.66c-3.94-0.17-5.37-2.73-5.27-4.27 C112.54,36.67,114.47,34.26,118.24,34.43 M119.72,67.58c-4.59,4.43-8.34,7.71-14.55,7.44c-4.86-0.21-5.62-2.8-5.52-4.22 c0.17-2.61,7.71-17.13,7.81-18.49c0.13-1.9-2.39-2.06-4.82-2.11l0.11-1.6c3.37-0.03,11.29-0.22,17.06-0.92 c-3.84,8.33-9.8,20.6-9.92,22.5c-0.04,0.59,0.69,0.92,1.2,0.94c2.01,0.09,5.06-2.75,6.86-4.45L119.72,67.58z"></path> <path class="st3" d="M48.54,47.07v-0.69h11.68v2.9c0,0,2.79-3.44,7.75-3.59c0.72,0.04,5.23-0.15,7.4,4.24 c0.72-0.76,3.4-3.97,7.75-4.24c0.69,0,7.63-0.42,8.51,7.21c0.04,0.92,0,14.89,0,14.89s-0.27,2.17,2.79,2.06c0,1.26,0,2.21,0,2.21 H80.11l-0.04-2.25c0,0,2.79,0.5,2.79-2.37c0-2.86,0-14.31,0-14.31s-0.08-2.82-2.21-2.82c-0.5-0.04-2.56,0-4.62,2.67 c0.04,2.98,0,14.62,0,14.62s-0.04,2.33,2.63,2.25c0,1.37,0,2.21,0,2.21H64.53v-2.21c0,0,2.6,0.31,2.75-2.06 c-0.04-2.29,0-14.31,0-14.31s-0.04-3.21-2.18-3.17c-0.72-0.04-2.6,0-4.73,2.71c0.08,4.12,0,14.66,0,14.66s-0.15,2.29,2.63,2.21 c0.04,1.49,0,2.21,0,2.21H48.54v-1.26c0,0,4.7-1.95,6.37-9.12c0.19-0.84,0.69-5.04-1.11-8.7C53.46,52.42,52.2,49.32,48.54,47.07z"></path> <path class="st4" d="M89.35,44.73c3.75-8.24,12.17-13.97,21.97-13.97c13.3,0,24.08,10.57,24.08,23.61S124.62,78,111.32,78 c-6.91,0-13.13-2.85-17.52-7.42"></path> <g> <g> <path class="st5" d="M90.01,44.85"></path> </g> </g> <g> <g> <path class="st5" d="M95.24,72.18"></path> </g> </g> </g> <g> <path class="st3" d="M133.39,77.58c-0.38,0.39-0.83,0.58-1.35,0.58c-0.54,0-1-0.2-1.38-0.59c-0.37-0.4-0.56-0.88-0.56-1.46 c0-0.6,0.2-1.1,0.6-1.5c0.38-0.37,0.82-0.56,1.33-0.56c0.53,0,0.99,0.2,1.37,0.6c0.38,0.4,0.57,0.89,0.57,1.45 C133.97,76.69,133.78,77.18,133.39,77.58z M130.9,74.91c-0.31,0.33-0.46,0.73-0.46,1.19c0,0.48,0.16,0.88,0.47,1.21 c0.31,0.33,0.69,0.5,1.13,0.5c0.44,0,0.81-0.17,1.12-0.5c0.31-0.34,0.47-0.74,0.47-1.21c0-0.46-0.16-0.85-0.46-1.19 c-0.31-0.34-0.69-0.51-1.13-0.51C131.59,74.4,131.22,74.57,130.9,74.91z M131.19,77.25v-2.28c0.13,0,0.33,0,0.6,0 c0.27,0,0.41,0,0.44,0c0.17,0.01,0.31,0.05,0.42,0.12c0.19,0.11,0.29,0.29,0.29,0.54c0,0.19-0.05,0.33-0.15,0.42 c-0.1,0.09-0.22,0.14-0.37,0.15c0.13,0.03,0.24,0.07,0.3,0.13c0.13,0.11,0.19,0.28,0.19,0.51v0.2c0,0.02,0,0.04,0,0.07 c0,0.02,0.01,0.04,0.02,0.07l0.02,0.06h-0.54c-0.02-0.07-0.03-0.18-0.04-0.32c-0.01-0.14-0.02-0.23-0.04-0.28 c-0.03-0.08-0.08-0.14-0.16-0.17c-0.04-0.02-0.11-0.03-0.19-0.04l-0.12-0.01h-0.12v0.81H131.19z M132.21,75.42 c-0.08-0.03-0.19-0.05-0.33-0.05h-0.14v0.66h0.22c0.13,0,0.23-0.03,0.31-0.08c0.07-0.06,0.11-0.15,0.11-0.27 S132.33,75.47,132.21,75.42z"></path> </g> </g> </svg> 