<?xml version="1.0" encoding="UTF-8"?> <svg xmlns="http://www.w3.org/2000/svg" width="152" height="179" viewBox="0 0 152 179" fill="none"><path d="M48.6145 125V115.976H51.8465V114.328H43.5105V115.976H46.7425V125H48.6145ZM58.0026 125.192C61.2026 125.192 63.4586 122.856 63.4586 119.672C63.4586 116.488 61.2026 114.152 58.0026 114.152C54.8026 114.152 52.5466 116.488 52.5466 119.672C52.5466 122.856 54.8026 125.192 58.0026 125.192ZM58.0026 123.528C55.8426 123.528 54.4666 121.864 54.4666 119.672C54.4666 117.464 55.8426 115.816 58.0026 115.816C60.1466 115.816 61.5386 117.464 61.5386 119.672C61.5386 121.864 60.1466 123.528 58.0026 123.528ZM67.133 125V121.016H69.949C72.173 121.016 73.437 119.48 73.437 117.672C73.437 115.864 72.189 114.328 69.949 114.328H65.261V125H67.133ZM69.693 119.368H67.133V115.976H69.693C70.749 115.976 71.517 116.648 71.517 117.672C71.517 118.696 70.749 119.368 69.693 119.368ZM82.7528 125.192C85.6328 125.192 86.8808 123.672 86.8808 121.896C86.8808 117.912 80.6728 119.144 80.6728 117.16C80.6728 116.36 81.3768 115.832 82.4808 115.832C83.6008 115.832 84.7368 116.216 85.5688 117.048L86.6408 115.656C85.6488 114.696 84.3048 114.168 82.6408 114.168C80.3048 114.168 78.7528 115.528 78.7528 117.288C78.7528 121.224 84.9768 119.832 84.9768 122.072C84.9768 122.776 84.3688 123.528 82.8328 123.528C81.3448 123.528 80.1928 122.84 79.4568 122.056L78.4168 123.496C79.3608 124.504 80.7848 125.192 82.7528 125.192ZM95.9167 125V123.352H90.4768V120.392H95.8048V118.744H90.4768V115.976H95.9167V114.328H88.6048V125H95.9167ZM102.815 125.192C106.015 125.192 108.271 122.856 108.271 119.672C108.271 116.488 106.015 114.152 102.815 114.152C99.6151 114.152 97.3591 116.488 97.3591 119.672C97.3591 122.856 99.6151 125.192 102.815 125.192ZM102.815 123.528C100.655 123.528 99.2791 121.864 99.2791 119.672C99.2791 117.464 100.655 115.816 102.815 115.816C104.959 115.816 106.351 117.464 106.351 119.672C106.351 121.864 104.959 123.528 102.815 123.528ZM32.9123 140.192C35.0723 140.192 36.3843 139.072 37.2003 137.792L35.6003 136.976C35.0883 137.872 34.0643 138.528 32.9123 138.528C30.8003 138.528 29.2323 136.912 29.2323 134.672C29.2323 132.432 30.8003 130.816 32.9123 130.816C34.0643 130.816 35.0883 131.488 35.6003 132.368L37.2003 131.552C36.4003 130.272 35.0723 129.152 32.9123 129.152C29.7603 129.152 27.3123 131.392 27.3123 134.672C27.3123 137.952 29.7603 140.192 32.9123 140.192ZM43.6745 140.192C46.8745 140.192 49.1305 137.856 49.1305 134.672C49.1305 131.488 46.8745 129.152 43.6745 129.152C40.4745 129.152 38.2185 131.488 38.2185 134.672C38.2185 137.856 40.4745 140.192 43.6745 140.192ZM43.6745 138.528C41.5145 138.528 40.1385 136.864 40.1385 134.672C40.1385 132.464 41.5145 130.816 43.6745 130.816C45.8185 130.816 47.2105 132.464 47.2105 134.672C47.2105 136.864 45.8185 138.528 43.6745 138.528ZM60.1809 140V129.328H58.3089V136.736L52.8529 129.328H50.9329V140H52.8049V132.384L58.3729 140H60.1809ZM66.0965 140.192C68.9765 140.192 70.2245 138.672 70.2245 136.896C70.2245 132.912 64.0165 134.144 64.0165 132.16C64.0165 131.36 64.7205 130.832 65.8245 130.832C66.9445 130.832 68.0805 131.216 68.9125 132.048L69.9845 130.656C68.9925 129.696 67.6485 129.168 65.9845 129.168C63.6485 129.168 62.0965 130.528 62.0965 132.288C62.0965 136.224 68.3205 134.832 68.3205 137.072C68.3205 137.776 67.7125 138.528 66.1765 138.528C64.6885 138.528 63.5365 137.84 62.8005 137.056L61.7605 138.496C62.7045 139.504 64.1285 140.192 66.0965 140.192ZM76.5725 140.192C79.6605 140.192 81.1805 138.432 81.1805 135.776V129.328H79.2925V135.728C79.2925 137.424 78.3485 138.528 76.5725 138.528C74.7805 138.528 73.8365 137.424 73.8365 135.728V129.328H71.9485V135.792C71.9485 138.416 73.4685 140.192 76.5725 140.192ZM90.0245 140V138.352H85.3205V129.328H83.4485V140H90.0245ZM94.5364 140V130.976H97.7684V129.328H89.4324V130.976H92.6644V140H94.5364ZM101.227 140V129.328H99.3548V140H101.227ZM112.743 140V129.328H110.871V136.736L105.415 129.328H103.495V140H105.367V132.384L110.935 140H112.743ZM120.131 140.208C121.987 140.208 123.475 139.44 124.531 138.272V134.272H119.475V135.92H122.659V137.584C122.179 138.032 121.219 138.544 120.131 138.544C118.019 138.544 116.451 136.912 116.451 134.672C116.451 132.432 118.019 130.816 120.131 130.816C121.331 130.816 122.339 131.44 122.899 132.24L124.435 131.376C123.571 130.144 122.211 129.152 120.131 129.152C117.043 129.152 114.531 131.328 114.531 134.672C114.531 138.016 117.043 140.208 120.131 140.208ZM48.6344 155L44.4424 144.328H42.1064L37.9144 155H40.0424L40.8264 152.952H45.7224L46.5064 155H48.6344ZM45.1944 151.304H41.3544L43.2744 146.216L45.1944 151.304ZM54.3576 155.208C56.2136 155.208 57.7016 154.44 58.7576 153.272V149.272H53.7016V150.92H56.8856V152.584C56.4056 153.032 55.4456 153.544 54.3576 153.544C52.2456 153.544 50.6776 151.912 50.6776 149.672C50.6776 147.432 52.2456 145.816 54.3576 145.816C55.5576 145.816 56.5656 146.44 57.1256 147.24L58.6616 146.376C57.7976 145.144 56.4376 144.152 54.3576 144.152C51.2696 144.152 48.7576 146.328 48.7576 149.672C48.7576 153.016 51.2696 155.208 54.3576 155.208ZM68.0183 155V153.352H62.5783V150.392H67.9063V148.744H62.5783V145.976H68.0183V144.328H60.7063V155H68.0183ZM79.1887 155V144.328H77.3167V151.736L71.8607 144.328H69.9407V155H71.8127V147.384L77.3807 155H79.1887ZM86.5763 155.192C88.7363 155.192 90.0483 154.072 90.8643 152.792L89.2643 151.976C88.7523 152.872 87.7283 153.528 86.5763 153.528C84.4643 153.528 82.8963 151.912 82.8963 149.672C82.8963 147.432 84.4643 145.816 86.5763 145.816C87.7283 145.816 88.7523 146.488 89.2643 147.368L90.8643 146.552C90.0643 145.272 88.7363 144.152 86.5763 144.152C83.4243 144.152 80.9763 146.392 80.9763 149.672C80.9763 152.952 83.4243 155.192 86.5763 155.192ZM94.2346 155V144.328H92.3626V155H94.2346ZM103.815 155V153.352H98.3752V150.392H103.703V148.744H98.3752V145.976H103.815V144.328H96.5032V155H103.815ZM109.386 155.192C112.266 155.192 113.514 153.672 113.514 151.896C113.514 147.912 107.306 149.144 107.306 147.16C107.306 146.36 108.01 145.832 109.114 145.832C110.234 145.832 111.37 146.216 112.202 147.048L113.274 145.656C112.282 144.696 110.938 144.168 109.274 144.168C106.938 144.168 105.386 145.528 105.386 147.288C105.386 151.224 111.61 149.832 111.61 152.072C111.61 152.776 111.002 153.528 109.466 153.528C107.978 153.528 106.826 152.84 106.09 152.056L105.05 153.496C105.994 154.504 107.418 155.192 109.386 155.192Z" fill="black"></path><path d="M76.765 68.6658C76.5774 68.6658 76.5774 68.4651 76.765 68.6658L75.827 68.0635L75.6394 67.8627L53.5036 50.9974C53.5036 50.9974 53.3161 50.9974 53.3161 50.7967L52.9409 50.3951L52.7533 50.1943H52.3781L46 45.3757L58.5686 47.3834C59.1314 47.3834 59.319 47.5842 59.8817 47.785C60.0693 47.785 60.4445 47.9858 60.4445 47.9858C61.0073 48.1866 61.1949 48.3873 61.5701 48.5881C61.9453 48.7889 62.1328 48.9897 62.508 49.1904C62.6956 49.3912 63.0708 49.592 63.0708 49.7928C63.2584 49.9935 63.446 49.9936 63.6336 50.1943C64.0088 50.3951 64.1963 50.5959 64.1963 50.7967C64.7591 51.399 65.1343 52.0013 65.6971 52.4029L75.6394 67.4612L75.827 67.6619L76.765 68.6658Z" fill="#18AAD1"></path><path d="M76.7649 91.9561L75.8269 90.3499L75.6393 90.1491L46.1875 45.3757L52.5656 50.1943L53.6912 50.9974L75.8269 67.8628H76.0145L76.7649 68.4651C76.7649 68.4651 76.9525 68.4651 76.9525 68.6659L77.8904 67.8628L107.717 45.3757L77.7028 90.3499L77.5153 90.5507L76.7649 91.9561Z" fill="url(#paint0_linear)"></path><path d="M76.7649 61.036L75.8269 59.4298L75.6393 59.229L68.3232 48.387L75.6393 49.9932H75.8269L76.7649 50.194L77.7028 49.9932L84.8313 48.1862L77.7028 59.4298V59.6306L76.7649 61.036Z" fill="#18AAD1"></path><path d="M107.905 45.1749L98.5252 46.5803L94.961 47.1826C92.1471 47.5842 89.5209 49.1904 87.8325 51.8005L77.8902 67.0596L77.7026 67.2604L76.7646 68.6658L77.8902 67.4612L78.0778 67.2604L76.7646 68.6658L102.089 49.3912L107.905 45.1749Z" fill="#18AAD1"></path><path d="M81.4542 13.4521C81.4542 22.2862 67.1973 26.9041 67.1973 36.3406C67.0097 38.5492 67.5725 40.7577 68.5104 42.7655C68.5104 42.7655 63.0703 37.1437 63.0703 31.1204C63.0703 25.0971 68.3229 16.0622 68.3229 16.0622C68.3229 20.0777 69.8236 21.2824 71.3243 21.4831H71.5119C73.2002 21.4831 74.1382 20.0777 74.1382 18.0699C74.1382 16.0622 72.0747 14.0544 72.0747 10.0389C72.0747 6.22409 76.5769 0 76.5769 0C79.7659 4.01554 81.4542 8.63341 81.4542 13.4521Z" fill="#2AD2FF"></path><path d="M77.5155 45.5768C73.0134 45.5768 69.6367 41.762 69.6367 37.1441V36.9434C69.6367 26.7037 82.9557 25.6998 82.9557 11.8462C83.3309 12.4485 86.8951 17.6687 86.8951 23.2905C86.8951 30.3177 80.7046 32.1247 80.7046 35.5379C80.7046 36.9434 81.2674 37.9472 83.1433 37.9472C83.3309 37.9472 83.5185 37.9472 83.706 37.7465C87.2703 36.1402 89.709 32.5263 89.8965 28.3099C89.8965 28.5107 91.7725 45.5768 77.5155 45.5768Z" fill="#2AD2FF"></path><path d="M83.3302 37.9473C83.5178 37.9473 83.7054 37.9473 83.8929 37.7465C82.017 38.3488 75.0762 40.1558 75.0762 34.9356C75.0762 28.5107 85.3937 27.1053 85.3937 21.6843C85.3937 18.2711 84.6433 14.8579 82.955 11.8462C83.3302 12.4485 86.8944 17.6687 86.8944 23.2905C86.8944 30.3177 80.7039 32.1247 80.7039 35.5379C80.8915 36.9434 81.6419 37.9473 83.3302 37.9473Z" fill="#18AAD1"></path><path d="M77.3781 17.0661C77.3781 22.0855 71.3752 21.684 71 21.4832H71.5628C73.2511 21.4832 74.189 20.0778 74.189 18.07C74.189 16.0622 72.1255 14.0544 72.1255 10.0389C72.1255 6.2241 76.6277 0 76.6277 0C75.127 2.61011 74.3766 5.42099 74.189 8.23188C74.189 12.8498 77.3781 13.2513 77.3781 17.0661Z" fill="#18AAD1"></path><path d="M73.9512 104.806L69.8242 101.794H74.8892L76.5775 96.373L78.0782 101.794H83.1432L79.0162 104.806L80.5169 110.026L76.3899 106.813L72.0753 110.026L73.9512 104.806Z" fill="#18AAD1"></path><path d="M97.127 104.806L93 101.794H98.065L99.7533 96.373L101.254 101.794H106.319L102.192 104.806L103.693 110.026L99.5657 106.813L95.2511 110.026L97.127 104.806Z" fill="#18AAD1"></path><path d="M120.127 104.806L116 101.794H121.065L122.753 96.373L124.254 101.794H129.319L125.192 104.806L126.693 110.026L122.566 106.813L118.251 110.026L120.127 104.806Z" fill="#18AAD1"></path><path d="M50.127 104.806L46 101.794H51.065L52.7533 96.373L54.254 101.794H59.319L55.192 104.806L56.6927 110.026L52.5657 106.813L48.4387 110.026L50.127 104.806Z" fill="#18AAD1"></path><path d="M27.127 104.806L23 101.794H28.065L29.7533 96.373L31.254 101.794H36.319L32.192 104.806L33.6927 110.026L29.5657 106.813L25.4387 110.026L27.127 104.806Z" fill="#18AAD1"></path><path d="M131.1 160.1H21.7998V178.3H131.1V160.1Z" fill="#0460B5"></path><path d="M30.2 151H8L12.6 160.1L8 169.2H20.3L20.4 159.3L30.2 151Z" fill="#0460B5"></path><path d="M122.8 151H144.9L140.3 160.1L144.9 169.2H132.6V159.3L122.8 151Z" fill="#0460B5"></path><path d="M32.8998 166C33.4998 166.3 33.9998 166.8 34.2998 167.3C34.5998 167.9 34.7998 168.6 34.7998 169.2C34.7998 169.9 34.5998 170.5 34.2998 171.1C33.9998 171.7 33.4998 172.1 32.8998 172.4C32.2998 172.7 31.5998 172.9 30.8998 172.9H27.7998V165.4H30.8998C31.5998 165.5 32.2998 165.6 32.8998 166ZM32.1998 171.4C32.5998 171.2 32.8998 170.9 33.0998 170.5C33.4998 169.7 33.4998 168.7 33.0998 167.9C32.8998 167.5 32.5998 167.2 32.1998 167C31.7998 166.8 31.3998 166.7 30.8998 166.7H29.1998V171.7H30.8998C31.2998 171.7 31.7998 171.6 32.1998 171.4Z" fill="white"></path><path d="M36 165.5H41.5V166.7H37.5V168.6H41.1V169.8H37.5V171.7H41.7V172.9H36V165.5Z" fill="white"></path><path d="M46.6998 166.9C46.3998 166.8 45.9998 166.7 45.5998 166.7C45.2998 166.7 44.9998 166.8 44.7998 166.9C44.5998 167 44.4998 167.2 44.4998 167.4C44.4998 167.6 44.5998 167.8 44.6998 167.9C44.7998 168 44.9998 168.2 45.1998 168.2C45.4998 168.3 45.7998 168.4 46.0998 168.5C46.4998 168.6 46.8998 168.8 47.2998 168.9C47.5998 169.1 47.8998 169.3 48.0998 169.6C48.2998 169.9 48.4998 170.3 48.3998 170.8C48.3998 171.2 48.2998 171.7 47.9998 172C47.6998 172.3 47.3998 172.6 46.9998 172.8C46.4998 173 45.9998 173.1 45.4998 173.1C44.8998 173.1 44.2998 173 43.7998 172.8C43.2998 172.6 42.7998 172.3 42.2998 171.9L42.8998 170.7C43.2998 171 43.6998 171.3 44.1998 171.5C44.5998 171.7 45.0998 171.8 45.4998 171.8C45.7998 171.8 46.1998 171.7 46.3998 171.6C46.7998 171.4 46.7998 170.9 46.5998 170.5L46.4998 170.4C46.2998 170.3 46.1998 170.1 45.9998 170.1C45.7998 170 45.4998 169.9 45.0998 169.8C44.6998 169.7 44.2998 169.5 43.8998 169.4C43.5998 169.3 43.2998 169 43.0998 168.8C42.8998 168.5 42.6998 168.1 42.7998 167.7C42.7998 167.3 42.8998 166.9 43.0998 166.6C43.3998 166.3 43.6998 166 44.0998 165.8C44.5998 165.6 45.0998 165.5 45.5998 165.5C46.0998 165.5 46.5998 165.6 46.9998 165.7C47.3998 165.8 47.8998 166 48.2998 166.3L47.6998 167.5C47.4998 167.2 47.0998 167 46.6998 166.9Z" fill="white"></path><path d="M49.9004 165.5H51.3004V173H49.9004V165.5Z" fill="white"></path><path d="M58.2 169.2H59.4V172.1C59 172.4 58.5 172.6 58 172.8C57.5 173 57 173.1 56.4 173.1C55.7 173.1 55 172.9 54.4 172.6C53.8 172.3 53.3 171.8 53 171.2C52.6 170.6 52.5 169.9 52.5 169.2C52.5 168.5 52.7 167.8 53 167.3C53.4 166.7 53.9 166.2 54.5 165.9C55.1 165.6 55.8 165.4 56.5 165.4C57 165.4 57.6 165.5 58.1 165.7C58.6 165.9 59.1 166.1 59.4 166.5L58.6 167.6C58.3 167.3 58 167.1 57.6 167C57.2 166.9 56.9 166.8 56.5 166.8C56 166.8 55.6 166.9 55.2 167.1C54 167.8 53.6 169.4 54.3 170.6C54.8 171.4 55.6 171.9 56.5 171.9C56.8 171.9 57 171.9 57.3 171.8C57.6 171.7 57.9 171.6 58.1 171.4L58.2 169.2Z" fill="white"></path><path d="M66.4002 165.5H67.8002V173H66.5002L62.6002 167.8V173H61.2002V165.5H62.6002L66.5002 170.7L66.4002 165.5Z" fill="white"></path><path d="M74.2996 173L72.9996 170.8H70.9996V173H69.5996V165.5H72.6996C73.4996 165.4 74.2996 165.7 74.9996 166.1C75.4996 166.6 75.7996 167.3 75.7996 168C75.7996 168.5 75.6996 169 75.3996 169.5C75.0996 169.9 74.6996 170.2 74.2996 170.4L75.9996 172.9L74.2996 173ZM70.9996 169.5H72.6996C73.1996 169.5 73.5996 169.4 73.9996 169.1C74.2996 168.8 74.3996 168.5 74.3996 168.1C74.3996 167.7 74.2996 167.3 73.9996 167.1C73.5996 166.9 73.1996 166.7 72.7996 166.8H70.9996V169.5Z" fill="white"></path><path d="M79.0996 171.3C79.4996 171.6 79.9996 171.8 80.3996 171.8C80.8996 171.8 81.3996 171.6 81.6996 171.3C81.9996 170.9 82.1996 170.4 82.1996 169.9V165.5H83.5996V169.9C83.5996 170.5 83.4996 171.1 83.1996 171.6C82.8996 172.1 82.4996 172.5 82.0996 172.7C81.5996 173 80.9996 173.1 80.3996 173.1C79.7996 173.1 79.1996 173 78.5996 172.7C78.0996 172.5 77.6996 172.1 77.4996 171.6C77.1996 171.1 77.0996 170.5 77.0996 169.9V165.5H78.4996V169.9C78.5996 170.4 78.7996 170.9 79.0996 171.3Z" fill="white"></path><path d="M88.9996 166.9C88.6996 166.8 88.2996 166.7 87.8996 166.7C87.5996 166.7 87.2996 166.8 87.0996 166.9C86.8996 167 86.7996 167.2 86.7996 167.4C86.7996 167.6 86.8996 167.8 86.9996 167.9C87.0996 168 87.2996 168.2 87.4996 168.2C87.7996 168.3 88.0996 168.4 88.3996 168.5C88.7996 168.6 89.1996 168.8 89.5996 168.9C89.8996 169.1 90.1996 169.3 90.3996 169.6C90.5996 169.9 90.7996 170.3 90.6996 170.8C90.6996 171.2 90.5996 171.7 90.2996 172C89.9996 172.3 89.6996 172.6 89.2996 172.8C88.7996 173 88.2996 173.1 87.7996 173.1C87.1996 173.1 86.5996 173 86.0996 172.8C85.5996 172.6 85.0996 172.3 84.5996 171.9L85.1996 170.7C85.5996 171 85.9996 171.3 86.4996 171.5C86.8996 171.7 87.3996 171.8 87.7996 171.8C88.0996 171.8 88.4996 171.7 88.6996 171.6C89.0996 171.4 89.0996 170.9 88.8996 170.5L88.7996 170.4C88.5996 170.3 88.4996 170.1 88.2996 170.1C88.0996 170 87.7996 169.9 87.3996 169.8C86.9996 169.7 86.5996 169.5 86.1996 169.4C85.8996 169.3 85.5996 169 85.3996 168.8C85.1996 168.5 84.9996 168.1 85.0996 167.7C85.0996 167.3 85.1996 166.9 85.3996 166.6C85.6996 166.3 85.9996 166 86.3996 165.8C86.8996 165.6 87.3996 165.5 87.8996 165.5C88.3996 165.5 88.8996 165.6 89.2996 165.7C89.6996 165.8 90.1996 166 90.5996 166.3L89.9996 167.5C89.7996 167.2 89.3996 167 88.9996 166.9Z" fill="white"></path><path d="M92.2002 165.5H93.6002V168.7H97.3002V165.5H98.7002V173H97.3002V170H93.6002V173H92.2002V165.5Z" fill="white"></path><path d="M101.4 171.7C101.5 171.8 101.6 172 101.6 172.3C101.6 172.5 101.5 172.7 101.4 172.9C101.3 173 101.1 173.1 100.9 173.1C100.7 173.1 100.5 173 100.4 172.9C100.3 172.7 100.2 172.5 100.2 172.3C100.2 172.1 100.3 171.9 100.4 171.7C100.5 171.6 100.7 171.5 100.9 171.5C101.1 171.5 101.3 171.6 101.4 171.7Z" fill="white"></path><path d="M105.4 168.4C105 168.4 104.6 168.6 104.3 168.9C104 169.2 103.9 169.7 103.9 170.1C103.9 170.6 104 171 104.3 171.3C104.6 171.6 105 171.8 105.4 171.8C106 171.8 106.6 171.6 106.9 171.1L107.8 171.8C107.5 172.2 107.2 172.5 106.8 172.7C106.3 172.9 105.8 173 105.3 173C104.8 173 104.3 172.9 103.8 172.6C103.4 172.4 103 172 102.8 171.6C102.3 170.7 102.3 169.5 102.8 168.6C103 168.2 103.4 167.8 103.8 167.6C104.3 167.4 104.8 167.2 105.3 167.2C105.8 167.2 106.3 167.3 106.7 167.5C107.1 167.7 107.4 167.9 107.7 168.3L106.9 169.1C106.6 168.7 106 168.4 105.4 168.4Z" fill="white"></path><path d="M112.9 167.6C113.3 167.8 113.7 168.2 114 168.6C114.3 169.1 114.4 169.6 114.4 170.1C114.4 170.6 114.3 171.2 114 171.6C113.7 172 113.4 172.4 112.9 172.6C112.4 172.8 111.9 173 111.3 173C110.7 173 110.2 172.9 109.7 172.6C109.3 172.4 108.9 172 108.6 171.6C108.3 171.1 108.2 170.6 108.2 170.1C108.2 169.6 108.3 169 108.6 168.6C108.9 168.2 109.2 167.8 109.7 167.6C110.2 167.3 110.7 167.2 111.3 167.2C111.9 167.2 112.4 167.3 112.9 167.6ZM110.2 168.9C109.6 169.6 109.6 170.7 110.2 171.4C110.5 171.7 110.9 171.9 111.4 171.9C111.8 171.9 112.3 171.7 112.6 171.4C113.2 170.7 113.2 169.6 112.6 168.9C112.3 168.6 111.9 168.4 111.4 168.4C110.9 168.4 110.5 168.5 110.2 168.9Z" fill="white"></path><path d="M124.6 167.8C125 168.2 125.2 168.8 125.2 169.4V173H123.8V169.8C123.8 169.4 123.7 169.1 123.5 168.8C123.3 168.6 122.9 168.4 122.6 168.4C122.2 168.4 121.8 168.6 121.5 168.9C121.2 169.2 121.1 169.6 121.1 170.1V172.9H119.7V169.8C119.7 169.4 119.6 169.1 119.4 168.8C119.2 168.6 118.8 168.4 118.5 168.4C118.1 168.4 117.7 168.6 117.4 168.9C117.1 169.2 117 169.7 117.1 170.1V172.9H115.7V167.2H117.1V168.3C117.8 167.2 119.3 166.9 120.4 167.5C120.7 167.7 121 168.1 121.1 168.5C121.4 167.6 122.3 167.1 123.2 167.1C123.7 167.1 124.2 167.4 124.6 167.8Z" fill="white"></path><defs><linearGradient id="paint0_linear" x1="76.9525" y1="92.0934" x2="76.9525" y2="67.4498" gradientUnits="userSpaceOnUse"><stop offset="1" stop-color="#2AD2FF"></stop></linearGradient></defs></svg> 